<?xml version="1.0" encoding="UTF-8"?>
<!-- Created with Inkscape (http://www.inkscape.org/) -->
<svg width="312.32" height="315.52" version="1.1" viewBox="0 0 312.32 315.52" xmlns="http://www.w3.org/2000/svg">
 <path d="m152.71 314.28c-1.5382-0.81297-3.0614-2.5974-3.4807-4.0776-0.31872-1.1251-6.7274-57.78-6.7274-59.472v-0.7731h27.256l-0.18575 1.2c-0.10216 0.66-1.5635 13.728-3.2473 29.04-3.2252 29.328-3.4104 30.525-5.0014 32.337-2.0773 2.3659-5.9537 3.1514-8.6137 1.7455zm-72.288-23.997c-4.2723-0.41639-10.24-1.533-10.24-1.9161 0-3.0146 26.573-11.455 37.44-11.892 1.2756-0.0513 1.3602-0.0357-4.32-0.79773-3.9086-0.52435-9.7382-1.8374-13.014-2.9313l-1.8141-0.60575-0.20403 1.0876c-1.5325 8.1689-20.24 8.3734-36.568 0.39971-5.1748-2.5271-5.234-2.5987-2.72-3.2973 9.17-2.5483 19.887-2.3618 35.44 0.61649 0.528 0.10111-0.43201-0.45662-2.1334-1.2394-44.954-20.683-73.587-79.349-68.267-139.87 0.27664-3.1472 0.42595-5.7992 0.3318-5.8933-0.0941-0.0941-0.17118 0.14082-0.17118 0.52215 0 3.424-3.5557-2.2666-4.6122-7.3814-1.3207-6.3938-0.99845-26.925 0.44738-28.506 1.4701-1.6073 4.1399 13.97 4.4598 26.021 0.12848 4.84 0.25868 8.363 0.28933 7.8289 0.22693-3.9548 2.9579-17.32 4.964-24.294l1.1003-3.825-0.89228-0.83352c-3.1046-2.9001-2.2974-16.115 1.8177-29.757 1.419-4.7041 1.5469-4.7907 2.0503-1.3871 0.90269 6.1038 0.355 16.523-1.2884 24.51-0.34701 1.6865-0.71451 3.4738-0.81667 3.9718s0.59649-1.1106 1.5526-3.5746c11.736-30.246 29.906-50.591 57.021-63.845 2.471-1.2078 4.7732-2.506 5.1161-2.8849 3.804-4.2034 16.363-6.7724 26.311-5.3822 3.6146 0.50509 3.598 0.51407-4.8011 2.5948-4.0914 1.0136-9.6709 2.4194-12.399 3.124s-5.968 1.3682-7.2 1.4746c-5.118 0.44208-18.416 8.5905-28.537 17.486-34.318 30.163-50.018 84.401-39.434 136.23 0.84679 4.147 2.4546 10.573 2.0418 8.16-1.968-11.502 1.5479-26.025 7.708-31.84l1.1865-1.12-0.20963 1.6c-3.727 28.446-4.5618 32.406-7.1662 33.992l-0.93198 0.56771 1.4984 4.8c1.9684 6.3055 6.8866 18.985 7.2306 18.641 0.0495-0.0495-0.18945-1.0959-0.53096-2.3254-2.9072-10.466-2.2136-21.463 1.8655-29.579 1.9975-3.9745 2.3196-4.039 2.3196-0.46455 0 1.5429 0.23127 7.2789 0.51394 12.747 0.79912 15.458 0.43164 21.033-1.5236 23.114l-0.66799 0.71104 1.5208 2.8127c2.1617 3.9981 4.049 7.0795 6.9231 11.303 3.4833 5.1192 4.0562 5.7466 2.6654 2.9188-4.9829-10.132-6.0068-22.611-2.6482-32.279 0.90159-2.5953 1.0247-2.5364 1.6726 0.8 0.29908 1.54 1.6821 7.696 3.0733 13.68 3.705 15.936 4.2989 20.981 2.7486 23.347-0.76548 1.1683 3.6475 6.3332 10.715 12.541 3.4852 3.0612 4.8851 4.048 3.2858 2.3161-7.4018-8.0154-11.508-22.078-9.7005-33.221 0.49471-3.049 0.56217-3.0077 2.382 1.4597 0.92242 2.2643 3.5771 8.3649 5.8993 13.557 6.1614 13.776 7.5475 18.344 6.4884 21.382-0.47616 1.3659 5.6279 5.4882 13.914 9.3968 3.851 1.8165 4.4333 1.8497 1.7827 0.10159-8.9376-5.8944-14.991-17.424-15.667-29.84-0.24213-4.4488-0.44293-4.5074 3.2907 0.96 1.7127 2.508 5.467 7.7594 8.3429 11.67 8.4705 11.517 10.085 14.431 10.153 18.329l0.0365 2.0793 2.2394 0.73408c7.5428 2.4725 15.269 3.6821 23.759 3.7199l6.1598 0.0274 2.2e-4 1.6458c2.8e-4 2.0523 0.0445 2.0342-4.986 2.0342h-3.9738v1.019c0 7.5663-16.937 14.246-32.32 12.747zm141.28-0.0399c-11.313-0.93469-21.556-6.5631-22.419-12.319l-0.21104-1.4074h-3.7775c-4.834 0-4.7898 0.0193-4.7898-2.0963v-1.7078l3.28 0.18062c7.5313 0.41472 19.348-1.3238 27.104-3.9878l1.7441-0.59902-0.0882-1.661c-0.21219-3.9979 1.5116-7.0145 12.671-22.174 1.897-2.5771 4.6732-6.4978 6.1692-8.7125l2.72-4.0268 0.0921 3.0715c0.34056 11.363-6.2626 24.112-15.788 30.483-1.341 0.8969-2.3051 1.6307-2.1425 1.6307 1.3023 0 16.809-8.6474 17.931-9.9993 0.23761-0.2863 0.24266-0.87357 0.0166-1.9333-0.68045-3.1904 0.8206-7.8779 6.6823-20.867 1.7473-3.872 4.1674-9.3889 5.3781-12.26 2.4544-5.8201 2.4304-5.8114 3.0598-1.1071 1.3887 10.38-2.0641 21.908-9.2742 30.967l-1.783 2.24 2.9402-2.5088c3.025-2.5811 11.188-10.793 12.076-12.15 0.44281-0.67582 0.44659-0.88884 0.0333-1.8781-1.3774-3.2965-0.95457-7.007 2.4182-21.223 0.87688-3.696 2.0902-9.024 2.6963-11.84 1.4916-6.9304 1.4268-6.6889 1.7078-6.3663 4.2624 4.893 3.4269 22.657-1.5675 33.326-1.5708 3.3555-1.4661 3.3147 1.2322-0.48 4.6786-6.5797 9.9813-15.885 9.2191-16.177-1.8769-0.72023-2.6325-6.7342-2.131-16.961 0.18888-3.8514 0.47934-10.322 0.64546-14.378 0.34471-8.4176 0.28407-8.1825 1.5828-6.1346 4.6774 7.3754 5.8304 20.61 2.7287 31.319-0.40926 1.413-0.70026 2.6129-0.64668 2.6665 0.37901 0.379 5.7731-13.626 7.7127-20.025l1.0967-3.618-1.2331-1.1859c-2.2899-2.2022-3.0486-5.4166-5.3317-22.588-0.79287-5.9633-1.5319-11.202-1.6422-11.642-0.61329-2.4436 3.4288 2.3494 5.4682 6.4841 3.2153 6.5185 4.4379 14.429 3.6351 23.52l-0.21194 2.4 0.78209-3.04c14.822-57.613-6.5154-121.86-50.104-150.87-8.5746-5.7058-12.968-7.7605-18.4-8.6061-1.76-0.27394-6.9926-1.5077-11.628-2.7417s-9.6394-2.4842-11.12-2.7782c-3.3984-0.67492-3.3764-0.88067 0.14428-1.3494 10.193-1.3571 20.311 0.62435 25.95 5.0816 0.93954 0.74266 3.4149 2.1902 5.5009 3.2168 27.085 13.33 45.625 34.053 56.797 63.484 0.93528 2.464 1.7041 4.3679 1.7085 4.2309 4e-3 -0.13703-0.34497-2.009-0.77635-4.16-1.9175-9.5612-2.3525-22.223-0.92496-26.924 0.26934-0.88695 0.81718 0.54558 2.3681 6.1921 3.6696 13.36 4.0128 25.923 0.74749 27.357l-0.67372 0.29595 0.60139 1.944c1.9573 6.3271 4.0838 16.052 5.1711 23.649l0.69496 4.8554 0.03-8.32c0.0387-10.726 0.87411-17.185 3.218-24.88 1.0448-3.4298 1.2232-3.4639 1.6739-0.32 2.2755 15.876 0.48895 32.09-3.7464 34-1.0552 0.47581-1.063 0.49536-0.89478 2.24 5.9729 61.927-23.356 123.47-67.938 142.57-3.5502 1.5206-3.5021 1.6067 0.44356 0.79488 12.474-2.5667 31.662-2.243 34.487 0.58176 0.83963 0.83963-12.721 6.4049-18.436 7.566-11.29 2.2939-21.49 0.0258-22.495-5.002-0.26587-1.3293-0.38905-1.3394-3.8444-0.3136-3.9266 1.1657-7.456 1.8999-12.577 2.6163-2.2 0.30775-3.496 0.57604-2.88 0.5962 10.082 0.32991 30.611 6.6387 36.475 11.209 1.042 0.81211 1.0074 0.83229-2.7363 1.5952-5.7642 1.1747-10.598 1.4523-16.622 0.95463zm-113.34-18.526c-12.436-3.2594-24.093-17.15-24.093-28.709v-1.1188l3.44 3.285c1.892 1.8067 6.752 6.0548 10.8 9.4403 15.234 12.741 19.151 19.539 9.8535 17.103zm90.888-0.97175c0.43934-3.7096 2.9724-6.6719 12.51-14.63 7.2985-6.0901 8.3336-6.9894 13.097-11.38l3.1489-2.9021-0.22997 1.5818c-2.1751 14.961-15.514 28.942-27.613 28.942h-1.1043zm-146.18-7.1566c-7.4156-1.9868-16.261-7.2637-23.096-13.779l-2.5038-2.3866 2.0389-0.013c8.513-0.0544 20.909 4.1103 33.081 11.114 3.5029 2.0156 3.3748 1.84 2.3989 3.2881-1.7502 2.5972-6.3159 3.2777-11.919 1.7766zm196.8 0.37718c-2.0864-0.73974-3.9731-2.9811-3.1662-3.7615 4.8448-4.6861 25.079-12.191 34.286-12.717 4.0505-0.2313 4.0586-0.18172 0.48 2.9563-11.66 10.225-24.909 15.894-31.6 13.522zm-109.44-17.484c-2.7263-1.684-3.7887-5.2004-2.5252-8.3581l0.51474-1.2865h2.8237c3.2034 0 3.0004-0.18877 3.3552 3.12l0.21444 2h11.147c10.342 0 11.158-0.0404 11.306-0.56 0.0872-0.308 0.25504-1.46 0.37299-2.56l0.21444-2h5.6807l0.54362 1.04c1.4309 2.7374 0.15854 7.2211-2.4422 8.6062-1.7168 0.9143-29.725 0.9129-31.205-2e-3zm-100.72-2.7305c-7.1089-1.5398-19.08-12.22-25.952-23.154-2.6074-4.1485 10.657 2.4922 20.125 10.075 5.7262 4.5864 11.805 10.67 11.53 11.539-0.46442 1.4632-2.9533 2.1355-5.7021 1.5401zm228.98 0.0967c-0.56093-0.16424-1.3132-0.67149-1.6716-1.1272l-0.65177-0.82858 1.2676-1.5032c6.5682-7.7896 21.397-18.306 29.192-20.702 2.3202-0.71323 2.4719-0.53658 1.1747 1.3675-9.7529 14.316-23.022 24.635-29.311 22.793zm-129.7-9.3224c-2.3685-1.6005-3.5217-6.7531-2.2936-10.248l0.42162-1.2h37.726l0.3676 0.88c1.2769 3.0567 0.42257 8.1612-1.7075 10.202l-0.95758 0.91762-32.479 0.1768zm-5.6016-13.97c-3.025-1.4044-4.2774-4.7701-2.7235-7.3187l0.6341-1.04h49.593l0.54448 1.04c1.2472 2.3823 0.44534 5.2383-1.9338 6.8873l-1.2592 0.87273-21.788 0.0765c-20.647 0.0725-21.855 0.0454-23.068-0.51779zm-108.97-2.8222c-5.7304-2.8556-14.081-14.267-19.342-26.431-1.8075-4.1793-1.773-4.392 0.47001-2.8984 9.4328 6.281 26.544 28.291 23.184 29.822-1.2684 0.57791-2.4311 0.44521-4.3121-0.49212zm258.54 0.26989-0.73305-0.59359 0.90765-1.5664c6.3395-10.941 16.142-22.606 22.674-26.982 3.1628-2.119 3.143-2.1717 1.014 2.7098-7.3916 16.948-19.294 30.132-23.862 26.432zm-148.89-8.691c-2.3854-0.72642-3.9116-4.5106-2.8914-7.1692 0.29379-0.76561 48.785-0.77456 49.42-9e-3 1.2292 1.481 0.15517 5.7639-1.6996 6.7775-1.1476 0.62721-42.861 1.0002-44.829 0.40082zm7.5558-15.693c-0.88158-0.55148-1.3928-1.1305-1.8658-1.9828-0.13217-0.48393-3.183-2.8184-9.305-7.12l-9.1084-6.4-20.531-21.591-3.9554-7.2207c-2.1755-3.9714-3.9554-7.3478-3.9554-7.5031s-0.26264-0.36579-0.58366-0.46767c-1.9705-0.62541-3.157-3.6442-2.177-5.5392 0.48205-0.93217 0.44866-1.2853-0.61763-6.5321l-1.1272-5.5466 0.84036-7.5865c0.773-6.9784 0.79968-7.6446 0.33278-8.3112-1.1291-1.612-0.37463-4.1961 1.5236-5.2183 0.61632-0.33192 1.2927-0.97258 1.5031-1.4237 7.8296-16.788 11.291-24.917 11.223-26.36-0.0809-1.7252 1.716-4.0597 3.1249-4.0597 0.3727 0 0.67764-0.12991 0.67764-0.28868s2.2821-3.1156 5.0713-6.5708l5.0713-6.2821 13.693-28.253-0.1115-13.661c-0.1207-14.788-0.1244-14.753 1.6078-15.481 1.6928-0.71176 2.2857-0.29232 14.902 10.543l12.405 10.654 11.899 24.86 1.6968 12.32c1.9364 14.059 1.6155 13.07 3.9111 12.055 2.0468-0.90521 1.2412 0.91033 7.0746-15.943 3.12-9.0144 3.5589-10.527 3.1977-11.021-0.59034-0.80733-0.4976-2.3373 0.22127-3.6503 0.33725-0.616 0.61921-1.0015 0.62659-0.85678 7e-3 0.14477 0.39283-0.03523 0.85657-0.4 2.135-1.6794 5.8768 0.35328 5.8768 3.1926 0 0.34874 0.88477 2.3958 1.9661 4.5491 1.0814 2.1533 3.6118 7.3711 5.6232 11.595l3.6571 7.68 1.2603 8.48c1.7075 11.489 2.4913 17.508 2.7395 21.038 0.47996 6.828-1.5784 29.131-2.834 30.708-0.16908 0.21229-0.21604 0.53384-0.10435 0.71455 0.36733 0.59436-0.20112 2.5453-0.96385 3.3081-0.632 0.632-0.91073 1.6907-1.7928 6.8099-0.95718 5.5552-1.1209 6.1389-1.9594 6.9876-0.5032 0.50934-2.2876 3.6773-3.9654 7.04-2.7063 5.4241-3.7504 7.0916-9.2532 14.779l-6.2027 8.6648-8.1491 7.8952c-8.928 8.6498-9.1993 8.8266-10.916 7.1098-1.1938-1.1938-1.0514-1.7618 2.7293-10.882 3.0702-7.4063 3.4733-8.5877 3.1868-9.3412-0.47481-1.2488-0.10059-2.4457 1.1583-3.7046 2.471-2.471 7.139-27.595 5.4423-29.291-0.0542-0.0542-1.3234 1.4546-2.8204 3.353s-2.9918 3.6797-3.3218 3.9585c-0.60288 0.50948-8.3063 3.493-9.0188 3.493-0.2096 0-0.3811 0.14886-0.3811 0.33079 0 0.67314-1.9475 2.2054-3.0709 2.4161-3.78 0.70914-6.3784-5.0277-3.1065-6.8588 0.40392-0.22605 1.0481-2.6045 2.5204-9.3059l1.9778-9.0023-0.6004-1.1776c-0.7098-1.3922-0.75011-2.1879-0.16742-3.3045 0.56366-1.0801-1.3757-24.438-2.0836-25.094-2.3531-2.1826-13.798-11.381-13.96-11.22-0.5728 0.5728-2.2612 21.316-1.8061 22.189 1.0075 1.9312-0.20962 4.8607-2.2302 5.3678-0.90061 0.22604-9.5551 13.954-9.2683 14.702 0.27416 0.71446-0.78114 3.2948-1.432 3.5014-0.38971 0.12369-0.80794 1.2019-1.4643 3.775l-0.91877 3.6018 0.36531 6.4779 0.36531 6.4779 6.6653 19.417 5.0575 8.5333c2.9591 4.9928 5.2524 8.5334 5.5273 8.5334 0.83317 0 2.5719 1.4095 3.0977 2.5111 1.5482 3.2436-2.2137 6.5205-5.547 4.8317zm3.5397-0.34026c3.1653-1.6188 2.0437-6.3626-1.5044-6.3626-4.749 0-4.8431 6.5928-0.0956 6.6997 0.49557 0.0112 1.2156-0.14057 1.6-0.33717zm-2.7714-1.8277c-0.72621-0.80246-0.67849-2.1926 0.0894-2.6036 2.0337-1.0884 4.0494 1.3881 2.1898 2.6906-0.93626 0.65578-1.631 0.62925-2.2792-0.0871zm-1.2042-4.4144c0.40056-0.30343-0.3047-1.6786-4.5131-8.8l-4.9879-8.4404-6.7381-19.599-0.38088-7.0005c-0.37179-6.8332-0.3642-7.0578 0.31756-9.4005 0.38415-1.32 0.77084-2.652 0.85932-2.96 0.12144-0.42276-0.0278-0.56-0.60913-0.56-0.69413 0-0.83947 0.26011-1.4751 2.64-0.60093 2.25-0.91825 2.8568-2.1477 4.1074-1.5273 1.5535-1.3991 3.1704 0.14091 1.7768 0.31856-0.28829 0.69231-0.52416 0.83056-0.52416s0.14471 5.904 0.0144 13.12c-0.23489 13.004-0.23129 13.12 0.4057 13.12 0.6117 0 0.65607-0.29694 0.92043-6.16l0.27775-6.16 2.3702 6.88c1.3036 3.784 2.7004 7.778 3.104 8.8756l0.7338 1.9956-1.4758 1.0154c-1.471 1.012-1.4775 1.0132-2.0044 0.36256l-0.52861-0.6528-0.68535 0.71209c-0.53641 0.55732-0.60153 0.79763-0.29963 1.1057 0.30239 0.30858 0.17833 0.56113-0.57428 1.169l-0.96 0.77542-0.10027-0.9593c-0.0716-0.6849-0.27006-0.9593-0.69383-0.9593-0.32645 0-0.81082-0.0834-1.0764-0.18527-0.36259-0.13914-0.4395-0.0196-0.30885 0.48 0.0957 0.3659 0.1036 0.66527 0.0176 0.66527-0.38332 0-17.515-18.306-17.363-18.552 0.094-0.15205-0.17022-0.54473-0.58709-0.87264-0.63072-0.49613-5.9682-9.7026-5.9682-10.294 0-0.103 1.2955 1.1022 2.8789 2.6783 2.8637 2.8504 2.8822 2.8622 3.5055 2.2333 0.87945-0.88733-6.6427-9.1063-7.5988-8.3028-0.30005 0.25213-0.79777 0.64115-1.1061 0.86449-0.51444 0.37269-0.25071 0.97318 3.2082 7.3048l3.7688 6.8987 19.883 20.932 8.745 6.2279c8.6969 6.1936 8.7477 6.224 9.2354 5.5151 0.2697-0.39202 0.70401-0.8746 0.96513-1.0724zm-10.745-6.4687c-6.9296-4.9342-6.6069-4.5604-4.9073-5.6851l1.2732-0.84253 3.7844 3.958c5.1181 5.3528 6.6029 7.0032 6.27 6.9697-0.15442-0.0156-3.0436-1.9956-6.4204-4.4zm2.0201-3.375-4.052-4.2974 1.152-0.71199c1.435-0.88686 1.2346-1.0875 4.5995 4.606 3.3094 5.5996 3.22 5.6209-1.6995 0.40345zm42.319 3.258c10.459-10.28 16.923-18.989 22.778-30.69 2.2708-4.5379 3.6772-7.0047 3.9938-7.0047 0.65039 0 0.65632-0.0208 1.7027-5.9774l0.90948-5.1774-0.80144-0.20115c-1.0792-0.27086-1.1868-0.0266-1.8497 4.2006-0.31273 1.9941-0.67522 3.7981-0.80553 4.0089-0.16072 0.26005-2.7455-1.4188-8.0355-5.2193l-7.7986-5.6027-0.58807 0.77962c-0.34614 0.45888-0.4607 0.86381-0.27847 0.98424 3.2419 2.1425 15.395 11.081 15.292 11.247-0.0777 0.12569-1.511 1.046-3.1852 2.045-2.7567 1.645-3.0082 1.8738-2.6646 2.4239 0.20863 0.33407 0.45851 0.56185 0.55528 0.50616 0.0968-0.0557 1.1505-0.69437 2.3416-1.4193s2.2319-1.3181 2.3128-1.3181c0.22395 0-4.6427 9.7475-4.9159 9.846-0.13109 0.0473-0.47996-0.42072-0.77528-1.04-0.56247-1.1795-0.75287-1.2901-1.455-0.84507-0.34244 0.21706-0.26271 0.59667 0.4 1.9045 0.45522 0.89835 0.82768 1.7073 0.82768 1.7977 0 0.0904-1.692 1.2985-3.76 2.6847-10.833 7.2612-11.285 7.6034-10.844 8.2057 0.37717 0.51582 0.89562 0.235 6.1211-3.3154 6.9826-4.7443 6.888-4.8688 1.7558 2.3124l-4.2282 5.9164-1.8857-0.67847c-1.7889-0.64365-1.9141-0.65001-2.4403-0.12387-0.52614 0.52613-0.52185 0.56321 0.0835 0.72242 0.35096 0.0923 1.1823 0.41201 1.8474 0.71047l1.2093 0.54264-5.7576 5.745c-6.8568 6.8418-6.6342 6.8593-3.6763-0.28966 2.6831-6.4846 2.5836-6.1262 1.7597-6.3417-0.5986-0.15654-7.0644 14.405-7.0644 15.909 0 1.2523 1.5668-0.0208 8.9199-7.2482zm-49.595-9.394c2.6372-2.219 0.76614-6.2106-2.7267-5.8169-1.875 0.21134-2.7015 1.0281-2.9098 2.8757-0.36257 3.2168 3.138 5.0434 5.6364 2.9411zm-3.595-1.3659c-0.69478-0.76773-0.67215-1.7466 0.0556-2.4052 1.2153-1.0998 2.9348-0.23014 2.9348 1.4843 0 1.4241-1.9825 2.0346-2.9904 0.92087zm55.314 0.90207c1.5423-1.4489 1.269-4.3707-0.49409-5.2824-3.2698-1.6909-6.5634 1.1663-5.0849 4.4111 0.85953 1.8865 3.9797 2.3738 5.579 0.8713zm-3.8065-1.4256c-0.66874-1.0206-0.65231-1.5494 0.0684-2.2017 1.3194-1.194 3.6333 0.0119 3.0419 1.5853-0.56652 1.5073-2.3013 1.8511-3.1103 0.61635zm-51.87-4.2521c0.83441-0.46696-2.3374-20.125-3.2219-19.969-0.34389 0.0607-0.65674 0.14022-0.69523 0.17664-0.0385 0.0364 0.57468 4.1592 1.3626 9.1618s1.3892 9.2258 1.3361 9.385c-0.0531 0.15919-2.3148-2.0368-5.0261-4.8799-4.5979-4.8215-9.2644-7.4735-5.5825-3.1726 4.9828 5.8205 10.212 10.776 10.755 10.193 0.31615-0.33934 0.79846-0.74215 1.0718-0.89511zm56.434-4.7066 1.3483-4.3074 2.7853-1.6765c5.5492-3.3401 5.4737-3.2815 5.0251-3.895-0.37088-0.5072-0.69474-0.37941-3.8663 1.5256-4.2264 2.5386-3.8389 3.671-2.8732-8.397 1.0047-12.555 1.0027-12.42 0.1798-12.635-0.352-0.0921-0.64-0.0189-0.64 0.16246 0 0.18141-0.43252 5.7479-0.96116 12.37l-0.96117 12.04-1.3977 4.387c-1.3566 4.258-1.383 4.6312-0.33361 4.7077 0.19051 0.0139 0.95311-1.913 1.6947-4.2821zm-69.051-5.788c2.8452-1.4713 1.6364-6.2247-1.583-6.2247-1.7771 0-2.805 0.53731-3.3912 1.7727-1.5284 3.2208 1.7247 6.1324 4.9742 4.452zm-3.02-1.6899c-0.72621-0.80246-0.67849-2.1926 0.0894-2.6036 1.9992-1.0699 3.8234 0.98637 2.261 2.5487-0.79717 0.79717-1.6604 0.8173-2.3504 0.0548zm86.782-1.8235c2.5831-2.1736 1.0538-5.9143-2.416-5.9098-1.8272 2e-3 -2.9962 1.0813-3.2081 2.9608-0.34517 3.0623 3.2494 4.9471 5.6241 2.949zm-3.4595-1.4917c-0.78328-0.84076-0.80779-1.1755-0.15432-2.1085 1.0529-1.5032 3.7643-0.28681 3.1289 1.4037-0.54697 1.4553-1.9629 1.7907-2.9746 0.70475zm-76.026-2.5491c2.1716-2.0281 2.3971-2.3439 1.9748-2.7662s-0.77155-0.21049-3.0591 1.8551c-2.8916 2.611-3.0806 2.992-1.5748 3.1753 0.11418 0.0139 1.3108-1.005 2.6591-2.2642zm47.558 1.3541c1.2289-1.2289 1.3192-3.3827 0.19655-4.6879-1.7235-2.0037-5.587-1.0677-6.0959 1.4769-0.66377 3.3188 3.5163 5.594 5.8993 3.211zm-3.655-1.2498c-1.0334-1.1419-0.24774-2.9348 1.286-2.9348 0.80394 0 1.7044 0.95922 1.7044 1.8156 0 1.466-1.9994 2.2143-2.9904 1.1192zm7.6723-2.8057c1.209-0.45699 2.9522-1.1146 3.8738-1.4614 2.3116-0.86976 11.106-11.783 10.214-12.675-0.28289-0.28288-0.56407-0.45091-0.62483-0.37339-0.0608 0.0775-1.8872 2.4099-4.0588 5.1831-2.1716 2.7732-4.0333 4.9575-4.1371 4.854-0.10387-0.10349-1.4272-3.3085-2.9407-7.1222l-2.7518-6.934-1.1682-0.0993c-0.64249-0.0546-1.1682-0.035-1.1682 0.0437 0 0.0786-0.79036 3.7158-1.7564 8.0827-1.7398 7.8647-1.8062 8.7092-0.65613 8.3453 0.16913-0.0535 1.0425-3.4645 1.9409-7.5799 0.89837-4.1154 1.7182-7.3453 1.8219-7.1775 4.7646 7.7106 5.4805 13.933 1.7588 15.286-2.894 1.0517-3.336 1.3062-3.1964 1.84 0.20506 0.78415 0.21811 0.78318 2.8492-0.21141zm21.616-6.5216c-2.7545-6.0326-3.1511-6.7275-3.8392-6.7275-0.48906 0-0.70726 0.14508-0.60156 0.4 0.39216 0.94579 4.9765 11.463 5.2716 12.015 2.3769 4.4413 1.9051 0.30489-0.83081-5.6871zm-66.274 5.7771c2.1813-2.1813 0.65306-5.7846-2.4534-5.7846-2.7791 0-4.3755 2.7308-3.0473 5.2126 0.94811 1.7716 3.9853 2.0874 5.5007 0.57201zm-3.6818-1.1675c-1.0697-1.0697-0.20206-3.0171 1.3442-3.0171 0.7284 0 1.673 1.0962 1.673 1.9416 0 1.308-2.0529 2.0398-3.0171 1.0755zm-19.943-2.3711c1.7528-1.9443 0.90521-5.026-1.552-5.6427-1.4776-0.37086-3.3377 0.4901-4.0517 1.8754-1.8336 3.5578 2.9147 6.75 5.6036 3.7673zm-3.1904-0.66978c-1.3869-0.52432-1.356-2.5846 0.0483-3.2244 1.6894-0.76971 3.2544 1.4742 1.8621 2.6699-0.88849 0.76302-1.1546 0.84027-1.9104 0.55455zm14.087-4.7328c5.2004-2.1038 7.977-3.0784 8.0544-2.8271 0.065 0.21098 0.29248 1.5798 0.50561 3.0417 0.30531 2.0942 0.486 2.6204 0.85175 2.48 0.25532-0.098 0.57097-0.17814 0.70143-0.17814 0.13047 0 0.0543-1.116-0.16921-2.48-0.65852-4.0183-0.80566-3.7068 2.347-4.9684 2.8664-1.147 3.1534-1.3699 2.6955-2.0929-0.2107-0.33265-0.84884-0.18652-3.035 0.695-2.7476 1.1079-2.7693 1.1111-2.9169 0.42122-0.0818-0.38225-0.4433-2.615-0.80336-4.9618l-0.65467-4.2668 1.8026-2.0532c2.2606-2.5749 1.8708-2.7666 4.2845 2.1068 1.1332 2.288 2.1368 4.1578 2.2302 4.1551 1.2268-0.0354 1.0917-0.68856-1.0175-4.9211l-2.1473-4.3091 7.0873-2.3624c3.898-1.2993 7.13-2.4974 7.1821-2.6624 0.37961-1.2013-0.58372-1.0355-7.5918 1.3066-6.7044 2.2406-7.2105 2.3631-7.596 1.838-0.22716-0.30938-1.2041-2.1091-2.171-3.9994-1.619-3.165-1.807-3.4063-2.3771-3.0503-0.58964 0.36823-0.51922 0.57536 1.4808 4.3556l2.0999 3.969-1.7017 1.7231c-2.0298 2.0554-1.8335 2.3495-2.8396-4.2538l-0.73916-4.8512-1.1496-0.13701c-0.63225-0.0754-1.3779-0.23866-1.657-0.36288-0.41388-0.18422-1.7474 2.4173-7.231 14.107l-6.7235 14.333 1.6599 2.0803 7.9006-7.8958c7.0949-7.0906 7.9174-7.8166 8.0654-7.1187 0.37646 1.7754 1.1561 6.9951 1.1561 7.7402 0 0.83952-0.92822 1.2694-14 6.4835-2.5687 1.0246-2.96 1.281-2.96 1.9392 0 0.65769 0.0957 0.72062 0.72 0.47351 0.396-0.15674 4.2914-1.7298 8.6563-3.4957zm-8.3394-1.6435c0.59364-1.7479 12.267-26.176 12.42-25.991 0.10503 0.12696 0.58386 2.7958 1.0641 5.9307l0.87312 5.6998-3.1949 3.4202c-4.3494 4.6561-11.363 11.53-11.163 10.94zm-5.0293 0.24c-0.0905-0.396-0.57932-2.736-1.0862-5.2l-0.92158-4.48 0.74646-6.24c0.92221-7.7093 0.91558-7.36 0.13981-7.36-0.784 0-0.77535-0.0401-1.6226 7.5141l-0.68128 6.0741 1.0325 5.2059c0.9882 4.9824 1.0652 5.2059 1.795 5.2059 0.62616 0 0.73306-0.12873 0.59788-0.72zm111.92-2.5073c1.9812-0.90271 2.3956-4.2022 0.70989-5.6522-1.7009-1.463-4.942-0.64008-5.6246 1.4281-0.98825 2.9944 1.9919 5.5558 4.9147 4.2241zm-2.9488-2.0959c-0.82113-1.0439-0.82333-1.2367-0.0232-2.0368 0.84918-0.84918 2.0799-0.81675 2.7019 0.0712 1.3716 1.9582-1.2001 3.8453-2.6786 1.9656zm-19.716 1.6277c2.5745-1.2217 2.3528-4.9737-0.36082-6.1076-2.4974-1.0435-5.1126 0.87157-4.7904 3.5078 0.31446 2.5731 2.6856 3.7698 5.1512 2.5997zm-3.0041-1.9477c-1.0107-1.2848-0.37348-2.6768 1.2253-2.6768 1.767 0 2.4704 1.6409 1.2108 2.8242-0.97659 0.91746-1.6296 0.87795-2.4362-0.14738zm-52.507 1.325c2.0483-1.0592 2.5742-3.4994 1.1253-5.2213-1.8558-2.2055-5.6744-1.2226-6.1206 1.5754-0.46127 2.8922 2.406 4.9849 4.9953 3.646zm-2.3125-1.4653c-1.4845-0.86487-1.2423-2.8166 0.41477-3.3425 1.6887-0.53598 2.801 1.9035 1.3782 3.0227-0.95646 0.75235-1.0284 0.76519-1.7929 0.31979zm74.956 0.36886c0-1.1363-14.411-1.9314-14.838-0.81862-0.29698 0.77393-0.69647 0.70356 5.8783 1.0354 9.4353 0.47616 8.96 0.48766 8.96-0.21674zm0.97798-8.3454c0.16611 0 0.30202 0.20891 0.30202 0.46425 0 2.1814 0.68454 3.6233 1.5627 3.2919l0.88471-0.33394-0.74438-4.3397 3.0969-1.287-3.7e-4 0.70227c-2.1e-4 0.38625-0.19536 1.7246-0.43367 2.9742-0.41402 2.1709 0.33311 4.3325 0.90395 2.6153 0.58338-1.755 1.4906-8.9186 1.8348-14.487 0.81512-13.19 0.63368-16.012-2.2627-35.2l-1.2559-8.32-3.9843-8.32c-2.1914-4.576-4.5107-9.3614-5.1542-10.634l-1.1699-2.3143-1.2835 0.66901c-0.92117 0.48014-1.5875 0.61198-2.3604 0.46699l-1.0769-0.20202-1.9795 5.6873c-1.0887 3.128-3.0747 8.8378-4.4132 12.688l-2.4337 7.0011-3.3522 1.5653c-4.0963 1.9128-3.3174 3.6471-5.5597-12.38l-1.9093-13.648-11.629-24.179-11.697-10.04c-6.4331-5.5221-11.923-10.223-12.199-10.446-1.542-1.2435-1.5688-0.99926-1.5336 13.964l0.0329 13.961-13.851 28.535-9.8895 12.367 0.9684 0.94678c0.53262 0.52073 0.96839 1.1457 0.96839 1.3888 0 0.70914 0.28126 0.60852 8.2096-2.9368l7.556-3.3788 0.83716 0.75694c0.46045 0.41632 2.7351 2.5227 5.0548 4.6809l4.2176 3.924 0.83655-0.54813 0.83656-0.54813-2.9741-2.7483c-1.6358-1.5116-3.8285-3.5615-4.8727-4.5554l-1.8985-1.8071 1.0528-0.54442c1.0489-0.54242 1.0655-0.53892 4.5203 0.95437 3.8895 1.6812 3.5142 1.1403 4.1584 5.9931l0.37169 2.8h0.96328c0.94963 0 0.9606-0.01927 0.77399-1.36-0.5104-3.6672-0.58281-4.72-0.3246-4.7199 0.15467 3e-5 2.3892 0.92048 4.9656 2.0454l4.6844 2.0454 0.35562-0.78049c0.19559-0.42927 0.35561-0.82762 0.35561-0.88522 0-0.0576-2.4496-1.1665-5.4436-2.4642-2.994-1.2977-5.5068-2.5758-5.584-2.8402s-0.23467-1.4888-0.3499-2.7209l-0.20953-2.2401 5.2335-2.3257c6.606-2.9356 6.2679-2.7182 5.7452-3.6949l-0.41874-0.78243-5.2903 2.3818c-2.9097 1.31-5.3966 2.2647-5.5265 2.1216-0.34936-0.38489-1.3053-8.5219-1.031-8.7761 0.40511-0.37544 7.8145-4.4441 8.0932-4.4441 0.14575 0 1.2335 1.1394 2.4172 2.5321 2.0983 2.4687 2.1709 2.5199 2.8984 2.0432 0.9705-0.6359 1.0593-0.42691-1.3589-3.1996-1.1578-1.3275-1.9858-2.5151-1.84-2.6391 1.0099-0.85899 14.609-8.0352 14.808-7.8141 0.13738 0.15261 1.272 2.4099 2.5215 5.0162l2.2717 4.7388-2.148 0.96273c-1.1814 0.5295-3.6225 1.6242-5.4246 2.4326-2.2084 0.99064-3.1846 1.5835-2.9944 1.8185 0.15519 0.19178 0.33366 0.57789 0.3966 0.85803 0.0937 0.41688 0.88883 0.16504 4.3804-1.3874 5.225-2.3231 5.0679-2.6095 1.8109 3.3026-3.2243 5.8527-2.8392 5.6161-4.9726 3.0552l-1.7162-2.06-1.4116 1.3586 1.6344 1.9308c0.8989 1.062 1.8246 2.1608 2.0571 2.4419 0.36237 0.43815 0.10215 1.0852-1.8226 4.5323-2.5506 4.5678-2.5104 4.4314-1.4498 4.9232 0.76918 0.3567 0.83778 0.27884 2.5374-2.88 0.96074-1.7856 1.9443-3.5128 2.1857-3.8382 0.69501-0.93668 11.269 11.606 11.59 13.748 0.16727 1.1154 0.33033 1.4106 0.70077 1.2684 0.26553-0.10189 0.6887-0.18526 0.94039-0.18526 0.35079 0 0.41213-0.28437 0.26279-1.2183l-0.19482-1.2183 2.351-1.0734c1.2931-0.59036 3.1881-1.4741 4.2111-1.9639s2.0544-0.81597 2.292-0.72481c0.53659 0.20591 0.79177-0.81422 0.37822-1.512-0.28803-0.48596 5.7574-18.748 6.0946-18.411 0.0709 0.07094-0.31064 3.5102-0.84796 7.6429-1.1826 9.0954-1.1819 9.0706-0.2684 9.3095 1.0088 0.2638 0.96537 0.44525 2.1469-8.9764 0.59138-4.7158 1.1668-8.6789 1.2786-8.8069s0.60575 3.832 1.0975 8.8c0.49177 4.968 0.96476 9.2823 1.0511 9.5872 0.11596 0.40964-0.22444 0.73983-1.3028 1.2638-1.1046 0.53665-1.4598 0.8884-1.4598 1.4455 0 0.89454 0.0315 0.89645 1.5984 0.09705l1.2529-0.63918 0.16213 1.0392c0.22861 1.4653 0.39471 3.4392 0.2894 3.4392-0.0488 0-0.87062-0.38351-1.8264-0.85225-1.6127-0.79096-1.7756-0.81439-2.2641-0.32581s-0.3547 0.61141 1.8618 1.7082c2.7508 1.3612 2.53 0.84879 3.1163 7.2299l0.40424 4.4h0.90268c1.072 0 1.0801-0.0779 0.54373-5.2135-0.44808-4.2899-0.74621-4.145 3.8199-1.8561 4.821 2.4167 4.7206 2.0748 1.4848 5.0542-2.0386 1.8771-2.6838 2.6603-2.5274 3.068 0.31325 0.81631 0.4538 0.7389 3.1214-1.7192 1.5894-1.4646 2.5115-2.1156 2.6058-1.84 0.214 0.6253 1.4364 9.3512 1.3255 9.4621-0.0518 0.0519-1.376-0.47641-2.9425-1.1739l-2.8483-1.2682-0.44457 0.84849c-0.24451 0.46666-0.31659 0.89397-0.16018 0.94956 2.8199 1.0023 6.3573 2.9493 6.3143 3.4754-0.0275 0.33723-0.15171 4.1772-0.27598 8.5332-0.15898 5.5731-0.3338 7.9199-0.58995 7.9197-1.2189-8.4e-4 -4.3106-1.9125-4.4817-2.7712-0.25251-1.2669-2.7623-15.667-2.7623-15.849 0-0.0817-0.432-0.0851-0.96-8e-3 -0.528 0.0775-0.96 0.19857-0.96 0.26906 0 0.0705 0.59041 3.4477 1.312 7.505 1.5814 8.8917 2.3906 8.3252-6.0643 4.2453-8.412-4.0592-8.1132-2.967-2.27-8.2978 4.346-3.9649 4.7692-4.4436 4.323-4.8899s-0.59681-0.40025-1.5376 0.47012c-3.9654 3.6683-7.3167 6.5993-7.4236 6.4924-0.11263-0.11264 1.4261-12.807 1.5768-13.008 0.0338-0.0452 1.5004 0.54715 3.2591 1.3163l3.1975 1.3984 0.67308-1.7832-3.468-1.499c-3.2938-1.4237-3.4607-1.5415-3.3221-2.3447 0.21303-1.2343 1.1043-8.4274 1.1043-8.9124 0-0.24098-0.37998-0.41329-0.9114-0.41329h-0.9114l-0.5286 3.9638c-0.29073 2.1801-0.5286 4.2681-0.5286 4.64 0 0.87253 0.18537 0.91188-3.7245-0.7906-1.8527-0.80673-3.4091-1.4187-3.4587-1.36-1.214 1.4387-1.1317 1.5099 4.4632 3.863 0.88 0.37012 1.7529 0.78754 1.9398 0.92759 0.29332 0.2198-1.1531 13.777-1.6243 15.224-0.19344 0.59418-4.6378-1.4662-4.939-2.2896-0.13248-0.36219-0.71901-3.872-1.3034-7.7995l-1.0625-7.141-0.82465 0.20698c-0.45356 0.11383-0.87275 0.25507-0.93154 0.31386-0.0588 0.0588 0.34572 3.0863 0.89891 6.7278 0.55318 3.6415 0.93989 6.6868 0.85934 6.7673-0.21851 0.21851-5.3327-2.415-5.3327-2.746 0-0.15669 0.64505-2.702 1.4334-5.6563 0.78838-2.9543 1.4004-5.4028 1.36-5.4411-0.9376-0.88964-1.3119-0.19296-2.7237 5.0695-1.6783 6.2561-1.144 5.9506-6.0747 3.4736l-3.7551-1.8864-4.4352-15.73-0.82239 0.19665c-0.45231 0.10816-0.87178 0.23779-0.93215 0.28807-0.0604 0.05028 0.68598 2.8717 1.6586 6.2698 0.97258 3.3981 1.723 6.2236 1.6677 6.279-0.0553 0.0553-3.1551-2.4369-6.8883-5.5384-3.7332-3.1015-6.8268-5.5924-6.8746-5.5354-0.45207 0.53881-0.81801 1.6605-0.60326 1.8492 0.32541 0.28584 15.607 12.897 15.684 12.943 0.0296 0.0178 0.51344 5.2881 1.0751 11.712 1.1092 12.685 1.0116 12.068 1.8412 11.65 0.5517-0.27787 0.53608-0.75855-0.36561-11.255-0.51806-6.0306-0.8701-11.036-0.78232-11.124 0.20736-0.20736 7.6177 3.2719 7.6177 3.5766 0 0.12752-1.1094 4.3903-2.4653 9.4728-2.4804 9.2976-2.5498 9.8027-1.3504 9.8346 0.10133 3e-3 1.2897-4.1234 2.6408-9.1692 2.9113-10.873 2.167-9.8154 5.6936-8.0876 3.4757 1.7029 3.1623 1.2512 3.8128 5.4958l0.53005 3.4589-4.9907 4.5254c-6.4806 5.8764-6.0522 5.4138-5.8228 6.2888 0.17982 0.6856 0.63548 0.34931 5.5284-4.08 6.1608-5.5771 5.5621-5.2368 5.8194-3.3072 0.11146 0.836 0.50407 3.464 0.87248 5.84l0.66982 4.32h3.0549l1.0633-8.4c0.5848-4.62 1.1444-8.393 1.2436-8.3844 0.0992 9e-3 3.5643 1.7006 7.7003 3.76l7.52 3.7444 0.36811 2.08c0.45189 2.5535 1.3733 1.9013-7.8881 5.5831-9.0671 3.6045-8.0184 3.0775-7.7983 3.9191 0.16741 0.64019 0.57104 0.51444 8.0053-2.494 4.3059-1.7425 7.9649-3.1682 8.131-3.1682zm-20.156-0.89097c-0.0119-0.22603-0.32603-2.3839-0.69805-4.7953l-0.6764-4.3843 1.5191-1.3753c1.9533-1.7684 1.8962-1.9895 1.1086 4.2886-0.58275 4.6456-1.181 7.637-1.2533 6.2664zm21.653-2.709c-0.20805-1.3661-0.1432-1.4004 1.3625-0.72148 1.5006 0.6767 1.5716 0.88737 0.46821 1.3901-1.2858 0.58583-1.6605 0.44896-1.8307-0.66863zm-23.389-9.1081c-0.50431-2.6318-0.56473-3.6119-0.22266-3.6119 0.70413 0 3.61 1.6549 3.3364 1.9-0.15339 0.13741-0.87828 0.77948-1.6109 1.4268l-1.332 1.177zm21.718-27.146c-4.3132-2.2529-4.0628-1.8894-4.4499-6.4586l-0.21075-2.4877 3.4082-1.8539c1.8745-1.0197 3.4602-1.8019 3.5237-1.7384 0.35081 0.35081 2.2269 14.627 1.917 14.588-0.19325-0.02466-2.078-0.94667-4.1882-2.0489zm-33.375-12.779c-2.3142-2.7192-4.3776-5.2163-4.5854-5.5491-0.39487-0.63227 5.3788-11.849 5.8283-11.323 0.20884 0.24445 3.2109 21.57 3.058 21.723-0.0514 0.05135-1.9868-2.1314-4.3009-4.8506zm-55.86 3.9125c0.58723-0.95823 8.5464-10.64 8.7469-10.64 0.3496 0 5.2301 4.6423 5.0596 4.8128-0.74237 0.74237-14.161 6.406-13.807 5.8272zm84.273-2.3644c0-0.28839-0.43916-4.7053-0.97591-9.8154-0.53675-5.1101-0.93275-9.6456-0.88-10.079 0.0675-0.55419 1.3646 1.847 4.3723 8.094 3.3691 6.9976 4.1838 8.942 3.84 9.165-3.4216 2.2196-6.3564 3.4363-6.3564 2.6353zm-60.137-4.1411c-1.8716-0.84974-1.8554-0.98904 0.22024-1.8857 1.6142-0.69734 1.5564-0.73465 1.8431 1.1912 0.25979 1.7452 0.2546 1.7469-2.0634 0.69454zm-9.3173-1.2692c-1.2453-1.2848-1.0171-1.3647 0.95379-0.33396 1.3169 0.68875 1.3725 0.7676 0.76852 1.0908-0.55295 0.29593-0.8124 0.18192-1.7223-0.75688zm0.25425-2.6592c-4.9654-2.1915-5.287-1.4531 2.5104-5.7647 7.4551-4.1224 6.9714-4.13 7.4644 0.11866 0.2042 1.76 0.44913 3.5972 0.54429 4.0827 0.56872 2.9015-5.4578 3.7971-10.519 1.5634zm-2.8-7.0115c0-0.17596 2.0295-4.4767 4.5099-9.5572s4.6445-9.5813 4.809-10.002c0.16447-0.42041 0.37729-0.68614 0.47292-0.5905 0.25624 0.25624 1.4504 9.5076 1.2658 9.8063-0.41003 0.66344-11.058 10.623-11.058 10.343zm3.2377 0.0211c0.15986-1.0839 8.0799-7.8522 8.3461-7.1324 0.65173 1.7618 0.23602 2.5604-1.9838 3.8113-5.3001 2.9865-6.3974 3.5593-6.3623 3.3211zm10.503-6.2557c-0.0105-0.22-0.13041-1.0758-0.26649-1.9017l-0.24741-1.5017 2.1145-2.0983c2.5469-2.5274 2.1246-2.5158 4.1557-0.11418 1.9575 2.3147 2.1519 1.9581-2.4168 4.4338-3.1846 1.7257-3.3114 1.7706-3.3395 1.1821zm7.2002-6.8352-1.8571-2.1152 2.771-2.7217c1.5241-1.4969 2.9542-2.6559 3.178-2.5756 0.22382 0.08036 2.8909 0.56242 5.9269 1.0712 6.6885 1.121 6.8021 0.5642-0.99291 4.8639-7.6932 4.2436-6.735 4.0868-9.026 1.4773zm-8.56-3.2221c-0.65037-4.9493-0.7634-4.8466 1.8657-1.6945l2.1654 2.5962-1.5541 1.5778c-2.0146 2.0454-1.8624 2.1977-2.477-2.4795zm3.0637-3.2388c-1.2679-1.5125-2.2527-2.8027-2.1884-2.867 0.11838-0.11837 7.6447 1.118 8.4715 1.3916 0.52537 0.17388-0.23794 1.0812-2.5328 3.0106l-1.4449 1.2148zm16.166-1.6387c-2.5898-0.47083-4.792-0.93928-4.8938-1.041-0.18716-0.18716 6.5198-6.6641 6.9008-6.6641 0.18581 0 4.1418 8.1007 4.1418 8.4812 0 0.27095-1.2734 0.11022-6.1488-0.77613zm-13.691-2.4151c-6.4144-1.1795-6.1348-0.8466-3.6602-4.3581 1.9519-2.7698 1.9549-2.7784 1.1802-3.3665-0.83142-0.63114-0.85439-0.61495-2.32 1.6345-1.9477 2.9894-1.92 3.112-1.92-8.5067 0-6.2209 0.12003-10.543 0.29107-10.48 0.41714 0.15287 18.545 15.768 18.437 15.881-0.0809 0.08484-6.6123-1.3372-7.8903-1.7179-0.38353-0.11425-0.55953 0.09826-0.66252 0.79998l-0.14024 0.95556 4.1825 0.97434c2.3004 0.53589 4.6505 1.0642 5.2225 1.174s1.04 0.31372 1.04 0.45308c0 0.29917-7.7359 7.6852-7.9878 7.6265-0.0947-0.02206-2.6922-0.5035-5.7722-1.0699zm2.1416-8.5661c1.768-1.7681 1.0101-4.9937-1.3249-5.6385-3.6911-1.0192-6.1894 2.9658-3.528 5.6272 1.384 1.384 3.4753 1.3888 4.8529 0.01125zm-3.7291-1.2642c-1.1692-1.255-0.41751-2.8197 1.3546-2.8197 1.59 0 2.2949 1.7847 1.1326 2.8675-0.90297 0.84125-1.6726 0.82643-2.4872-0.04787zm24.649 103.84c2.8832-1.7032 1.4547-6.1764-1.9724-6.1764-1.3352 0-2.8181 0.83686-3.1828 1.7962-1.3119 3.4507 1.9857 6.2526 5.1552 4.3802zm-3.3903-1.7061c-1.3185-1.4569 0.94215-3.7176 2.3991-2.3991 0.83782 0.75821 0.85499 2.2764 0.0307 2.7175-0.94727 0.50696-1.7818 0.39759-2.4298-0.31843zm-28.835-5.4229c3.5845-5.7204 3.9619-6.6722 2.5307-6.3815-0.83113 0.16878-7.7261 11.993-7.2163 12.375 0.67719 0.50771 0.34715 0.92989 4.6856-5.9938zm6.705-6.4448c2.4774-1.2669 2.4674-5.0382-0.0165-6.2169-2.8258-1.341-5.6843 1.1301-4.8408 4.1849 0.52865 1.9146 3.0359 2.9635 4.8573 2.032zm-2.5898-1.7407c-1.643-1.1508-0.055-3.9003 1.6987-2.9412 1.6786 0.91805 1.2022 3.4393-0.64989 3.4393-0.18567 0-0.65763-0.22417-1.0488-0.49815zm-42.503 0.052c3.5177-1.4698 2.4771-6.4338-1.3486-6.4338-1.8804 0-2.7723 0.64641-3.2939 2.3875-0.86429 2.8847 1.821 5.2252 4.6425 4.0463zm-2.0514-1.5732c-1.1646-0.57749-1.2726-2.2391-0.19148-2.9474 0.98753-0.64705 1.8721-0.40392 2.4485 0.67297 0.75647 1.4135-0.80992 2.992-2.257 2.2745zm10.403-2.7372 5.12-1.2334 0.1035-1.0482c0.0756-0.76559-0.0107-1.005-0.32-0.88786-0.23292 0.0882-2.7275 0.70252-5.5435 1.3651-5.9385 1.3973-5.3653 1.1497-5.1009 2.2032 0.2575 1.026-0.3484 1.068 5.7409-0.39885zm10.716 0.75843c4.0372-2.0877 1.2039-7.8742-2.9962-6.1193-2.5596 1.0695-2.6832 4.7966-0.20022 6.0369 1.3703 0.68454 2.0005 0.70077 3.1965 0.0823zm-2.4853-1.62c-1.3344-0.93469-0.53669-3.3418 1.1075-3.3418 1.4807 0 2.0794 2.2161 0.85811 3.1768-1.0103 0.79467-1.0607 0.79891-1.9656 0.16508zm24.324 0.81695 0.68824-0.64119-0.95828-1.0388c-1.6005-1.735-7.6178-8.3891-7.7236-8.541-0.0545-0.0782-0.40397 0.16267-0.77661 0.53531l-0.67753 0.67752 1.4064 1.595c7.5293 8.5386 7.1796 8.2162 8.0414 7.4133zm5.8075-19.919 0.18768-1.84h-0.93549c-1.1176 0-0.96962-0.77813-2.099 11.04-0.99261 10.387-0.99856 9.6942 0.0843 9.8188l0.88 0.10126 0.84742-8.64c0.46608-4.752 0.93187-9.468 1.0351-10.48zm-39.552 6.1007c3.0353-6.7206 5.4087-12.32 5.2741-12.444-1.2646-1.1614-1.2881-1.1226-7.0027 11.541-5.8161 12.889-5.8243 12.916-3.9561 13.105 0.0912 9e-3 2.6493-5.4819 5.6847-12.203zm17.058 6.8187 3.1548-2.5206-1.249-1.4402-3.1272 2.4936c-1.7199 1.3715-3.1863 2.5409-3.2585 2.5987-0.14308 0.11449 0.93771 1.3891 1.1779 1.3891 0.081 0 1.567-1.1343 3.3021-2.5206zm-5.8078 0.36061c-0.0106-0.308-0.76657-4.88-1.68-10.16l-1.6608-9.6-0.88 0.10126c-1.1042 0.12705-1.1611-0.69238 0.71883 10.349 0.87936 5.1646 1.5994 9.4982 1.6 9.6302 6.5e-4 0.132 0.43317 0.24 0.96117 0.24 0.70828 0 0.95496-0.14684 0.94078-0.56zm86.966-2.5177c1.0152-0.6316 1.578-2.6954 1.0697-3.9226-1.5297-3.693-6.7364-2.6541-6.7364 1.3441 0 2.6812 3.1777 4.1271 5.6668 2.5784zm-3.561-1.6939c-0.75433-0.83353-0.47087-2.0077 0.62647-2.5949 0.91322-0.48874 1.5485-0.2571 2.2684 0.82716 1.0674 1.6076-1.5779 3.223-2.8949 1.7678zm-70.259 1.0883c1.1921-0.61647 1.5936-1.3824 1.5936-3.0403 0-3.8067-5.5049-4.4782-6.7126-0.81886-0.97471 2.9534 2.2172 5.3597 5.119 3.8591zm-2.9968-1.7019c-1.0334-1.1419-0.24774-2.9348 1.286-2.9348 1.5407 0 2.2456 2.1447 0.9932 3.0219-0.93626 0.65578-1.631 0.62925-2.2792-0.0871zm9.7257-6.7977c5.4993-4.4486 5.276-4.2029 4.4767-4.9262-0.72856-0.65933-0.2081-0.97869-6.179 3.7915l-4.359 3.4824 0.54297 0.74757c0.29863 0.41116 0.58799 0.75209 0.64301 0.75762 0.055 5e-3 2.2489-1.7282 4.8753-3.8528zm-10.895 2.2393c0-0.21929-4.8599-5.6755-9.0528-10.164l-1.5949-1.7072-1.2989 1.2989 1.2347 1.3778c9.605 10.718 10.712 11.668 10.712 9.1942zm55.005-3.3557c1.7688-1.4884 1.4986-4.6371-0.47504-5.5364-3.2768-1.493-6.3534 1.3427-4.9052 4.5212 0.85581 1.8783 3.7136 2.4175 5.3802 1.0151zm-3.6264-1.4919c-0.65578-0.93626-0.62925-1.631 0.0871-2.2792 1.6442-1.4879 3.9414 0.43128 2.5831 2.1581-0.8079 1.0271-1.9978 1.0811-2.6701 0.12114zm-31.542-1.687c4.0372-2.0877 1.2039-7.8742-2.9962-6.1193-2.5596 1.0694-2.6832 4.7966-0.20022 6.0369 1.3703 0.68454 2.0005 0.70077 3.1965 0.08232zm-2.4853-1.62c-1.3345-0.93469-0.5367-3.3419 1.1075-3.3419 1.4807 0 2.0794 2.2161 0.85811 3.1768-1.0103 0.79467-1.0607 0.79891-1.9656 0.16508zm31.831 0.62974c0.36408-0.78453 0.31875-0.85128-0.96-1.4137-0.73816-0.32464-3.6436-1.5976-6.4564-2.8288l-5.1143-2.2386-0.35972 0.85472c-0.29715 0.70605-0.27031 0.89762 0.15431 1.1014 1.208 0.57967 12.048 5.3221 12.194 5.3346 0.088 0.0075 0.33196-0.35681 0.54212-0.80968zm11.181-2.1024c2.0002-1.084 3.6368-2.0823 3.6368-2.2184 0-0.87807-1.5163-0.52787-4.4003 1.0163-3.9321 2.1053-4.027 2.1781-3.5644 2.7355 0.49118 0.59183 0.2468 0.67841 4.328-1.5333zm-45.869-0.82915c0.093-0.484 0.14576-0.90204 0.11731-0.92898-0.1076-0.10186-23.132-2.991-23.836-2.991-0.6152 0-0.72105 0.14539-0.63663 0.87444l0.10125 0.87444 11.52 1.4916c6.336 0.8204 11.755 1.5069 12.043 1.5256 0.32871 0.02134 0.58543-0.29265 0.69174-0.84607zm-27.098-0.39563c0.60237-0.0074 1.963-1.5729 2.131-2.452 0.55578-2.9074-2.3176-5.138-5.0279-3.9031-3.3622 1.5319-1.7146 7.1479 1.9004 6.478 0.352-0.06523 0.80037-0.12056 0.99637-0.12297zm-2.7652-2.2609c-0.91787-1.715 0.79227-3.4721 2.372-2.4371 1.0374 0.67973 1.1618 2.2572 0.21791 2.7623-1.0148 0.5431-2.2052 0.39362-2.5899-0.32525zm50.649 0.66257c1.1809-1.3099 1.2052-3.0905 0.0607-4.4506-1.6045-1.9068-4.7262-1.4979-5.803 0.7601-1.6814 3.526 3.1129 6.6072 5.7423 3.6905zm-3.5288-0.82421c-1.5142-1.0606-0.36571-3.61 1.4163-3.144 1.5716 0.41098 1.7393 2.5956 0.25127 3.2736-0.9898 0.45098-0.81987 0.46418-1.6676-0.12958zm36.326 0.63676c2.3149-1.5168 1.3745-5.5672-1.4141-6.0903-3.2708-0.6136-5.5569 3.0855-3.4526 5.5863 1.1779 1.3998 3.1825 1.6074 4.8666 0.50399zm-3.3082-1.5238c-1.0609-0.91258-0.89693-2.1482 0.36123-2.7215 2.1726-0.98988 3.5519 2.0107 1.4431 3.1393-0.81514 0.43625-0.81001 0.43744-1.8043-0.41783zm-30.292-18.316c2.383-1.5614 1.3342-5.6318-1.5726-6.1036-2.4691-0.40067-4.3962 1.4866-4.0015 3.9188 0.42413 2.6136 3.2369 3.7161 5.574 2.1848zm-2.7202-1.1271c-1.3076-0.49373-1.6107-1.7837-0.64585-2.7485 1.0111-1.0111 2.1936-0.84475 2.7551 0.38761 0.65655 1.441-0.65564 2.9098-2.1092 2.3609zm40.39-10.292c3.3366-2.9173-0.93729-8.0799-4.4207-5.3399-2.5302 1.9903-1.0576 6.0599 2.1929 6.0599 0.999 0 1.642-0.20781 2.2278-0.72zm-3.4582-1.4652c-1.0334-1.1419-0.24774-2.9348 1.286-2.9348 0.80393 0 1.7044 0.95921 1.7044 1.8156 0 1.466-1.9994 2.2143-2.9904 1.1192zm-175.44 144.95c-5.2732-3.8821-11.111-16.413-14.325-30.745-0.94359-4.2086-0.87661-4.493 0.64459-2.7358 6.5639 7.582 11.752 17.202 16.431 30.467 1.445 4.0966 0.34971 5.2967-2.7508 3.0141zm278.65 0.63965c-1.0587-0.67117 5.4862-16.503 9.9763-24.132 2.0248-3.4405 6.0139-8.8803 7.5594-10.309l1.0388-0.96-0.22783 1.44c-2.7067 17.108-13.479 37.047-18.347 33.961zm-282.75-32.381c-4.2042-3.6914-7.9375-17.683-8.6608-32.46l-0.20362-4.16 0.66103 0.8c3.9029 4.7234 10.104 25.06 10.642 34.904 0.12031 2.1986-0.64895 2.4875-2.4389 0.91587zm287.78 0.74001c-0.81327-5.7563 5.8382-28.974 10.244-35.76l1.039-1.6-0.16918 4.8113c-0.50315 14.309-4.979 30.146-9.1259 32.291-1.0296 0.53243-1.9329 0.64954-1.9883 0.25776zm-281.57-2.56c5e-3 -11.078 4.8288-22.637 11.311-27.101 0.9948-0.68515 1.8796-1.1749 1.9661-1.0884 0.29924 0.29925-7.4261 23.233-8.7417 25.951-2.314 4.7808-4.5365 5.8774-4.535 2.2377zm275.68 1.1567c-1.9409-1.7041-12.125-28.881-10.995-29.34 3.2034-1.3012 11.128 12.001 12.547 21.063 1.343 8.5733 0.98156 10.501-1.5519 8.2767zm-274.62-30.227c-2.1592-5.6268 9.135-21.984 16.355-23.688l0.93948-0.22164-0.81818 1.4096c-0.45 0.77529-2.5185 4.4336-4.5966 8.1296-7.1233 12.669-10.818 17.138-11.88 14.37zm273.66-0.0907c-2.1262-1.325-4.1821-4.3435-9.8628-14.48-2.0345-3.6305-3.9952-7.0865-4.357-7.68-0.86418-1.4175-0.83261-1.6128 0.21976-1.3594 6.7088 1.6153 12.97 9.719 15.639 20.243 1.0171 4.0094 0.66527 4.7126-1.6392 3.2765zm-266.86-29.262c-0.54688-0.39989-0.51683-0.55364 0.56657-2.8985 3.8987-8.4381 10.881-14.279 17.069-14.279 1.8442 0 2.0148-0.28097-3.6314 5.9804-9.0963 10.087-12.166 12.542-14.004 11.197zm259.82-0.0247c-1.9173-0.84277-4.373-3.1675-10.578-10.014l-6.3256-6.9793 1.0918-0.10956c5.8756-0.5896 13.539 5.5559 17.58 14.099 1.1404 2.4106 1.1821 2.9947 0.23187 3.2493-0.91846 0.24614-0.86776 0.25236-2-0.24534zm-247.92-26.459c-0.82062-0.47797-0.74188-0.67031 1.3274-3.2426 5.0282-6.2505 12.56-9.3545 17.755-7.3172l0.92223 0.36169-3.7813 2.5821c-10.858 7.4145-14.02 8.8991-16.223 7.616zm233.03-0.79637c-7.3805-3.5252-15.046-9.5445-12.775-10.031 5.1218-1.0984 10.08 0.75626 14.865 5.561 5.3047 5.3259 4.2818 7.5138-2.09 4.4705zm-237.58-3.7588c-2.1805-3.3279 0.49481-14.201 6.3004-25.605 2.2935-4.5053 2.5664-4.438 2.1612 0.53293-0.58033 7.12-2.9302 15.764-6.1688 22.693-1.608 3.4399-1.6019 3.4336-2.2928 2.3792zm245.37-2.0417c-3.9177-8.5536-6.517-18.675-6.4866-25.259 0.0125-2.7086 0.17893-2.5531 2.7756 2.5934 5.3617 10.627 8.0558 22.422 5.6679 24.815l-0.6664 0.66779zm-223.3-14.8c-4.7963-1.9631 6.6011-8.0373 12.76-6.8004 1.8516 0.37186 5.32 1.8952 5.32 2.3365 0 0.31673-8.9748 3.2696-12.522 4.12-2.8177 0.67548-4.4943 0.77924-5.5579 0.34394zm197.76-0.28926c-6.8837-1.7762-12.728-4.0027-12.018-4.5781 4.271-3.4584 12.797-2.3787 17.99 2.2782l1.3879 1.2447-0.70757 0.7222c-0.95168 0.97134-3.6544 1.1067-6.6524 0.33306zm-202.34-5.8722c-2.3585-2.3585 2.964-13.979 10.285-22.456 1.9295-2.2341 2.0519-2.0739 1.1896 1.5569-1.3905 5.8547-4.7815 12.882-8.8716 18.385-2.3094 3.1072-2.1572 2.9602-2.6032 2.5142zm210.74-1.4304c-5.0268-6.5397-8.9261-14.714-10.093-21.158-0.38469-2.1238-0.27011-2.0721 2.3339 1.0529 6.0569 7.2688 10.497 16.215 9.9761 20.099-0.27432 2.0453-0.6484 2.0463-2.2165 0.0063zm-183.82-7.4798c-2.8425-0.56205-4.6545-2.1952-3.4295-3.0909 2.2631-1.6548 8.0059-2.173 11.402-1.0289 2.4979 0.84147 6.0028 3.2919 6.0028 4.1968 0 0.33482-12.234 0.26744-13.976-0.07697zm144.82-0.24376c1.9458-3.6357 9.4597-5.4962 15.057-3.7281 3.3015 1.0429 3.3648 2.3725 0.17652 3.7045-1.8728 0.7824-15.651 0.80375-15.233 0.02361zm-150.85-8.4063c-1.046-3.2956 4.1379-10.259 12.093-16.243 2.8865-2.1715 3.0208-1.8328 0.91669 2.3122-3.2965 6.494-12.307 16.143-13.009 13.93zm168.01-1.2062c-5.2126-4.33-13.108-15.368-11.875-16.601 1.3838-1.3837 13.437 11.561 14.439 15.507 0.83599 3.2925 0.33847 3.5048-2.5638 1.0939z"/>
</svg>
