<?xml version="1.0" standalone="no"?>
<!DOCTYPE svg PUBLIC "-//W3C//DTD SVG 20010904//EN"
 "http://www.w3.org/TR/2001/REC-SVG-20010904/DTD/svg10.dtd">
<svg version="1.0" xmlns="http://www.w3.org/2000/svg"
 width="1000.000000pt" height="1000.000000pt" viewBox="0 0 1000.000000 1000.000000"
 preserveAspectRatio="xMidYMid meet">
<metadata>
Created by potrace 1.14, written by Peter Selinger 2001-2017
</metadata>
<g transform="translate(0.000000,1000.000000) scale(0.100000,-0.100000)"
fill="#000000" stroke="none">
<path d="M4199 9977 c-37 -28 -38 -45 -34 -476 l4 -422 -74 -152 c-98 -204
-245 -507 -311 -642 -29 -60 -68 -127 -86 -147 -18 -21 -89 -109 -158 -197
-91 -116 -132 -161 -152 -166 -52 -12 -97 -87 -84 -139 4 -17 -7 -53 -38 -118
-24 -51 -105 -230 -181 -398 -75 -168 -143 -310 -151 -316 -7 -6 -11 -14 -7
-18 4 -4 1 -5 -7 -2 -17 6 -52 -20 -69 -51 -15 -30 -14 -65 5 -113 14 -35 15
-53 5 -142 -7 -57 -15 -125 -17 -153 -3 -27 -9 -77 -14 -110 -7 -59 -6 -120 4
-160 2 -11 16 -78 31 -149 24 -120 25 -131 11 -161 -30 -62 -17 -104 51 -176
51 -54 61 -70 124 -185 118 -220 170 -305 220 -358 30 -32 71 -77 93 -100 21
-22 96 -102 167 -176 71 -74 156 -164 190 -200 187 -198 234 -241 373 -340
301 -215 350 -251 394 -290 24 -22 41 -40 38 -40 -9 0 26 -33 59 -55 17 -11
41 -20 55 -20 14 1 28 -4 32 -10 5 -6 8 -6 8 2 0 7 6 10 13 7 14 -5 65 39 85
74 11 20 10 25 -10 43 l-23 20 23 -11 c12 -6 22 -8 22 -5 0 28 -42 86 -123
170 -54 55 -97 103 -97 106 0 4 -22 44 -50 88 -27 44 -50 85 -50 91 0 5 -4 10
-9 10 -5 0 -11 8 -15 18 -6 18 -23 48 -67 117 -14 22 -47 103 -74 180 -26 77
-63 183 -82 235 -18 52 -35 102 -38 110 -2 8 -13 42 -25 75 -20 57 -25 108
-35 330 -2 44 -4 82 -5 85 -6 15 1 85 9 88 5 2 7 12 4 22 -3 11 0 20 6 20 7 0
10 10 7 24 -2 13 -2 27 2 30 7 8 13 33 16 63 0 11 5 19 10 15 5 -3 6 2 3 12
-4 10 -3 15 3 11 6 -3 10 -1 10 5 0 6 5 8 10 5 6 -3 10 1 10 10 0 9 4 14 9 11
5 -4 8 5 6 19 -1 14 1 25 4 25 4 0 6 14 5 30 -1 17 2 30 7 30 5 0 9 5 9 10 0
12 52 94 63 98 4 2 7 10 7 18 0 8 5 14 11 14 5 0 7 4 4 10 -3 5 4 21 17 34 13
13 24 28 25 33 2 10 65 110 82 129 5 7 7 15 4 18 -4 3 -1 6 5 6 11 0 28 38 24
54 -2 5 4 6 12 3 8 -3 27 4 42 16 16 12 24 15 19 8 -6 -10 -4 -12 4 -6 7 4 10
16 8 27 -3 11 -3 17 0 14 4 -3 12 -1 20 5 10 9 10 15 2 25 -9 11 -8 14 4 14
10 0 13 6 10 20 -3 11 -9 20 -14 20 -5 0 -5 7 -2 17 4 9 2 14 -3 10 -6 -3 -10
22 -9 64 0 38 3 69 6 69 3 0 5 11 4 25 -2 14 0 25 3 25 4 0 7 30 7 68 0 37 2
72 5 77 4 10 9 63 11 133 1 17 6 32 13 32 6 0 4 5 -4 10 -8 5 -10 10 -5 10 6
0 10 17 9 37 0 21 4 44 9 51 6 8 6 12 -2 12 -8 0 -9 6 -3 18 4 9 8 29 7 45 -1
31 1 32 20 15 7 -7 30 -26 50 -43 20 -16 47 -39 60 -50 13 -11 66 -55 119 -99
89 -72 96 -81 97 -115 0 -20 2 -49 4 -66 2 -16 8 -88 14 -160 6 -71 13 -150
16 -175 2 -25 7 -79 11 -120 3 -41 8 -92 10 -114 2 -21 0 -46 -5 -55 -4 -9
-11 -28 -15 -43 -5 -23 -3 -26 17 -21 22 5 22 5 2 -10 -19 -15 -19 -17 -2 -45
17 -30 16 -35 -44 -309 -56 -256 -63 -281 -91 -310 -20 -20 -28 -38 -24 -48 3
-9 2 -13 -4 -10 -6 4 -10 -7 -10 -24 0 -16 5 -33 10 -36 6 -4 8 -10 6 -14 -3
-4 18 -32 45 -61 28 -30 56 -61 62 -70 22 -30 72 -56 110 -59 29 -1 37 1 31
11 -5 8 -1 7 11 -2 14 -11 19 -12 22 -2 3 6 10 9 16 5 6 -4 8 0 4 10 -4 11 -2
14 9 10 9 -3 14 0 12 8 -2 8 2 13 9 12 8 -2 10 4 6 14 -4 11 -3 14 5 9 7 -4
12 -2 12 4 0 6 4 9 9 5 5 -3 13 0 16 6 4 5 13 8 20 5 8 -3 15 0 17 5 3 9 25
16 56 18 7 1 10 6 6 13 -4 7 -3 8 4 4 7 -4 18 -4 25 1 6 4 21 9 32 10 10 2 22
8 26 14 3 6 9 10 13 10 3 -1 7 -1 9 0 1 0 11 2 22 4 11 2 21 9 23 15 2 5 8 8
13 4 5 -3 9 0 9 6 0 6 6 18 14 26 26 25 25 35 11 -136 -4 -47 -8 -98 -10 -115
-2 -16 -24 -95 -50 -174 -37 -115 -52 -149 -76 -168 -16 -14 -27 -29 -23 -34
3 -5 1 -9 -5 -9 -13 0 -18 -38 -10 -78 6 -27 -10 -73 -98 -285 -58 -139 -107
-267 -109 -284 -3 -35 9 -53 95 -146 44 -46 89 -68 123 -59 10 2 31 17 47 32
16 16 32 25 36 22 4 -4 5 -2 4 3 -2 6 31 45 74 87 42 43 77 75 77 72 0 -2 6 1
14 8 8 7 12 15 10 17 -2 2 10 14 26 26 16 12 28 24 27 26 -2 2 5 12 15 22 10
9 18 15 18 12 0 -3 9 3 20 12 11 10 20 23 20 31 0 7 5 10 10 7 6 -3 10 1 10
10 0 9 4 14 9 10 5 -3 12 4 16 15 3 11 10 19 14 17 12 -3 133 128 125 135 -2
2 7 16 19 30 12 14 29 36 37 48 8 13 26 36 38 51 13 16 21 29 17 29 -3 0 5 11
19 23 14 13 23 27 20 30 -3 3 4 10 15 17 12 6 21 17 21 25 0 8 11 26 25 41 14
15 23 29 21 31 -2 3 3 13 12 23 41 44 59 69 54 75 -3 3 0 5 6 5 7 0 12 7 12
16 0 8 4 12 10 9 6 -3 7 1 4 9 -3 9 -2 16 3 16 4 0 14 9 21 21 8 12 9 18 3 14
-6 -3 -11 -1 -11 4 0 6 7 11 15 11 8 0 14 3 12 8 -3 11 35 92 44 92 5 0 6 7 3
15 -4 8 -1 15 5 15 6 0 11 9 11 21 0 11 4 17 10 14 6 -3 7 1 4 9 -4 9 -1 16 6
16 7 0 10 7 6 17 -4 10 -4 14 0 11 4 -4 21 22 39 58 17 36 34 65 38 65 19 -3
30 0 24 5 -3 3 2 20 12 37 10 18 17 42 16 55 -1 12 2 22 7 22 5 0 7 4 4 9 -4
5 0 39 8 75 7 36 11 66 9 66 -3 0 1 8 8 17 12 15 12 16 -1 8 -13 -7 -13 -6 -2
7 7 9 14 38 15 63 1 33 8 54 23 70 12 13 19 26 16 29 -3 3 0 6 7 6 9 0 12 9 9
25 -3 15 -1 22 5 18 6 -4 7 4 3 21 -4 17 -2 34 5 42 7 8 13 27 15 42 1 15 3
27 4 27 2 0 10 55 13 98 1 15 5 27 8 27 3 0 6 6 6 13 0 6 3 32 7 57 3 25 8 99
11 165 7 142 13 230 15 230 3 0 13 207 10 215 -1 3 -3 37 -5 75 -5 93 -13 169
-23 231 -5 29 -8 63 -7 78 0 14 -2 26 -5 26 -3 0 -5 10 -6 23 0 12 -4 36 -7
52 -3 17 -8 50 -11 75 -3 25 -8 56 -10 70 -3 14 -8 45 -11 70 -2 25 -7 59 -10
75 -13 75 -15 93 -20 136 -9 77 -12 85 -66 196 -29 60 -53 111 -53 114 -1 3
-11 25 -23 50 -121 245 -223 462 -223 472 0 7 -6 19 -12 26 -11 11 -10 12 0 6
22 -12 -5 33 -42 70 -17 17 -41 42 -51 56 -28 35 -85 76 -117 84 -42 11 -112
-27 -133 -72 -15 -31 -16 -43 -6 -87 l12 -51 -136 -389 c-74 -215 -137 -391
-139 -393 -11 -11 -31 12 -30 34 0 15 -3 47 -8 72 -4 25 -11 68 -14 95 -7 62
-12 101 -18 141 -11 67 -27 185 -31 215 -6 49 -26 100 -103 258 -47 98 -86
179 -87 182 -1 3 -34 73 -74 155 -40 83 -81 168 -92 190 -34 71 -112 153 -279
295 -36 30 -67 57 -70 60 -3 3 -50 44 -105 90 -55 47 -136 116 -181 155 -44
38 -93 81 -110 95 -16 14 -62 53 -102 88 -62 52 -79 62 -110 62 -20 0 -44 -6
-53 -13z m242 -223 c37 -30 69 -58 71 -62 2 -4 24 -24 50 -45 26 -21 53 -43
60 -50 7 -7 40 -34 73 -62 33 -27 70 -59 81 -70 12 -11 32 -29 45 -39 28 -22
138 -117 186 -160 32 -28 119 -193 108 -204 -3 -3 -5 0 -5 6 0 7 -25 38 -55
69 -30 32 -55 61 -55 66 0 4 -7 7 -15 7 -8 0 -15 4 -15 8 0 8 -163 175 -192
197 -7 6 -78 66 -158 135 -80 69 -158 136 -174 150 -84 71 -105 93 -100 101
10 17 27 9 95 -47z m699 -724 c6 -11 8 -20 6 -20 -3 0 -10 9 -16 20 -6 11 -8
20 -6 20 3 0 10 -9 16 -20z m-767 -14 c4 -10 0 -12 -14 -9 -22 6 -26 23 -5 23
8 0 16 -6 19 -14z m802 -56 c9 -16 13 -30 11 -30 -3 0 -12 14 -21 30 -9 17
-13 30 -11 30 3 0 12 -13 21 -30z m-716 -99 c36 -41 73 -84 81 -96 8 -12 22
-29 30 -37 8 -8 26 -29 40 -47 14 -18 39 -47 56 -64 48 -49 167 -198 158 -196
-23 4 -35 -2 -28 -13 17 -30 -44 34 -109 112 -38 47 -77 92 -86 100 -9 8 -32
35 -51 60 -40 51 -72 88 -150 173 -53 57 -65 84 -54 117 4 12 10 10 26 -10 11
-14 50 -58 87 -99z m771 -26 c0 -5 -5 -3 -10 5 -5 8 -10 20 -10 25 0 6 5 3 10
-5 5 -8 10 -19 10 -25z m37 -70 c13 -27 23 -50 23 -51 0 -3 -26 23 -74 74
l-29 31 28 -3 c23 -2 33 -13 52 -51z m777 13 c-5 -7 -2 -9 8 -6 8 4 15 0 15
-7 0 -10 -5 -11 -19 -4 -16 9 -17 29 -2 29 3 0 2 -5 -2 -12z m43 -35 c-4 -3 1
-16 10 -27 18 -21 18 -21 -4 -2 -20 16 -23 36 -6 36 4 0 3 -3 0 -7z m-783 -59
c3 -8 2 -12 -4 -9 -6 3 -10 10 -10 16 0 14 7 11 14 -7z m846 0 c0 -8 -19 -13
-24 -6 -3 5 1 9 9 9 8 0 15 -2 15 -3z m14 -22 c3 -5 -1 -9 -9 -9 -8 0 -12 4
-9 9 3 4 7 8 9 8 2 0 6 -4 9 -8z m-824 -46 c0 -6 -7 -1 -15 10 -8 10 -15 23
-15 28 0 6 7 1 15 -10 8 -10 15 -23 15 -28z m775 -116 c3 -6 -1 -7 -9 -4 -18
7 -21 14 -7 14 6 0 13 -4 16 -10z m-1722 -44 c4 -10 1 -13 -9 -9 -7 3 -14 9
-14 14 0 14 17 10 23 -5z m1881 -140 c31 -66 55 -121 53 -123 -2 -2 -21 33
-41 76 -21 44 -56 100 -80 124 -42 44 -42 44 -14 43 24 -1 32 -12 82 -120z
m-154 104 c0 -5 1 -11 1 -12 1 -2 5 -26 9 -55 6 -46 4 -52 -13 -57 -15 -4 -17
-2 -8 7 6 6 11 16 11 22 0 5 -5 3 -10 -5 -17 -26 -29 7 -18 49 5 20 10 42 10
49 2 14 18 17 18 2z m-717 -58 l7 -33 -25 25 c-25 25 -34 42 -16 31 5 -3 13 0
16 6 9 14 11 11 18 -29z m953 -219 c10 -21 19 -41 21 -45 2 -5 2 -8 -1 -8 -3
0 -13 17 -22 38 -10 20 -19 40 -21 45 -2 4 -2 7 1 7 3 0 13 -17 22 -37z
m-1076 -248 c69 -82 153 -178 187 -214 36 -39 57 -68 51 -72 -6 -4 -8 -19 -4
-35 l6 -29 -27 30 c-16 17 -47 53 -70 80 -61 73 -81 97 -111 131 -30 34 -83
96 -190 223 -39 46 -69 88 -66 93 3 4 10 6 15 3 5 -4 9 0 9 7 1 16 41 -28 200
-217z m-1320 178 c11 -10 20 -24 20 -31 0 -14 181 -198 327 -331 77 -71 81
-76 62 -89 -17 -12 -25 -7 -90 55 -95 90 -115 109 -185 171 -32 29 -89 83
-126 118 l-66 66 16 29 c10 16 18 29 19 29 2 0 12 -8 23 -17z m2449 -43 c11
-24 11 -24 -3 -6 -9 11 -16 24 -16 30 0 12 5 7 19 -24z m-2263 -78 c-10 -2
-26 3 -35 12 -15 15 -13 16 19 4 26 -9 30 -13 16 -16z m2298 12 c3 -8 2 -12
-4 -9 -6 3 -10 10 -10 16 0 14 7 11 14 -7z m26 -59 c0 -5 -5 -3 -10 5 -5 8
-10 20 -10 25 0 6 5 3 10 -5 5 -8 10 -19 10 -25z m-2125 -15 c4 -6 -5 -5 -19
2 -14 6 -26 15 -26 20 0 10 36 -7 45 -22z m185 -85 c0 -3 -9 -1 -20 5 -11 6
-20 18 -20 27 0 14 3 13 20 -5 11 -12 20 -24 20 -27z m-94 27 c10 -6 27 -42
20 -42 -1 0 -13 11 -26 25 -22 23 -18 34 6 17z m-1031 -240 c-3 -3 -11 0 -18
7 -9 10 -8 11 6 5 10 -3 15 -9 12 -12z m2815 -120 c0 -8 -1 -13 -3 -11 -1 2
-9 12 -16 22 -12 15 -12 17 3 11 9 -3 16 -13 16 -22z m60 3 c11 -13 10 -14 -4
-9 -9 3 -16 10 -16 15 0 13 6 11 20 -6z m-2614 -43 c16 -16 66 -70 112 -120
79 -87 102 -125 82 -137 -5 -3 -7 5 -5 17 4 21 3 22 -9 5 -12 -16 -20 -10 -92
69 -44 47 -94 102 -111 121 -30 32 -46 72 -23 58 6 -3 10 -1 10 4 0 16 4 14
36 -17z m959 7 c11 -16 1 -19 -13 -3 -7 8 -8 14 -3 14 5 0 13 -5 16 -11z m985
-13 c0 -3 -4 -8 -10 -11 -5 -3 -10 -1 -10 4 0 6 5 11 10 11 6 0 10 -2 10 -4z
m-928 -46 c5 0 50 -35 101 -77 209 -176 320 -265 344 -276 12 -5 24 -16 27
-23 4 -11 -1 -11 -26 2 -22 11 -33 13 -38 5 -4 -8 -23 3 -52 31 -24 24 -59 54
-77 68 -17 14 -42 34 -55 45 -12 12 -45 39 -72 60 -27 22 -51 42 -54 45 -3 3
-29 25 -58 49 -28 23 -50 47 -47 51 3 5 1 11 -5 15 -5 3 -15 16 -20 28 -10 22
-10 22 6 0 9 -13 21 -23 26 -23z m935 -2 c-3 -8 -6 -5 -6 6 -1 11 2 17 5 13 3
-3 4 -12 1 -19z m938 -78 c12 -19 -12 -10 -31 11 -19 22 -19 22 3 10 12 -6 25
-16 28 -21z m-655 -120 c0 -15 -5 -12 -26 11 -19 22 -19 22 4 10 12 -6 22 -16
22 -21z m104 -16 c4 -11 2 -12 -14 -1 -11 6 -20 15 -20 19 0 12 28 -3 34 -18z
m-2100 -6 c-3 -4 -11 -5 -19 -1 -21 7 -19 12 4 10 11 0 18 -5 15 -9z m274
-287 c13 -14 47 -51 76 -81 l53 -56 -22 -16 c-21 -16 -23 -16 -41 7 -10 12
-41 47 -69 77 -75 81 -81 90 -64 86 8 -2 13 2 12 9 -4 19 29 3 55 -26z m2412
13 c0 -8 -4 -12 -10 -9 -5 3 -10 10 -10 16 0 5 5 9 10 9 6 0 10 -7 10 -16z
m-895 -144 c10 -11 16 -20 13 -20 -3 0 -13 9 -23 20 -10 11 -16 20 -13 20 3 0
13 -9 23 -20z m-60 -1 c11 -17 -1 -21 -15 -4 -8 9 -8 15 -2 15 6 0 14 -5 17
-11z m185 -89 c8 -5 11 -12 8 -16 -4 -3 -14 1 -23 10 -18 17 -9 21 15 6z m105
-28 c-3 -3 -11 0 -18 7 -9 10 -8 11 6 5 10 -3 15 -9 12 -12z m-1411 -20 c3 -5
-1 -9 -9 -9 -8 0 -12 4 -9 9 3 4 7 8 9 8 2 0 6 -4 9 -8z m36 -38 c0 -8 -19
-13 -24 -6 -3 5 1 9 9 9 8 0 15 -2 15 -3z m1840 -204 c0 -15 -5 -12 -26 11
-19 22 -19 22 4 10 12 -6 22 -16 22 -21z m60 14 c0 -2 -7 -4 -15 -4 -8 0 -15
4 -15 10 0 5 7 7 15 4 8 -4 15 -8 15 -10z m90 -79 c20 -24 6 -28 -15 -5 -10
11 -13 20 -8 20 6 0 16 -7 23 -15z m-760 -120 c0 -5 -5 -3 -10 5 -5 8 -10 20
-10 25 0 6 5 3 10 -5 5 -8 10 -19 10 -25z m-671 -56 c11 -19 12 -21 0 -9 -8 8
-21 21 -29 29 -12 11 -12 12 -1 9 8 -2 21 -15 30 -29z m39 -44 c-3 -3 -9 2
-12 12 -6 14 -5 15 5 6 7 -7 10 -15 7 -18z m1440 -120 c-3 -3 -9 2 -12 12 -6
14 -5 15 5 6 7 -7 10 -15 7 -18z m-563 -169 c33 -23 67 -46 75 -53 8 -7 62
-46 120 -87 172 -122 156 -108 134 -116 -14 -5 -30 3 -59 29 -22 20 -111 86
-197 146 -87 61 -157 116 -158 123 0 15 1 14 85 -42z m-3100 -126 c3 -5 1 -10
-4 -10 -6 0 -11 5 -11 10 0 6 2 10 4 10 3 0 8 -4 11 -10z m330 -226 c68 -70
93 -99 77 -90 -7 4 -20 2 -28 -5 -13 -11 -25 -2 -81 57 -47 50 -61 70 -49 72
19 4 20 13 4 32 -32 35 30 -18 77 -66z m1772 -144 c-1 -10 -5 -16 -9 -14 -5 3
-6 10 -2 15 3 6 -2 20 -13 32 l-18 22 22 -18 c12 -11 21 -27 20 -37z m26 -23
c3 -8 -1 -14 -8 -14 -7 0 -11 6 -8 14 3 7 6 13 8 13 2 0 5 -6 8 -13z m36 -34
c-6 -7 -17 -13 -23 -12 -7 0 -6 2 2 6 6 2 10 8 8 12 -3 4 1 8 9 8 11 0 12 -4
4 -14z m-1736 -143 c41 -45 293 -313 377 -400 25 -26 85 -88 133 -138 48 -51
92 -92 96 -92 5 0 27 -20 49 -45 33 -37 288 -229 350 -264 9 -5 15 -11 12 -14
-3 -2 -86 54 -185 125 -99 71 -204 146 -234 166 -48 33 -78 61 -211 203 -19
20 -106 111 -193 202 -139 145 -207 224 -207 241 0 3 -11 22 -25 42 -14 20
-25 42 -25 48 0 6 6 2 12 -9 6 -11 29 -40 51 -65z m414 -192 c55 -57 64 -70
53 -83 -7 -8 -16 -15 -21 -15 -4 0 -45 39 -91 87 -46 48 -93 97 -105 110 -27
28 -29 43 -8 43 8 0 15 5 15 11 0 6 21 -11 46 -38 25 -26 75 -78 111 -115z
m298 -358 c3 -5 1 -10 -4 -10 -6 0 -11 5 -11 10 0 6 2 10 4 10 3 0 8 -4 11
-10z m200 -17 l18 -28 -21 19 c-12 11 -22 23 -22 28 0 14 7 9 25 -19z m126
-280 c29 -28 56 -50 60 -47 5 2 13 -4 19 -15 11 -21 -4 -61 -23 -61 -4 0 -5
-6 -2 -12 4 -7 -3 -1 -15 15 -12 15 -59 67 -105 115 -45 48 -117 123 -159 167
-42 44 -76 86 -76 93 0 6 -5 12 -12 12 -6 0 -8 3 -5 6 4 4 14 1 22 -6 9 -7 15
-9 14 -4 -6 31 13 17 116 -91 63 -66 138 -143 166 -172z m35 -144 c3 -6 -5 -3
-20 6 -14 10 -26 19 -26 22 0 7 39 -17 46 -28z m78 15 c3 -8 2 -12 -4 -9 -6 3
-10 10 -10 16 0 14 7 11 14 -7z m193 -100 c-3 -3 -12 -4 -19 -1 -8 3 -5 6 6 6
11 1 17 -2 13 -5z m40 -40 c-3 -3 -12 -4 -19 -1 -8 3 -5 6 6 6 11 1 17 -2 13
-5z m-136 -101 c13 -16 12 -17 -3 -4 -17 13 -22 21 -14 21 2 0 10 -8 17 -17z
m89 -7 c0 -3 -4 -8 -10 -11 -5 -3 -10 -1 -10 4 0 6 5 11 10 11 6 0 10 -2 10
-4z"/>
<path d="M2621 9710 c-165 -125 -309 -294 -346 -407 -21 -63 -16 -89 25 -131
16 -18 30 -34 30 -36 0 -2 -21 -16 -47 -32 -27 -15 -100 -61 -163 -103 -63
-43 -121 -81 -128 -85 -7 -4 -3 9 8 29 11 19 20 42 20 50 0 8 4 15 8 15 5 0 9
6 9 13 1 22 8 41 21 55 7 8 10 17 7 22 -3 5 -1 11 4 15 6 3 8 12 5 19 -3 8 0
17 5 21 6 3 9 11 6 16 -4 5 -2 9 2 9 5 0 10 10 10 23 1 12 3 39 6 61 4 33 0
43 -28 72 -19 19 -38 34 -45 34 -6 0 -9 4 -6 9 3 4 -5 18 -18 30 l-24 22 -80
-100 c-142 -177 -230 -323 -276 -463 -33 -99 -34 -163 -2 -211 l24 -35 -61
-64 c-34 -35 -83 -87 -109 -116 -26 -29 -49 -52 -52 -52 -12 0 -6 28 7 33 9 4
9 6 -1 6 -8 1 -10 6 -5 14 4 6 8 20 9 30 1 9 2 18 4 20 4 4 10 91 12 167 l2
76 -65 67 -65 68 -71 -143 c-139 -278 -206 -494 -207 -665 0 -72 3 -87 24
-115 l23 -32 -22 -40 c-13 -23 -48 -88 -78 -146 -30 -58 -56 -106 -57 -107 0
-1 -2 40 -2 90 -2 84 -10 219 -15 225 -3 3 -6 21 -8 37 0 8 -21 36 -45 62 -24
26 -53 58 -64 70 l-19 23 -16 -43 c-38 -100 -102 -356 -121 -479 -27 -179 -28
-398 -2 -476 10 -29 28 -63 41 -75 l23 -22 -44 -150 c-23 -82 -43 -160 -43
-172 -1 -13 -5 -23 -11 -23 -11 0 -12 2 -15 40 -1 14 -5 39 -8 55 -4 17 -10
44 -13 60 -7 36 -8 38 -22 95 -19 70 -44 143 -57 162 -6 10 -35 43 -64 74 -38
41 -55 53 -61 44 -4 -7 -13 -65 -19 -129 -7 -64 -14 -134 -17 -156 -5 -50 -6
-389 0 -430 2 -16 7 -57 11 -90 7 -72 37 -196 59 -247 9 -21 36 -60 61 -88 25
-28 43 -54 41 -59 -4 -6 -12 -98 -21 -256 -2 -22 -3 -71 -4 -110 l-2 -70 -24
70 c-14 39 -27 77 -28 85 -5 20 -15 47 -38 97 -10 24 -19 45 -19 48 0 7 -63
139 -70 145 -3 3 -12 18 -20 33 -16 31 -140 167 -152 167 -12 0 6 -270 28
-427 40 -288 116 -540 201 -665 10 -15 47 -56 81 -92 34 -36 63 -71 63 -78 11
-105 33 -261 54 -382 9 -49 14 -91 12 -93 -3 -2 -23 33 -45 79 -48 96 -74 142
-84 146 -5 2 -8 9 -8 15 0 30 -171 254 -280 367 l-92 95 6 -45 c22 -176 127
-510 222 -705 60 -123 85 -168 97 -173 4 -2 7 -8 7 -13 0 -9 37 -60 75 -105
58 -69 168 -170 201 -185 39 -18 43 -24 66 -96 37 -115 124 -343 164 -431 41
-91 42 -91 -74 63 -50 66 -108 140 -129 165 -43 52 -326 335 -363 365 -57 45
-155 105 -158 96 -8 -23 154 -364 226 -476 14 -22 37 -58 51 -80 123 -193 363
-447 475 -505 64 -32 114 -41 147 -26 13 6 31 -17 84 -106 106 -177 279 -421
378 -533 58 -66 34 -51 -34 21 -173 181 -239 242 -470 429 -124 99 -422 258
-527 280 -43 9 -41 -2 10 -78 101 -149 204 -272 368 -438 184 -186 271 -255
421 -329 76 -37 97 -42 163 -45 43 -2 76 1 76 7 0 5 4 7 9 4 5 -3 21 6 35 21
20 19 23 28 14 34 -7 4 -10 10 -8 12 3 2 93 -85 200 -194 l195 -198 -110 58
c-204 107 -415 188 -601 230 -109 25 -135 29 -252 36 -73 5 -92 4 -92 -7 0
-15 165 -186 230 -238 24 -19 51 -42 60 -50 39 -38 255 -181 336 -223 97 -50
235 -101 317 -117 37 -8 67 -17 67 -20 0 -4 -22 -7 -49 -9 -28 -1 -58 -4 -69
-6 -10 -2 -43 -6 -73 -10 -67 -8 -207 -44 -214 -56 -3 -4 19 -33 48 -63 30
-31 52 -58 49 -61 -3 -3 2 -5 10 -5 9 0 18 -3 20 -7 5 -12 141 -80 243 -122
93 -39 248 -88 305 -97 8 -1 40 -7 72 -14 55 -10 122 -17 203 -20 22 -1 33 -4
25 -7 -38 -14 -178 -88 -217 -114 l-43 -30 40 -40 c22 -22 40 -42 40 -45 0 -8
23 -30 46 -42 18 -9 99 -26 234 -49 60 -10 392 -9 455 1 27 5 59 10 70 12 60
9 92 17 108 25 9 5 17 7 17 3 0 -3 6 -1 13 5 8 6 17 8 20 4 4 -3 13 0 22 7 8
7 15 10 15 6 0 -3 18 4 40 15 21 11 47 22 55 23 9 1 20 7 23 12 4 5 14 10 22
12 24 5 92 53 126 89 18 18 37 33 43 33 7 0 10 4 7 9 -3 5 1 12 9 15 8 3 14 9
14 13 -1 4 6 26 16 48 10 22 19 51 19 65 l1 24 128 3 c124 2 165 11 151 35 -3
5 -6 24 -6 43 0 28 -11 44 -62 97 l-62 62 -80 -3 -80 -3 -23 44 c-44 86 -226
276 -421 438 -250 208 -230 191 -320 270 -70 61 -101 89 -178 162 -29 28 -55
48 -58 45 -11 -11 19 -152 52 -250 33 -98 94 -220 143 -287 77 -106 240 -276
329 -341 28 -22 52 -41 52 -43 0 -4 -190 39 -250 57 -36 10 -46 18 -48 37 -2
14 -6 32 -9 40 -3 8 -7 20 -8 25 -4 15 -48 109 -54 115 -8 7 -29 41 -38 60 -4
8 -11 20 -15 25 -40 50 -389 534 -456 633 -47 70 -91 132 -97 138 -81 88 -108
114 -115 114 -15 0 -2 -203 20 -308 51 -250 148 -432 341 -636 52 -55 90 -97
84 -95 -5 3 -28 14 -50 24 -62 28 -238 127 -253 142 -7 7 -17 13 -21 13 -4 0
-5 23 -1 50 4 28 4 53 1 56 -3 3 -6 15 -7 27 -2 44 -65 225 -119 342 -15 33
-35 78 -45 100 -10 22 -30 67 -46 100 -15 33 -28 62 -29 65 0 3 -8 21 -17 40
-33 71 -130 297 -154 358 -13 36 -40 80 -63 105 -22 23 -49 53 -60 65 -11 13
-24 21 -29 18 -26 -16 -42 -331 -22 -422 4 -19 4 -34 0 -34 -5 0 -12 21 -16
47 -9 55 -8 49 -17 88 -4 17 -9 39 -12 50 -2 11 -12 49 -20 85 -9 36 -19 76
-21 90 -3 14 -10 43 -16 65 -6 22 -12 49 -14 60 -2 11 -6 31 -9 45 -12 46 -26
105 -29 120 -1 8 -8 38 -14 65 -6 28 -13 61 -15 75 -1 14 -5 30 -9 36 -4 5 -9
30 -12 54 -3 25 -12 50 -21 56 -8 6 -15 14 -15 18 0 3 -23 29 -50 57 l-50 51
-19 -44 c-21 -50 -51 -164 -51 -196 0 -12 -5 -22 -11 -22 -5 0 -7 5 -4 10 3 6
1 10 -6 10 -10 0 -10 3 -1 12 6 6 8 18 4 27 -5 9 -8 50 -7 91 0 41 -4 78 -10
82 -6 5 -5 8 3 8 7 0 10 5 7 10 -4 6 -8 57 -10 113 -2 56 -5 102 -5 102 -2 0
-7 137 -10 268 l-3 87 -48 51 c-27 28 -49 56 -49 61 0 5 -4 6 -10 3 -5 -3 -10
-1 -10 4 0 41 -60 -54 -108 -169 -21 -51 -22 -47 -8 25 8 41 20 140 18 148 -1
4 3 7 9 7 8 0 9 4 0 13 -6 8 -8 17 -4 20 3 4 8 19 10 34 1 16 5 48 9 73 3 25
6 64 7 87 1 24 5 43 8 43 3 0 6 6 6 13 1 16 13 128 16 147 1 8 6 20 10 27 4 6
3 14 -3 18 -7 4 -7 12 0 24 5 11 11 33 12 51 1 17 5 33 9 36 15 9 -6 51 -42
87 -21 21 -48 50 -60 65 l-21 27 -50 -55 c-27 -30 -61 -74 -75 -98 -31 -53
-42 -49 -14 6 11 22 17 42 14 46 -4 3 -1 6 6 6 7 0 9 5 6 10 -3 6 -1 10 4 10
6 0 10 3 9 8 0 4 2 16 6 27 15 40 19 50 22 60 1 6 9 29 18 53 8 23 13 42 9 42
-3 0 0 7 7 15 6 8 9 18 6 24 -3 5 -1 11 6 13 6 2 12 11 14 19 9 55 15 74 23
77 5 2 6 12 3 24 -3 12 -1 19 4 15 5 -3 10 2 11 11 1 18 10 55 13 60 2 1 4 7
5 12 1 6 4 12 5 15 1 3 4 10 5 15 1 6 3 11 4 13 2 1 5 13 7 27 2 13 8 27 13
30 4 3 7 13 5 23 -1 9 3 17 9 17 5 0 7 3 4 7 -4 3 -2 12 4 20 6 7 8 13 5 13
-4 0 -2 9 4 21 22 40 20 61 -8 89 -15 16 -42 45 -61 64 -19 20 -37 36 -40 36
-11 0 -57 -34 -99 -72 -67 -61 -127 -141 -172 -230 l-42 -83 7 85 c4 47 8 101
10 120 2 19 4 47 4 62 1 25 3 26 30 15 16 -6 36 -7 47 -2 10 5 21 9 24 9 9 2
55 36 48 36 -4 0 8 16 28 35 19 19 33 37 32 40 -2 2 4 12 12 22 8 10 21 31 29
46 8 15 18 27 23 27 4 0 8 9 8 19 0 10 7 22 16 25 9 4 14 9 11 13 -4 3 2 18
12 32 10 14 22 36 25 49 4 12 12 20 17 17 5 -4 9 1 9 10 0 18 20 57 35 67 6 4
10 11 10 15 2 20 17 53 24 49 4 -3 8 4 8 15 1 10 9 26 17 35 15 14 18 22 15
40 0 4 5 10 13 15 7 5 13 12 13 16 1 4 13 27 28 50 34 54 34 64 -5 97 -17 14
-29 26 -26 26 4 0 -8 15 -25 33 -27 28 -36 32 -63 27 -63 -14 -160 -75 -232
-148 -41 -40 -70 -67 -66 -60 4 7 9 19 10 28 4 21 12 55 14 55 1 0 3 11 4 25
2 14 9 36 16 50 7 14 13 26 12 28 -1 1 -2 3 -1 5 0 1 2 9 4 17 2 8 8 29 13 47
6 17 7 35 4 39 -4 4 8 -3 26 -15 43 -30 119 -20 149 18 7 9 13 12 13 7 0 -5
12 4 27 20 15 16 31 28 35 26 4 -1 8 3 8 9 0 6 7 17 15 25 8 9 15 12 15 8 0
-4 10 6 22 22 12 16 34 40 48 53 14 14 24 29 22 33 -1 4 4 8 12 8 8 0 18 5 22
12 5 7 3 8 -7 3 -8 -5 15 20 51 55 36 35 58 59 50 55 -8 -5 3 10 25 32 22 22
54 56 71 76 17 20 34 34 36 32 3 -3 5 2 5 11 0 9 -29 45 -63 81 l-63 65 -53
-6 c-64 -6 -126 -27 -194 -66 -47 -26 -51 -27 -47 -9 3 10 10 19 15 19 5 0 7
4 3 9 -3 5 1 15 8 23 14 14 28 43 33 68 2 8 8 16 14 18 5 2 8 8 4 13 -3 5 0 9
6 9 6 0 8 5 5 10 -3 6 -1 10 5 10 6 0 8 5 5 10 -3 6 -1 10 4 10 6 0 11 7 11
15 0 8 5 15 11 15 5 0 7 5 4 10 -3 6 -1 10 4 10 6 0 11 7 11 15 0 20 3 19 46
-10 26 -18 44 -23 67 -19 18 3 40 5 50 5 9 0 17 4 17 10 0 5 3 8 8 7 12 -5 92
34 92 44 0 5 5 6 10 3 6 -3 10 -2 10 4 0 6 11 13 25 17 14 3 25 10 25 15 0 5
7 9 15 9 8 0 15 5 15 10 0 6 7 10 15 10 8 0 15 5 15 10 0 6 6 10 13 10 7 0 28
13 47 30 19 16 41 29 48 30 6 0 12 5 12 12 0 6 3 9 6 6 3 -3 17 5 31 18 14 13
28 22 31 19 3 -2 13 5 23 17 11 11 19 18 19 14 0 -4 7 -1 15 8 8 8 15 17 15
20 0 2 -28 34 -62 70 -49 51 -72 68 -103 74 -45 10 -133 9 -185 -2 -28 -5 -31
-5 -17 4 9 6 15 15 12 20 -3 4 2 10 10 14 8 3 15 13 15 21 0 9 5 13 10 10 6
-3 10 -2 10 4 0 6 11 21 24 34 14 14 22 28 19 31 -4 3 1 6 10 6 10 0 17 5 17
11 0 6 16 26 35 45 20 19 32 34 28 34 -4 0 3 7 15 16 21 15 24 14 40 -3 27
-31 62 -45 114 -47 26 -1 48 1 48 4 0 5 37 11 83 13 9 1 17 5 17 9 0 4 3 7 8
6 4 -1 27 5 52 12 25 8 47 14 50 14 3 1 11 5 18 9 6 5 12 6 12 3 0 -3 15 1 34
9 18 8 36 11 40 8 3 -4 6 0 6 7 0 7 3 11 6 7 4 -3 19 0 35 9 16 8 31 14 34 14
3 0 18 3 35 6 24 5 28 10 20 23 -20 34 -117 130 -153 150 -41 23 -155 53 -169
45 -4 -3 -5 2 -2 9 3 8 15 17 26 20 13 4 17 10 12 18 -4 7 -3 10 3 6 6 -4 16
0 23 8 7 8 19 15 28 15 8 0 13 3 9 6 -5 6 137 114 149 114 3 0 15 9 26 20 l22
20 35 -34 c44 -42 83 -61 141 -72 58 -10 420 -11 413 -1 -2 4 1 7 8 7 11 0
-40 58 -131 147 -52 51 -111 88 -159 98 l-33 7 41 23 c22 13 56 29 76 36 19 7
35 16 35 19 0 3 15 6 33 7 82 4 107 7 107 12 0 3 10 7 23 7 27 2 82 11 82 14
0 2 14 5 57 13 15 3 31 8 36 11 8 5 17 7 86 21 16 3 36 10 45 14 9 5 19 9 24
10 34 5 88 18 117 28 8 3 22 7 30 8 8 1 35 8 60 14 25 6 54 14 65 16 32 6 60
13 60 15 0 1 16 3 35 6 19 2 37 9 38 14 2 6 9 7 15 3 7 -4 6 1 -2 11 -8 9 -20
15 -26 12 -8 -3 -11 2 -8 15 4 13 0 19 -11 19 -10 0 -15 3 -13 8 3 4 -1 12 -8
19 -11 10 -15 10 -18 0 -3 -7 -6 -2 -6 11 -1 13 -7 22 -17 22 -8 0 -13 4 -10
9 13 21 -332 37 -459 20 -165 -21 -345 -89 -430 -162 -22 -19 -56 -42 -75 -52
l-35 -18 25 29 c14 16 27 31 30 34 11 9 55 75 55 81 0 3 8 13 18 23 9 10 17
26 17 37 0 10 5 19 10 19 6 0 10 6 10 13 0 7 5 18 12 25 6 6 13 17 14 24 2 7
7 27 12 44 9 30 7 35 -47 93 -31 34 -62 61 -68 61 -7 0 -48 -27 -92 -60z
m-1811 -4722 c-17 -36 -44 -117 -60 -179 -16 -63 -30 -103 -31 -89 -1 14 -3
48 -6 75 -3 28 -5 65 -6 83 -1 17 -4 32 -7 32 -3 0 -5 14 -5 30 0 27 3 30 32
30 22 0 41 9 61 30 16 16 27 32 24 35 -4 3 0 10 8 15 8 5 16 8 17 6 2 -2 -10
-32 -27 -68z m148 -913 c-5 -28 -10 -114 -10 -192 l-2 -142 -18 54 c-10 30
-19 63 -21 74 -2 11 -6 24 -10 27 -4 4 -7 18 -7 30 0 13 -4 25 -9 29 -6 3 -9
13 -9 23 0 9 -2 24 -6 32 -5 11 0 16 14 17 26 2 47 24 66 69 20 48 25 40 12
-21z m332 -560 c0 -14 -2 -25 -4 -25 -2 0 -6 11 -8 25 -3 14 -1 25 3 25 5 0 9
-11 9 -25z m-5 -270 c8 -97 37 -239 70 -336 14 -40 24 -74 22 -75 -4 -5 -67
106 -67 117 0 5 -4 9 -10 9 -5 0 -10 4 -10 9 0 4 -18 41 -41 82 -50 89 -52 99
-26 122 11 9 17 17 13 17 -4 0 -1 7 8 15 8 9 13 22 10 29 -3 8 -1 17 5 21 6 3
11 22 11 42 0 62 9 31 15 -52z m444 -573 c36 -185 147 -415 264 -549 45 -52
11 -30 -79 52 -151 136 -236 229 -227 251 3 8 8 14 12 14 4 0 8 8 9 18 3 30 7
47 15 59 4 6 2 15 -4 19 -8 5 -8 8 0 14 8 4 9 14 2 32 -5 14 -6 31 -1 38 5 9
4 20 -2 27 -6 7 -8 13 -6 13 3 0 2 18 -2 40 -4 22 -4 37 0 35 4 -2 12 -31 19
-63z m571 -984 c71 -50 67 -48 145 -93 l60 -36 -45 6 c-25 3 -58 8 -75 10 -42
6 -148 15 -225 20 -36 2 -74 4 -85 5 -11 1 1 7 27 14 57 15 99 42 105 67 3 10
9 19 14 19 5 0 6 7 3 15 -10 25 12 17 76 -27z m-300 -84 c0 -8 -19 -13 -24 -6
-3 5 1 9 9 9 8 0 15 -2 15 -3z m50 0 c0 -8 -19 -13 -24 -6 -3 5 1 9 9 9 8 0
15 -2 15 -3z m1059 -300 c2 -2 -6 -4 -18 -4 -13 0 -59 -9 -103 -21 -44 -11
-83 -18 -86 -15 -3 4 -1 6 5 6 6 0 13 9 16 20 3 11 6 24 7 28 10 40 17 41 97
15 43 -13 80 -26 82 -29z"/>
<path d="M7166 9713 c89 -202 237 -385 481 -594 38 -33 73 -46 74 -27 11 117
-68 237 -311 476 -92 91 -233 202 -255 202 -12 0 -9 -13 11 -57z"/>
<path d="M6312 9516 c-40 -7 -75 -10 -79 -7 -3 3 1 -4 8 -16 8 -13 17 -23 22
-23 4 0 5 -5 1 -12 -4 -7 -3 -8 4 -4 7 4 19 -6 30 -23 10 -17 22 -28 25 -24 4
3 7 -1 7 -11 0 -9 5 -14 10 -11 6 3 10 -1 10 -9 0 -9 3 -15 8 -14 11 3 92 -12
147 -27 28 -8 61 -16 75 -18 20 -4 75 -18 120 -32 3 -1 19 -5 35 -9 17 -4 77
-21 135 -36 58 -16 116 -31 130 -34 14 -2 57 -11 97 -20 40 -9 94 -17 120 -20
28 -2 79 -19 121 -39 l73 -36 -73 6 c-86 7 -160 -7 -232 -43 -47 -23 -126 -89
-126 -105 0 -4 27 -35 59 -69 l59 -63 188 1 c219 1 258 4 299 23 75 35 81 59
30 112 -20 21 -33 37 -29 37 4 0 57 -33 118 -73 237 -157 481 -368 621 -537
21 -25 41 -47 44 -50 31 -22 277 -378 350 -505 19 -34 13 -29 -40 30 -163 177
-235 234 -355 276 -89 31 -246 31 -277 0 -5 -5 18 -36 50 -71 64 -68 391 -294
505 -349 63 -31 132 -45 153 -33 33 21 43 9 100 -111 82 -175 192 -447 181
-447 -3 0 -18 19 -35 42 -40 54 -184 203 -236 244 -79 62 -182 104 -267 109
-70 4 -73 -6 -20 -62 20 -21 66 -72 102 -113 301 -340 429 -459 531 -493 12
-4 26 -43 47 -134 45 -188 74 -331 70 -343 -2 -6 -23 19 -48 55 -64 98 -263
296 -329 330 -65 32 -132 57 -139 51 -2 -3 14 -37 37 -76 22 -40 41 -74 41
-76 0 -2 18 -33 40 -69 22 -36 40 -67 40 -69 0 -9 155 -275 192 -329 22 -32
81 -102 133 -155 l93 -98 7 -120 c10 -173 12 -274 6 -274 -3 0 -25 37 -49 83
-47 89 -69 120 -152 212 -74 80 -137 141 -184 176 -43 32 -56 36 -56 17 0 -30
233 -717 268 -791 25 -53 59 -104 96 -144 31 -34 58 -70 58 -80 1 -18 -10
-131 -16 -168 -2 -11 -7 -48 -11 -83 -7 -57 -25 -98 -25 -55 0 57 -103 272
-168 352 -62 77 -184 201 -192 196 -4 -2 -3 -28 1 -57 5 -29 11 -73 15 -98 3
-25 7 -56 10 -70 2 -14 6 -47 9 -75 3 -27 10 -77 15 -110 5 -33 14 -100 20
-150 40 -320 78 -467 139 -536 l39 -44 -35 -115 c-37 -123 -49 -147 -50 -103
-1 40 -11 102 -22 141 -5 18 -10 36 -11 40 -2 17 -23 88 -28 97 -4 6 -7 15 -8
21 -3 20 -66 139 -89 169 -33 42 -126 138 -130 133 -2 -2 -6 -84 -10 -183 -3
-99 -8 -205 -10 -235 -11 -134 -18 -347 -17 -490 1 -126 5 -167 22 -221 11
-37 27 -72 35 -79 8 -7 15 -18 15 -25 0 -10 -54 -121 -74 -152 -1 -1 -1 51 -1
115 0 64 -5 151 -13 192 -7 41 -15 84 -16 95 -2 11 -5 22 -6 25 -1 3 -3 10 -4
15 -1 6 -5 17 -8 25 -4 8 -12 31 -18 51 -6 21 -19 47 -30 59 -50 57 -112 121
-116 117 -3 -3 -30 -125 -50 -227 -3 -14 -23 -99 -45 -190 -21 -91 -53 -228
-70 -305 -17 -77 -34 -149 -39 -160 -7 -18 -8 -17 -8 5 0 22 -7 83 -15 132 -4
20 -119 149 -130 145 -4 -1 -37 -72 -73 -157 -35 -85 -75 -177 -87 -205 -13
-27 -52 -114 -87 -192 -36 -79 -68 -143 -73 -143 -4 0 -7 15 -6 32 3 63 -1 73
-61 136 -33 34 -62 62 -64 62 -3 0 -28 -35 -57 -77 -78 -118 -314 -448 -339
-476 -4 -5 -5 4 -3 20 11 65 5 93 -26 122 -17 16 -31 34 -31 41 0 7 -7 10 -16
6 -8 -3 -12 -2 -9 4 3 6 1 10 -4 10 -6 0 -11 7 -11 15 0 27 -20 16 -93 -52
-137 -127 -236 -214 -393 -343 -331 -271 -414 -370 -417 -497 l-2 -55 -138 4
-137 3 0 -55 c0 -54 2 -57 60 -117 57 -59 63 -63 108 -64 116 -2 136 -6 152
-30 8 -13 53 -63 99 -111 115 -120 210 -178 381 -234 72 -24 94 -29 170 -40
19 -2 46 -7 60 -11 33 -8 392 -12 404 -5 6 3 28 7 50 8 23 2 52 5 66 9 14 3
41 7 60 10 19 2 49 9 65 15 17 6 31 11 33 11 21 -6 9 11 -50 74 -80 84 -162
135 -345 214 -113 48 -307 111 -386 126 -37 7 -51 24 -22 26 28 3 33 4 40 11
4 4 13 4 21 1 8 -3 14 0 14 5 0 6 8 9 18 7 10 -1 35 6 56 16 45 22 42 23 120
-59 55 -58 158 -114 236 -127 61 -11 330 -14 330 -5 0 5 12 7 28 5 15 -2 32 0
37 3 6 4 24 7 42 8 17 1 39 7 50 12 10 5 26 8 36 7 9 -2 17 1 17 6 0 4 7 6 15
3 8 -4 15 -1 15 5 0 6 3 10 8 9 16 -5 112 25 112 35 0 6 3 7 7 4 3 -4 13 -1
21 6 11 8 14 8 9 0 -4 -6 13 -1 38 12 25 14 48 24 50 24 11 0 140 65 146 73 3
6 8 9 10 8 7 -3 59 23 59 30 0 4 -28 37 -62 74 -60 64 -66 67 -143 86 -125 31
-272 47 -438 46 -125 -1 -149 1 -130 11 13 7 31 19 39 28 9 8 19 13 24 10 4
-3 11 2 14 11 4 9 9 14 13 10 3 -3 13 3 20 14 8 11 19 18 24 15 5 -4 12 1 15
9 9 24 20 20 59 -23 53 -57 112 -78 215 -75 86 2 109 5 168 23 17 5 32 7 32 4
0 -3 7 0 15 7 8 7 15 9 15 5 0 -5 10 0 22 11 13 12 18 13 13 4 -7 -12 -6 -13
7 -3 8 7 18 10 21 6 4 -3 7 -1 7 5 0 6 16 14 35 18 20 4 32 10 28 17 -4 6 -1
7 7 2 7 -4 15 -4 19 1 3 5 41 26 84 48 42 21 77 43 77 48 0 5 4 7 9 3 6 -3 14
2 19 11 5 9 11 15 13 13 4 -3 54 27 76 46 7 5 19 16 27 23 8 6 19 12 25 12 5
0 12 7 15 16 4 9 9 14 12 11 4 -3 24 12 45 33 22 22 39 36 39 33 0 -4 14 9 31
28 18 19 28 28 24 20 -5 -9 -4 -12 3 -7 7 4 12 14 12 22 0 8 4 13 8 10 12 -7
50 46 45 62 -3 6 -9 10 -14 6 -5 -3 -9 0 -9 6 0 7 -22 34 -49 60 l-48 49 -79
-4 c-43 -2 -101 -6 -129 -9 l-50 -5 50 17 c28 9 52 20 53 24 2 5 8 6 12 3 5
-3 19 5 31 17 12 13 18 16 14 8 -7 -13 -6 -13 11 0 10 9 31 22 47 30 15 7 27
17 27 22 0 4 7 8 15 8 7 0 19 8 24 17 6 10 11 15 11 11 0 -9 34 17 59 44 8 10
19 18 23 18 4 0 32 24 62 54 30 30 57 51 60 48 3 -3 6 0 6 7 0 7 16 27 35 43
19 17 32 35 29 40 -3 4 2 8 10 8 9 0 16 4 16 9 0 5 18 28 40 50 22 22 40 43
40 46 0 4 6 12 13 20 24 27 58 74 57 80 -1 4 10 16 24 29 14 12 26 25 26 28 0
4 11 24 25 44 18 26 22 41 15 53 -16 27 -107 121 -119 121 -17 0 -103 -30
-159 -56 -65 -30 -78 -31 -32 -2 19 12 43 31 53 42 9 10 17 15 17 11 0 -4 11
4 25 19 14 15 25 32 25 37 0 6 4 8 8 5 10 -6 43 30 35 38 -4 3 2 6 12 6 10 0
16 3 13 6 -4 3 8 19 24 35 17 16 28 29 24 29 -4 0 9 17 28 37 20 21 36 41 36
46 0 17 4 23 27 45 13 12 22 26 19 31 -3 5 1 11 9 15 8 3 15 12 15 21 0 8 5
15 10 15 6 0 10 5 10 11 0 7 8 18 18 26 9 8 11 12 5 8 -7 -3 -13 -2 -13 3 0 6
7 12 15 16 8 3 15 12 15 21 0 8 5 15 11 15 5 0 7 5 4 10 -3 6 -1 10 4 10 6 0
10 3 10 8 -4 21 2 32 13 26 7 -5 9 -2 5 9 -3 9 -1 17 4 19 6 2 11 11 13 20 1
10 6 21 10 25 7 7 38 70 40 83 1 3 9 21 18 40 26 55 41 94 40 103 -1 4 2 7 7
7 5 0 7 9 4 20 -3 11 -9 20 -14 20 -5 0 -9 6 -9 13 0 6 -13 21 -29 32 -16 10
-28 22 -26 25 6 9 -33 40 -49 40 -30 0 -187 -128 -309 -252 -70 -72 -124 -122
-121 -112 4 11 11 25 17 31 5 7 7 13 4 13 -4 0 1 19 9 43 9 23 17 49 19 57 2
8 4 17 5 20 4 8 7 24 8 39 2 10 5 11 16 2 18 -15 86 -22 86 -9 0 5 5 6 10 3 6
-3 10 -1 10 5 0 6 5 8 10 5 6 -3 10 -2 10 4 0 5 9 13 21 16 11 4 18 9 15 13
-4 3 6 14 21 24 16 10 24 18 19 18 -6 0 -1 8 10 19 10 10 26 28 34 41 8 12 20
28 27 35 7 7 9 15 6 19 -4 3 -1 6 6 6 7 0 9 5 6 10 -3 6 -2 10 2 10 5 0 14 9
21 21 11 17 11 20 0 14 -7 -4 -6 -1 2 7 16 14 41 62 46 88 2 8 8 16 14 18 5 2
8 8 4 13 -3 5 0 9 6 9 6 0 8 5 5 10 -3 6 -1 10 5 10 6 0 8 4 5 10 -3 6 -2 10
4 10 5 0 8 8 7 18 -2 9 4 23 13 30 9 8 10 11 3 7 -7 -4 -4 8 8 29 11 20 17 36
14 36 -4 0 -1 7 6 15 7 8 9 15 5 15 -4 0 -2 7 5 15 7 8 9 15 4 15 -4 0 -3 5 4
12 7 7 12 20 12 30 0 10 5 18 11 18 5 0 8 4 5 9 -5 8 3 43 21 91 3 8 8 24 10
35 2 11 6 27 10 35 3 8 7 20 7 25 1 6 8 37 15 70 7 33 15 67 16 75 2 8 4 15 5
15 1 0 3 9 6 20 5 27 -4 67 -15 61 -5 -3 -11 4 -14 15 -3 12 -10 18 -16 14 -6
-3 -11 0 -11 7 0 7 -15 28 -34 46 l-33 32 -54 -61 c-30 -34 -60 -71 -68 -83
-8 -12 -17 -23 -21 -26 -9 -8 -105 -160 -145 -230 -20 -36 -38 -66 -40 -68 -3
-3 2 79 5 88 4 11 7 38 8 88 l2 52 40 0 c25 0 42 6 48 16 5 9 12 15 15 15 4
-1 8 2 8 7 1 4 10 13 21 20 10 7 16 17 13 22 -3 5 4 15 15 23 11 7 17 17 13
20 -3 4 0 7 7 7 7 0 10 3 7 6 -3 4 -1 16 5 28 7 11 13 27 14 35 2 8 8 17 14
21 7 4 11 10 11 14 -1 15 12 66 18 66 3 0 7 14 8 31 1 17 8 37 14 45 6 8 9 14
5 14 -3 0 0 16 9 35 8 20 10 33 4 29 -6 -4 -6 4 2 17 7 13 14 33 15 44 2 18 6
43 19 110 3 11 7 38 10 60 3 22 8 51 11 65 6 26 14 114 19 215 2 33 4 60 5 60
1 0 2 27 3 59 2 65 -2 73 -81 156 -42 44 -44 44 -59 25 -35 -47 -136 -271
-178 -395 -24 -74 -45 -126 -46 -115 0 11 -2 36 -5 55 -2 19 -5 65 -7 101 -2
36 -7 72 -12 78 -6 11 2 16 40 24 15 3 52 41 48 50 -2 4 1 7 7 7 6 0 8 5 5 10
-3 6 -1 10 4 10 6 0 11 8 11 18 0 10 3 22 7 26 9 8 10 14 12 52 0 14 5 23 10
19 6 -3 8 6 5 20 -2 14 -1 25 4 25 4 0 7 16 7 35 -1 19 2 35 6 35 3 0 7 12 6
28 0 76 9 172 17 172 5 0 3 7 -4 15 -9 11 -9 15 -1 15 9 0 9 5 1 20 -8 15 -8
20 1 20 8 0 8 4 1 13 -7 8 -7 18 -2 27 5 9 5 19 -2 27 -7 9 -7 13 1 13 9 0 9
5 1 20 -8 14 -8 20 0 20 6 0 8 5 4 12 -10 16 -10 50 0 66 4 6 2 12 -3 12 -6 0
-9 15 -8 33 2 17 0 40 -5 50 -6 12 -5 17 4 17 8 0 9 3 3 8 -5 4 -11 23 -12 42
-2 40 -12 125 -18 155 -2 11 -4 25 -4 32 -1 16 -122 144 -131 138 -33 -20
-133 -501 -124 -592 1 -7 -2 -10 -7 -7 -5 3 -9 18 -9 34 0 16 -4 31 -9 35 -6
3 -8 14 -6 25 2 11 -1 20 -6 20 -6 0 -7 5 -4 10 4 6 2 16 -3 23 -5 7 -12 26
-15 42 -4 17 -13 52 -21 78 -9 26 -11 45 -6 42 5 -3 20 3 32 14 12 12 18 21
12 21 -5 0 -3 4 4 8 7 5 15 22 18 38 3 16 9 44 14 62 5 20 5 32 -1 32 -6 0 -7
6 -2 13 11 17 11 128 1 150 -5 9 -5 17 -1 17 4 0 8 11 8 25 0 14 -2 25 -5 25
-4 0 -9 47 -14 133 0 15 -4 27 -8 27 -4 0 -5 6 -2 14 3 8 1 17 -5 20 -6 4 -8
13 -4 21 3 9 0 21 -6 29 -6 7 -9 15 -6 17 2 3 -1 22 -6 44 -5 22 -12 51 -15
65 -3 14 -8 34 -11 45 -4 11 -7 22 -8 25 -3 22 -28 109 -36 122 -5 10 -9 26
-9 35 0 25 -30 68 -90 133 -60 65 -65 62 -77 -50 -15 -140 -6 -531 13 -562 3
-4 0 -8 -5 -8 -6 0 -11 6 -11 14 0 13 -80 177 -105 216 -5 8 -10 17 -10 20 0
3 -13 27 -29 53 l-28 48 23 22 c13 12 25 31 27 42 7 53 7 102 0 117 -5 10 -4
19 2 23 7 4 8 11 2 18 -6 7 -12 30 -15 52 -6 43 -7 46 -26 115 -59 213 -193
497 -277 586 -30 32 -54 62 -54 66 0 4 -6 8 -14 8 -8 0 -17 6 -20 13 -9 18 1
-166 14 -253 20 -138 81 -357 134 -482 9 -21 15 -38 13 -38 -3 0 -27 30 -55
68 -27 37 -60 79 -73 93 -13 14 -46 51 -73 83 -118 139 -407 417 -526 506 -19
14 -54 41 -79 60 -156 121 -318 220 -566 346 -82 42 -166 91 -186 108 -72 61
-180 109 -329 147 -103 25 -382 34 -498 15z m2775 -6479 c21 3 44 10 51 15 7
6 15 9 17 6 3 -2 -30 -24 -73 -48 -42 -24 -110 -65 -149 -92 -40 -26 -70 -41
-67 -33 4 8 10 15 16 15 5 0 7 4 4 8 -3 5 4 19 15 30 11 12 17 22 14 22 -4 0
3 14 15 30 12 17 18 30 14 30 -4 0 1 9 11 20 10 11 14 20 9 20 -5 0 -3 4 5 9
9 6 25 1 47 -14 25 -17 43 -22 71 -18z m-787 -506 c-1 -3 -16 -23 -35 -44
l-34 -39 14 46 c8 25 12 46 9 46 -3 0 -2 6 3 13 8 12 9 17 12 40 2 11 31 -48
31 -62z m203 -242 c36 -34 70 -47 115 -45 23 1 42 -1 42 -6 0 -4 -8 -8 -17 -9
-33 -1 -159 -35 -258 -69 -56 -19 -70 -15 -35 10 11 8 20 20 20 28 0 7 5 10
10 7 6 -3 10 -2 10 3 0 8 79 102 87 102 2 0 14 -9 26 -21z m-819 -333 c-10 -8
-23 -12 -27 -9 -5 3 -5 8 1 12 5 3 13 17 17 31 l8 25 10 -23 c8 -18 7 -25 -9
-36z m-666 -351 c-14 -10 -68 -22 -68 -14 0 5 5 9 11 9 5 0 7 5 4 10 -3 6 0
10 8 10 8 0 18 8 22 18 6 15 8 14 16 -7 5 -13 8 -25 7 -26z"/>
<path d="M7885 9373 c32 -219 213 -564 395 -755 77 -80 80 -82 95 -63 19 24
18 90 -3 155 -16 54 -19 63 -21 72 -4 22 -109 210 -154 276 -89 131 -286 362
-309 362 -7 0 -8 -18 -3 -47z"/>
<path d="M7700 8686 c-63 -13 -150 -54 -150 -70 0 -6 25 -37 56 -70 51 -54 62
-61 157 -93 56 -19 110 -36 120 -38 9 -2 20 -6 25 -9 4 -2 52 -16 107 -31 107
-29 195 -38 195 -22 0 6 3 7 6 4 4 -3 16 -1 28 5 11 7 23 12 26 11 3 -1 6 6 7
16 2 26 -152 181 -222 223 -115 70 -248 97 -355 74z"/>
<path d="M4165 3674 c-19 -19 -17 -115 3 -156 9 -21 43 -64 75 -98 l59 -60
-70 0 c-64 0 -71 -2 -87 -26 -23 -36 -29 -83 -15 -133 9 -33 32 -64 105 -139
52 -53 92 -98 91 -101 -12 -20 -14 -118 -5 -163 15 -70 28 -93 87 -155 l50
-53 -34 0 c-45 0 -67 -34 -70 -110 -4 -96 17 -134 146 -269 23 -24 29 -36 20
-41 -9 -5 -10 -23 -6 -61 11 -82 14 -112 31 -274 9 -82 18 -163 20 -180 9 -70
15 -124 20 -180 3 -33 8 -73 10 -90 2 -16 7 -57 10 -90 3 -33 8 -69 10 -80 2
-11 7 -58 11 -105 3 -47 8 -87 9 -90 2 -3 6 -41 10 -85 4 -44 8 -82 10 -85 2
-3 6 -46 10 -95 4 -50 8 -92 10 -95 2 -3 6 -41 10 -85 4 -44 9 -82 10 -85 2
-3 6 -43 10 -90 7 -90 21 -134 55 -178 47 -61 157 -165 190 -179 41 -18 149
-25 168 -10 6 5 12 6 12 3 0 -4 20 7 45 24 25 17 45 35 45 39 0 5 11 19 25 32
17 18 22 30 18 48 -4 18 -3 22 7 16 9 -5 11 -4 6 4 -4 6 -3 18 4 26 8 9 8 15
0 20 -6 3 -7 11 -3 18 4 6 8 31 9 57 2 25 3 45 4 45 2 0 5 25 11 100 1 22 5
44 8 49 2 5 5 30 7 55 1 25 5 66 8 91 3 25 8 65 11 90 7 62 16 151 19 175 1
11 5 26 9 33 5 7 3 12 -3 12 -6 0 -8 5 -4 11 4 6 8 23 9 38 1 14 6 58 10 96 5
39 8 80 8 93 -1 12 2 22 6 22 3 0 6 20 5 45 0 25 4 45 9 45 5 0 4 6 -2 13 -6
8 -8 16 -5 19 8 8 15 62 17 124 1 30 4 54 7 54 5 0 8 33 13 128 0 12 5 22 10
22 5 0 4 6 -2 13 -6 8 -8 17 -4 21 4 4 8 17 9 29 2 21 9 85 20 187 12 116 12
113 -23 147 -18 18 -33 37 -33 43 0 5 -4 10 -10 10 -5 0 -10 4 -10 9 0 5 27 8
60 7 33 -1 60 2 60 7 0 4 4 6 9 2 5 -3 16 2 24 10 9 8 19 15 24 15 9 0 45 55
43 66 -1 4 3 10 9 13 17 11 20 103 4 151 -8 25 -29 58 -46 74 -20 18 -27 31
-20 33 33 11 91 83 100 123 19 79 21 131 7 177 -6 23 -10 44 -8 46 2 2 -14 22
-35 45 -29 31 -35 42 -23 43 62 2 120 7 140 12 30 8 104 62 95 70 -3 4 -2 7 4
7 25 0 37 109 16 150 -7 14 -35 50 -62 80 l-50 55 30 14 c16 8 31 23 35 33 3
10 10 18 16 18 6 0 8 9 5 20 -3 11 -2 20 3 20 4 0 6 25 4 55 -3 49 -9 61 -43
98 -22 23 -51 55 -66 71 l-27 29 -761 1 c-559 1 -764 -2 -772 -10z m1125
-1199 l-5 -40 -295 -2 -295 -2 -31 43 -31 42 331 0 332 -1 -6 -40z"/>
</g>
</svg>
