<?xml version="1.0" encoding="iso-8859-1"?>
<!-- Uploaded to: SVG Repo, www.svgrepo.com, Generator: SVG Repo Mixer Tools -->
<svg height="800px" width="800px" version="1.1" id="Layer_1" xmlns="http://www.w3.org/2000/svg" xmlns:xlink="http://www.w3.org/1999/xlink" 
	 viewBox="0 0 512 512" xml:space="preserve">
<g>
	<g>
		<path d="M496.697,423.358V262.505l-10.192-3.805c-1.919-0.717-47.931-17.628-127.903-24.502
			c-20.488-1.762-44.413-2.923-71.353-2.76L256.997,59.453l-11.752-1.235c-1.319-0.138-32.786-3.321-75.98,2.999
			c-57.415,8.4-108.657,29.853-148.186,62.041l-5.776,4.704v146.784v148.613H0v31.347h15.302h311.223h170.173H512v-31.347H496.697z
			 M46.647,143.018C89.482,110.44,138.59,97.48,172.911,92.365c24.627-3.67,45.286-3.929,57.413-3.598l9.901,56.29
			c-92.508,2.195-160.284,23.763-193.578,37.016V143.018z M46.647,216.11c23.53-10.426,95.498-38.113,199.074-39.803l9.837,55.922
			c-8.516,0.369-17.275,0.874-26.271,1.534v-22.161c0-9.01-7.305-16.315-16.315-16.315c-9.01,0-16.315,7.304-16.315,16.315v25.157
			c-10.595,1.166-21.466,2.552-32.596,4.179v-20.286c0-9.01-7.304-16.315-16.315-16.315c-9.01,0-16.315,7.305-16.315,16.315v25.641
			c-10.657,1.939-21.519,4.101-32.579,6.509v-22.226c0-7.754-6.286-14.04-14.04-14.04c-7.754,0-14.04,6.286-14.04,14.04v28.769
			c-7.953,1.976-15.993,4.075-24.125,6.31V216.11z M46.648,298.202c81.814-23.27,154.609-32.533,214.39-34.83l11.04,62.763
			c-14.769,0.019-29.084,0.327-42.793,0.845v-24.228c0.001-9.01-7.304-16.315-16.314-16.315c-9.01,0-16.315,7.304-16.315,16.315
			v25.897c-6.117,0.393-12.08,0.816-17.83,1.268c-5.01,0.394-9.931,0.81-14.764,1.243v-23.027c0-9.01-7.304-16.315-16.315-16.315
			c-9.01,0-16.315,7.305-16.315,16.315v26.349c-11.656,1.329-22.556,2.724-32.579,4.116v-21.032c0-7.754-6.286-14.04-14.04-14.04
			c-7.754,0-14.04,6.286-14.04,14.04v25.25c-9.473,1.534-17.577,2.964-24.125,4.179V298.202z M229.287,423.357v-28.235
			c0-9.01-7.305-16.315-16.315-16.315c-9.01,0-16.315,7.304-16.315,16.315v28.236h-32.596v-28.236
			c0-9.01-7.304-16.315-16.315-16.315c-9.01,0-16.315,7.304-16.315,16.315v28.236H98.855v-26.139c0-7.754-6.286-14.04-14.04-14.04
			c-7.754,0-14.04,6.286-14.04,14.04v26.139H46.649v-44.444c22.012-4.217,71.799-12.811,134.633-17.747
			c28.139-2.21,61.01-3.812,96.312-3.685l11.588,65.875H229.287z M465.349,423.359h-32.411v-0.001v-23.865
			c0-9.01-7.304-16.314-16.315-16.314c-9.01,0-16.315,7.304-16.315,16.314v23.865h-29.986v-23.865
			c0-9.01-7.304-16.314-16.315-16.314c-9.01,0-16.314,7.304-16.314,16.314v23.865h-16.684l-11.483-65.28
			c50.552,1.739,104.49,7.458,155.824,20.158V423.359z M465.351,345.986c-10.732-2.509-21.553-4.726-32.413-6.691v-26.062
			c0-9.01-7.304-16.315-16.315-16.315c-9.01,0-16.315,7.304-16.315,16.315v20.927c-10.017-1.354-20.024-2.513-29.986-3.49v-27.917
			c0-9.01-7.304-16.315-16.315-16.315c-9.01,0-16.314,7.304-16.314,16.315v25.32c-11.375-0.703-22.634-1.204-33.712-1.515
			l-11.22-63.782c23.126,0.016,43.827,1.029,61.757,2.535c55.092,4.625,93.593,14.386,110.833,19.49V345.986z"/>
	</g>
</g>
</svg>