<?xml version="1.0" encoding="UTF-8"?>
<!-- Created with Inkscape (http://www.inkscape.org/) -->
<svg width="328.96" height="296.32" version="1.1" viewBox="0 0 328.96 296.32" xmlns="http://www.w3.org/2000/svg">
 <path d="m161.09 295.87c-2.685-0.65182-4.9711-2.4417-5.6792-4.4464-0.16659-0.47168-7.251-64.165-7.251-65.191 0-0.17195-0.324-0.31318-0.72-0.31384-1.2718-2e-3 -2.7884-1.1988-3.4371-2.712-0.8981-2.0952-3.3879-9.9566-3.8281-12.087-0.75598-3.6587 0.81554-7.2813 3.8176-8.8l1.4232-0.72001 18.732 7e-3c17.491 7e-3 18.817 0.046 20.012 0.59481 2.4292 1.1155 3.4139 3.0451 3.3951 6.6528-9e-3 1.8073-0.36305 3.6182-1.5062 7.7135-0.82163 2.9435-1.7072 5.7838-1.9679 6.3118-0.75641 1.5318-2.0277 2.696-3.18 2.9122-0.74241 0.13928-1.1106 0.40816-1.2104 0.88399-0.0789 0.3761-1.7345 15.012-3.6791 32.524-2.7803 25.038-3.6638 32.116-4.1354 33.13-0.75157 1.6166-2.5184 2.8558-4.9833 3.4952-2.23 0.57847-3.5614 0.58872-5.8026 0.0446zm-54.05-11.118c-3.31-0.42365-7.382-1.4545-9.5003-2.4052-2.125-0.95366-4.0997-2.9244-4.0997-4.0916 0-1.0515 1.4978-5.7464 2.404-7.5356 1.4611-2.8847 4.525-5.7045 8.5143-7.8359l1.8827-1.0059-1.8405-0.74735c-1.0123-0.41103-4.0489-1.8172-6.7481-3.1248s-4.9461-2.3299-4.9932-2.2718c-0.04704 0.0581-0.48579 0.79908-0.97499 1.6466-1.2362 2.1415-3.8547 4.9291-5.8005 6.1751-4.9885 3.1944-11.63 3.2654-18.92 0.2024-2.8254-1.1871-11.009-6.4413-13.002-8.3477-1.9824-1.8965-2.9018-3.801-2.4317-5.0374 0.62037-1.6317 2.5988-3.975 4.8302-5.7209 4.0761-3.1894 8.127-4.5892 12.086-4.1766 1.2468 0.12995 1.9824 0.10311 1.7936-0.0654-0.176-0.15716-1.976-1.7428-4-3.5236-2.024-1.7808-4.6697-4.2423-5.8794-5.47l-2.1994-2.2322-1.4806 1.1349c-1.9767 1.5152-5.4729 3.1672-7.6667 3.6227-2.7344 0.56766-6.8777 0.24379-9.2367-0.72201-4.3639-1.7866-11.078-7.5896-14.185-12.26-0.93667-1.408-2.5204-3.64-3.5193-4.96-2.9764-3.9329-3.2632-4.7474-2.3996-6.8143 0.8379-2.0054 3.3957-3.248 8.771-4.261 3.3302-0.62764 6.7584-0.46182 9.4728 0.4582 1.0544 0.35737 1.9441 0.62268 1.9772 0.58958 0.03309-0.0331-0.59852-1.1384-1.4036-2.4563-0.80508-1.3179-2.4746-4.3402-3.71-6.7162s-2.2596-4.3452-2.276-4.376c-0.01641-0.0308-0.89265 0.14697-1.9472 0.395-6.7479 1.5872-13.704-1.1361-19.055-7.4603-1.9871-2.3484-4.1189-6.1463-5.6881-10.134-1.6154-4.1046-4.2145-12.948-4.2145-14.34 0-1.6741 1.1949-3.0539 2.9755-3.4357 4.8002-1.0295 12.061 0.84604 16.206 4.1859 1.1199 0.90242 1.9436 1.3994 1.8304 1.1045-0.30946-0.80644-1.3904-7.2646-1.8342-10.958l-0.39146-3.2583-2.3649-0.52614c-1.3007-0.28938-3.5435-1.116-4.9839-1.837-6.2695-3.138-10.273-9.5368-12.288-19.641-0.81177-4.0697-0.81134-13.583 7.9731e-4 -17.589 0.32444-1.6002 0.71518-3.1122 0.86833-3.36 0.19549-0.31631 0.92545-0.44964 2.4501-0.44753 1.7738 2e-3 2.5686 0.19044 4.3379 1.0261 4.0758 1.925 8.6033 6.0956 11.047 10.176l1.2731 2.1258 0.39197-2.8256c0.21558-1.5541 0.67418-4.3376 1.0191-6.1856 1.151-6.1667 1.2622-5.4488-1.0644-6.8694-4.5163-2.7576-8.1145-7.6986-9.6117-13.199-0.55261-2.0301-0.67956-3.4108-0.68518-7.4518-8e-3 -5.7307 0.58932-9.1548 2.6965-15.458 2.0347-6.0867 3.8787-9.3761 5.6727-10.119 0.81924-0.33934 1.1294-0.2969 2.3387 0.32002 4.1224 2.1031 7.9796 8.2304 9.7289 15.455 0.42219 1.7436 0.82317 3.2257 0.89106 3.2936 0.0679 0.06789 0.38384-0.56376 0.7021-1.4037s1.1795-2.8264 1.9139-4.4144c1.2108-2.6182 1.3541-3.1997 1.5383-6.24 0.34367-5.6747 2.0015-11.064 4.9689-16.153 1.7935-3.0758 6.9798-8.4281 9.7235-10.035 6.8776-4.0275 15.97-5.1981 17.543-2.2586 0.91 1.7004-0.62953 7.635-3.5299 13.607-1.8206 3.7488-4.6009 8.0017-7.2587 11.103-2.2844 2.6659-7.8233 7.1535-10.754 8.713-2.3861 1.2696-6.3447 2.7099-7.4482 2.7099-0.97272 0-1.126 0.24478-3.1056 4.96-2.567 6.1143-2.5329 5.889-0.70146 4.6289 4.8418-3.3312 11.238-3.3716 17.749-0.11214 5.25 2.6281 5.3511 3.4708 1.2685 10.57-1.5876 2.7604-3.6663 5.9841-4.6193 7.1636-4.9512 6.1279-12.51 8.9634-20.174 7.5673-1.408-0.25651-2.6508-0.37432-2.7617-0.26181-0.39795 0.40358-1.8059 9.051-2.6224 16.107-0.08705 0.75216 0.22991 0.52704 2.4822-1.7629 2.793-2.8398 4.769-4.0819 7.7132-4.8488 3.1839-0.82929 9.1997-0.48187 11.405 0.65866 1.4939 0.77255 1.6717 1.7222 1.0728 5.7308-2.4312 16.272-8.3593 24.177-19.923 26.565-1.3574 0.28037-2.5363 0.57809-2.6198 0.66159-0.36788 0.36789 1.8068 13.512 2.9076 17.573l0.34691 1.28 0.72261-2.623c0.96571-3.5054 1.8428-5.2311 3.6739-7.2286 3.8917-4.2454 12.462-7.5678 14.977-5.8061 0.96194 0.67377 2.1427 3.077 3.0064 6.1187 1.041 3.6664 0.97666 9.6321-0.14989 13.897-0.9599 3.634-2.5332 7.1665-4.5289 10.168-1.6264 2.4464-5.8475 6.6344-7.8258 7.7644-0.72133 0.41201-1.3126 0.868-1.314 1.0133-0.0071 0.75917 7.2787 13.988 8.2607 14.999 0.11925 0.12278 0.21682-1.1012 0.21682-2.72 0-3.177 0.43513-4.9037 2.1426-8.5025 1.7715-3.7337 7.8847-9.0008 10.447-9.0008 1.4514 0 2.7159 1.2949 4.1409 4.2403 5.9133 12.223 6.9898 21.115 3.5627 29.425-0.51416 1.2469-1.6666 3.3622-2.561 4.7006l-1.6262 2.4336 3.6444 3.52c2.0044 1.936 4.5625 4.312 5.6847 5.28 1.7415 1.5024 2.007 1.6429 1.8137 0.96-1.1306-3.9927-1.2391-4.7693-1.0948-7.838 0.19716-4.1942 1.1524-6.8987 3.8885-11.009 2.4107-3.6212 2.9442-3.9257 5.1603-2.9454 2.7742 1.2272 7.0157 6.0932 10.906 12.512 2.6299 4.339 3.5757 6.6059 4.1674 9.9887 0.5956 3.4048 0.44299 8.7395-0.34132 11.931-0.74128 3.0166-0.82882 2.8664 2.7051 4.6398 3.6166 1.8149 9.5415 4.4802 9.9594 4.4802 0.15214 0-0.19072-0.61225-0.76191-1.3606-1.266-1.6586-2.5978-4.5625-3.2621-7.113-0.92772-3.5618-0.4043-11.317 0.93913-13.915 0.69593-1.3458 1.7062-2.0596 2.8682-2.0267 1.6844 0.0477 10.369 4.807 13.766 7.5442 3.6496 2.9403 5.8393 5.642 7.8385 9.6714 2.1434 4.32 2.9145 7.369 3.1244 12.354 0.21831 5.1853-0.13594 7.4074-2.0862 13.086-0.61127 1.7798-3.5045 4.8731-5.9297 6.3398-0.96384 0.5829-2.7387 1.4079-3.9442 1.8332-1.9295 0.68089-2.7086 0.76939-6.5117 0.7397-2.376-0.0186-5.328-0.16274-6.56-0.32042zm10.144-5.747c2.6833-0.56126 4.5877-1.7713 6.3829-4.0556 1.9375-2.4654 3.1744-6.0295 2.3184-6.6803-0.62124-0.47232-5.9592-1.4638-6.586-1.2233-0.25977 0.0997-1.0559 0.0501-1.7692-0.11015-0.71331-0.16028-2.0694-0.17813-3.0136-0.0397-0.94418 0.13846-2.8687 0.40978-4.2767 0.60295-3.0978 0.42499-5.4619 1.5161-7.019 3.2396-1.3906 1.5392-3.2332 5.151-2.9733 5.8281 0.22556 0.5878 3.6033 1.7502 6.7392 2.3192 2.887 0.52382 7.9782 0.5833 10.197 0.11913zm8.7385-18.605c-1.4072-7.0327-3.7313-10.986-8.8826-15.107-2.6419-2.1138-6.4549-4.333-7.4448-4.333-0.49973 0-0.5383 0.37992-0.41423 4.08 0.12438 3.7093 0.22103 4.2498 1.0639 5.9489 1.2587 2.5374 5.0036 6.0223 8.4091 7.8254 2.8594 1.514 5.5812 2.5662 6.7313 2.6023 0.67313 0.0211 0.72525-0.0775 0.53734-1.0166zm-45.182-0.74945c1.8806-0.6408 4.3531-2.8403 5.3639-4.7718l0.77494-1.4808-0.8-0.65558c-2.6393-2.1628-11.058-5.4023-15.71-6.0453-4.7422-0.65545-9.031 0.56938-11.198 3.1979l-0.92028 1.1165 0.71406 0.76433c2.0266 2.1693 10.648 6.9152 14.314 7.8793 2.3604 0.62079 5.6319 0.61884 7.4611-4e-3zm8.7644-13.811c0.13998-0.66 0.24924-2.568 0.2428-4.24-0.02336-6.071-2.6158-11.514-8.8376-18.554l-1.4893-1.6852-0.81659 1.2395c-0.9147 1.3884-1.8047 4.4536-1.8047 6.2155 0 3.432 2.1436 8.5598 5.1686 12.364 2.0117 2.5298 6.0149 5.8534 7.0569 5.859 0.12402 6.6e-4 0.34002-0.5388 0.48-1.1988zm-38.706-18.623c3.5869-1.9118 3.6064-1.7178-0.58936-5.8772-7.9638-7.8948-12.851-10.78-18.262-10.78-2.0129 0-5.0546 0.54498-5.529 0.9906-0.44155 0.41484 3.077 5.4243 5.8967 8.3953 3.9423 4.1539 8.1315 7.2398 11.204 8.2532 0.44 0.14514 1.8159 0.21914 3.0575 0.16445 1.8177-0.0801 2.6403-0.30345 4.2221-1.1466zm8.0036-8.3338c0.92881-1.3709 1.9375-4.6225 2.3946-7.7189 0.45976-3.1147-0.12882-6.345-2.1323-11.703-0.77774-2.0798-1.5211-4.2087-1.6519-4.7308-0.13079-0.5221-0.48315-1.2126-0.78302-1.5345-0.52344-0.56185-0.6042-0.51964-2.0213 1.0565-0.81182 0.90294-1.9413 2.5868-2.51 3.742-0.8889 1.8056-1.0523 2.5199-1.1648 5.0915-0.11306 2.585-0.0126 3.3718 0.73964 5.7926 1.5079 4.8527 5.1145 11.473 6.0858 11.171 0.176-0.0547 0.64546-0.57979 1.0432-1.1669zm-29.154-31.928c0.3829-0.24367-1.4646-5.2383-3.1644-8.5551-1.4199-2.7704-4.5369-7.2818-6.4829-9.383-2.2386-2.417-3.8457-3.5682-6.4701-4.6346-2.0678-0.8402-5.2135-1.4274-5.21-0.97243 0.00115 0.14851 0.43462 1.8191 0.96326 3.7124 2.8434 10.184 7.9692 17.56 13.54 19.485 1.6793 0.58032 6.1039 0.80572 6.8237 0.34763zm9.3754-5.6751c1.842-2.2125 3.3469-5.0024 4.229-7.84 0.64443-2.073 0.74474-3.0541 0.73611-7.2-0.0087-4.1704-0.50764-8.48-0.98182-8.48-0.08054 0-1.0106 0.43623-2.0668 0.96939-5.1234 2.5863-7.3414 6.5-7.3414 12.954 0 3.4598 0.49995 6.5997 1.6369 10.281l0.64081 2.0747 0.90752-0.57947c0.49914-0.31871 1.5069-1.2995 2.2396-2.1795zm-19.185-40.516c0-1.9898-1.5289-10.624-2.4584-13.884-1.4763-5.1771-3.6197-9.0676-6.6836-12.131-1.8462-1.8462-3.9425-3.0038-4.3234-2.3874-1.074 1.7377-0.40481 11.428 1.2014 17.399 1.6089 5.9805 7.2923 12.308 11.064 12.317 1.1927 3e-3 1.2-5e-3 1.2-1.3135zm9.9098 0.16213c6.0666-2.7534 10.489-9.8236 11.359-18.16l0.22903-2.194-2.6767 0.11403c-2.2385 0.0954-3.0246 0.28537-4.8017 1.1606-2.5135 1.2379-3.8703 2.6788-5.1222 5.4398-1.6479 3.6343-2.4959 7.5022-2.4968 11.388l-8.07e-4 3.4747 0.88-0.21478c0.484-0.11813 1.6674-0.57215 2.6298-1.0089zm7.4006-41.047c2.5545-0.47693 3.3256-0.76809 4.5893-1.733 3.0144-2.3016 9.1864-10.97 8.7047-12.225-0.27622-0.71983-4.3174-1.8549-6.5874-1.8502-3.4226 7e-3 -5.5262 1.2124-8.4186 4.8239-2.1966 2.7427-3.6737 5.4308-4.597 8.3656-0.41177 1.3088-0.70698 2.4214-0.65604 2.4723 0.16014 0.16014 2.585 0.68286 3.2547 0.7016 0.352 0.01 2.0217-0.24005 3.7104-0.55533zm-12.667-2.9232c0.11043-0.17868 0.55634-2.2307 0.99092-4.56 1.0073-5.3991 1.1781-15.201 0.33306-19.115-0.64255-2.9765-2.3608-6.5268-3.8609-7.9773l-1.1348-1.0973-1.1156 2.4145c-0.61357 1.328-1.506 3.8378-1.9832 5.5773-0.78827 2.8736-0.86959 3.6894-0.88947 8.9228-0.02087 5.4957 0.01799 5.8693 0.84699 8.142 1.071 2.9362 2.7982 5.4955 4.6768 6.9299 1.5264 1.1655 1.8222 1.2712 2.1361 0.76329zm24.141-36.693c2.6877-2.3592 6.1355-6.0143 7.2519-7.6881 2.6667-3.9979 6.421-12.464 5.8018-13.083-0.08525-0.08526-1.5181 0.28162-3.1841 0.81528-4.6623 1.4935-7.9163 3.8771-11.165 8.1784-1.9475 2.5787-3.1572 5.5501-4.0043 9.8359-0.42608 2.1557-0.84486 4.2344-0.93062 4.6193-0.14736 0.66134-0.0087 0.63176 2.5233-0.53802 1.4736-0.6808 3.1417-1.6437 3.7068-2.1398zm160.22 224.07c-1.2055-0.42539-2.9803-1.2504-3.9442-1.8332-2.4252-1.4667-5.3184-4.56-5.9297-6.3398-1.9502-5.6784-2.3045-7.9005-2.0862-13.086 0.20989-4.9852 0.98097-8.0342 3.1244-12.354 1.9992-4.0294 4.1888-6.731 7.8385-9.6714 3.3975-2.7372 12.082-7.4965 13.766-7.5442 1.162-0.0329 2.1722 0.68091 2.8682 2.0267 1.3415 2.5942 1.8658 10.343 0.94193 13.922-0.58797 2.2777-2.1164 5.6512-3.2101 7.0851l-0.78883 1.0342 1.2056-0.4883c1.8932-0.76677 10.742-5.1372 11.379-5.6203 0.53979-0.40913 0.54431-0.55712 0.0765-2.5091-1.2993-5.4216-0.83754-12.873 1.0562-17.046 2.1471-4.731 7.476-12.463 10.61-15.394 1.9288-1.8042 4.1034-2.862 5.2777-2.5672 1.1244 0.28222 4.7741 5.8067 5.8466 8.8499 1.0416 2.9555 1.3312 8.1148 0.60628 10.803-0.261 0.96777-0.43077 1.8034-0.37725 1.8569 0.1351 0.13509 3.5757-2.9923 7.2572-6.5965l3.087-3.0222-1.4298-2.2102c-5.261-8.1326-5.6297-17.011-1.1739-28.263 2.8745-7.2585 4.5583-9.7649 6.5604-9.7649 2.562 0 8.6752 5.267 10.447 9.0008 1.3562 2.8584 1.9917 4.966 2.2447 7.4439l0.21792 2.1349 1.5672-2.6193c1.8334-3.0641 6.0741-11.161 5.9073-11.279-7.0073-4.9567-10.886-10.453-12.986-18.403-1.1266-4.265-1.1909-10.231-0.14989-13.897 0.86363-3.0417 2.0444-5.445 3.0064-6.1187 1.7138-1.2004 6.2436-0.16999 10.581 2.4069 4.0589 2.4113 6.3318 5.0372 7.4536 8.6108 0.30385 0.968 0.65037 1.8715 0.77003 2.0078 0.37227 0.42403 2.2762-9.5313 2.7402-14.328l0.21675-2.2407-2.0588-0.39055c-4.4578-0.84564-9.2649-3.5183-12.086-6.7194-3.7431-4.2479-6.1612-10.595-7.5319-19.769-0.76069-5.0912-0.29844-5.8387 4.0465-6.5437 6.6236-1.0747 11.364 0.25418 15.574 4.3663l2.03 1.9826-0.20141-1.8226c-0.22-1.9907-1.6372-10.746-2.0302-12.543-0.21879-1.0001-0.34594-1.1109-1.1875-1.0347-3.0744 0.27809-8.1928 0.1638-9.7425-0.21754-4.2908-1.0559-8.4418-3.7484-11.374-7.3778-0.95305-1.1796-3.0317-4.4032-4.6193-7.1636-4.0317-7.0102-3.9543-7.8735 0.9336-10.417 5.9499-3.0955 12.457-3.4032 16.901-0.7992l1.3608 0.79734-0.60483-1.534c-0.33266-0.84369-1.2138-2.9806-1.9582-4.7487l-1.3534-3.2147-2.1226-0.60499c-3.3473-0.95406-7.2786-3.1385-10.923-6.0691-3.742-3.0095-6.1584-5.6675-9.0025-9.9028-4.6964-6.9936-8.336-17.213-7.0117-19.687 1.5732-2.9395 10.666-1.7689 17.543 2.2586 2.7438 1.6067 7.93 6.959 9.7235 10.035 3.2728 5.6128 4.7891 10.849 4.8887 16.882l0.0674 4.0818 1.8947 4.4782c1.0421 2.463 2.0031 4.4782 2.1356 4.4782s0.24106-0.396 0.24129-0.88c6.7e-4 -1.4404 1.4873-7.1373 2.4442-9.3665 2.0599-4.7988 5.1666-8.7292 8.0712-10.211 1.2092-0.61692 1.5194-0.65936 2.3387-0.32002 1.794 0.74309 3.638 4.0325 5.6727 10.119 2.1072 6.3034 2.7044 9.7275 2.6965 15.458-8e-3 5.8481-0.56117 8.4014-2.7174 12.546-1.635 3.1427-4.9015 6.5727-7.9316 8.3285-1.1337 0.65695-2.1948 1.239-2.358 1.2933-0.16646 0.0555 0.0669 2.08 0.53158 4.6123 0.45555 2.4824 0.98924 5.8604 1.186 7.5067 0.48089 4.0238 0.57824 4.2221 1.2809 2.6085 2.1602-4.9604 7.3872-10.309 12.379-12.666 1.7694-0.83568 2.5641-1.0237 4.3379-1.0261 1.5247-2e-3 2.2546 0.13122 2.4501 0.44753 1.4488 2.3442 1.9879 15.34 0.86913 20.949-2.5264 12.666-8.3213 19.68-17.811 21.558-1.496 0.29609-2.7427 0.54376-2.7704 0.55038-0.0277 7e-3 -0.21896 1.452-0.42493 3.212-0.35859 3.064-1.75 11.202-2.1245 12.425-0.0985 0.32163 0.42936-0.0752 1.1729-0.88192 2.0168-2.188 4.6469-3.7895 8.1085-4.9373 3.6032-1.1948 7.2152-1.5778 9.7984-1.039 1.4251 0.29725 1.897 0.56749 2.48 1.4201 0.396 0.57914 0.72 1.5055 0.72 2.0585 0 1.3917-2.5992 10.236-4.2145 14.34-0.73418 1.8655-1.9942 4.5304-2.8002 5.922-5.4175 9.3546-13.998 13.751-22.508 11.532l-2.1624-0.56394-2.2826 4.3424c-1.2554 2.3883-3.0552 5.6255-3.9996 7.1938-0.94436 1.5682-1.6581 2.9103-1.586 2.9823 0.072 0.072 0.71638-0.1677 1.4319-0.53273 3.0814-1.572 7.0981-1.9685 11.494-1.1347 5.1771 0.98209 7.7268 2.2398 8.554 4.2194 0.8636 2.0669 0.57679 2.8814-2.3996 6.8143-0.99897 1.32-2.5827 3.552-3.5193 4.96-3.107 4.6704-9.8212 10.473-14.185 12.26-2.3763 0.97286-6.5072 1.2887-9.2926 0.71042-2.2897-0.47535-6.3269-2.4712-8.1408-4.0246l-1.3705-1.1737-3.7498 3.6339c-2.0624 1.9987-5.0088 4.7027-6.5477 6.009-1.5389 1.3063-2.7628 2.404-2.7197 2.4394 0.043 0.0354 1.1583-0.0789 2.4783-0.25402 2.9839-0.39581 5.6332 0.0381 8.4983 1.3917 3.8676 1.8273 8.0616 5.712 9.0915 8.421 0.47009 1.2364-0.44924 3.1409-2.4317 5.0374-1.9927 1.9064-10.176 7.1606-13.002 8.3477-7.2903 3.063-13.932 2.992-18.92-0.2024-2.0786-1.331-4.7109-4.2061-6.0282-6.5841l-1.0231-1.8469-4.9725 2.4705c-2.7349 1.3588-5.8005 2.8062-6.8125 3.2164s-1.84 0.83447-1.84 0.94273c0 0.10825 0.50808 0.38055 1.1291 0.6051 1.8359 0.66388 5.7537 3.4513 7.3566 5.2342 1.7906 1.9916 2.6838 3.6905 3.797 7.2226 1.089 3.4551 1.0626 3.9723-0.27892 5.4572-2.6247 2.9052-10.489 4.8554-19.515 4.8396-3.2406-6e-3 -4.1946-0.12891-6.0401-0.78018zm12.988-5.4369c3.2459-0.57874 6.6434-1.723 6.8701-2.3139 0.21513-0.56063-0.99447-3.2543-2.2276-4.9606-1.1655-1.6128-3.1819-3.0405-5.0976-3.6094-1.4143-0.41999-7.4252-1.2612-8.5813-1.2009-7.9642 0.41546-10.49 1.0202-10.048 2.4053 0.12364 0.38685 0.40058 1.367 0.61541 2.1782 0.50753 1.9164 3.2042 5.3442 4.997 6.3518 0.76223 0.4284 2.108 0.95442 2.9906 1.1689 2.1762 0.5289 7.4608 0.51911 10.481-0.0194zm-15.939-18.088c5.3988-1.8574 10.995-6.1443 12.818-9.8189 0.84289-1.6992 0.93955-2.2396 1.0639-5.9489 0.12407-3.7001 0.0855-4.08-0.41423-4.08-0.98998 0-4.8029 2.2192-7.4448 4.333-5.1513 4.1215-7.4754 8.0743-8.8826 15.107-0.25543 1.2766 0.16185 1.3361 2.86 0.40783zm49.636-1.1333c3.7463-0.95357 12.377-5.6676 14.461-7.8988l0.71406-0.76433-0.92028-1.1165c-2.1666-2.6285-6.4555-3.8533-11.198-3.1979-4.6523 0.64301-13.071 3.8825-15.71 6.0453l-0.8 0.65558 0.77494 1.4808c0.97543 1.8638 3.4675 4.1268 5.2329 4.752 1.7775 0.62941 5.0682 0.64879 7.4449 0.0439zm-14.253-13.317c3.1216-1.8945 6.3258-5.4102 8.4418-9.2625 1.2264-2.2328 2.4382-6.3475 2.4382-8.2793 0-1.7619-0.89002-4.8271-1.8047-6.2155l-0.8166-1.2395-1.4893 1.6852c-6.2219 7.0402-8.8143 12.483-8.8376 18.554-0.0118 3.0594 0.30474 5.441 0.7228 5.4388 0.12403-6.6e-4 0.7295-0.30708 1.3455-0.68093zm46.284-19.095c2.5193-1.2776 6.0413-4.1159 9.0794-7.317 2.8197-2.971 6.3382-7.9804 5.8967-8.3953-0.4743-0.44562-3.5161-0.9906-5.529-0.9906-5.4092 0-10.298 2.8853-18.256 10.774-4.0698 4.0344-4.036 3.9022-1.3908 5.4524 2.3731 1.3907 3.589 1.7129 5.9954 1.5884 1.7189-0.0889 2.697-0.3476 4.2044-1.112zm-14.816-8.7872c1.5988-2.1787 3.446-6.0862 4.537-9.597 0.75224-2.4208 0.8527-3.2076 0.73964-5.7926-0.11247-2.5716-0.27587-3.2859-1.1648-5.0915-0.56867-1.1551-1.6982-2.839-2.51-3.742-1.4028-1.5602-1.5017-1.613-1.9933-1.0635-1.0439 1.1669-4.3971 11.571-4.7083 14.609-0.33325 3.2528 1.1717 9.4809 2.7873 11.535 0.3576 0.4546 0.74772 0.82437 0.86695 0.82169 0.11922-3e-3 0.76974-0.75841 1.4456-1.6794zm33.082-31.759c5.5892-1.6598 10.958-9.2584 13.844-19.594 0.52864-1.8933 0.9621-3.5639 0.96326-3.7124 4e-3 -0.45492-3.1422 0.13223-5.21 0.97243-2.6116 1.0612-4.231 2.217-6.4216 4.583-3.1618 3.4151-7.2844 10.092-9.357 15.155-0.96139 2.3484-1.0113 2.6204-0.51674 2.8169 1.0088 0.40087 5.0542 0.26754 6.6985-0.22076zm-11.566-6.6035c0.99934-3.6021 1.4145-10.186 0.79702-12.639-0.99285-3.943-3.3548-6.8834-7.0124-8.7297-1.0732-0.54177-2.0172-0.98504-2.0978-0.98504-0.47418 0-0.97314 4.3096-0.98182 8.48-9e-3 4.1459 0.0917 5.127 0.7361 7.2 1.2168 3.9141 4.1698 8.5216 6.4029 9.9902 1.0377 0.68245 1.0529 0.65916 2.1559-3.3169zm8.4542-41.473c-9.1e-4 -3.8492-0.8549-7.7325-2.4968-11.354-1.2519-2.761-2.6087-4.2019-5.1222-5.4398-1.7771-0.87524-2.5632-1.0652-4.8017-1.1606l-2.6767-0.11403 0.22903 2.194c0.70118 6.7171 4.2371 13.583 8.5109 16.527 1.6835 1.1595 5.1224 2.7638 5.9583 2.7796 0.29572 6e-3 0.39979-0.88927 0.3992-3.4324zm10.415 2.5081c3.4684-1.9894 7.0522-6.9365 8.2497-11.388 1.6062-5.9707 2.2754-15.661 1.2014-17.399-0.38093-0.61636-2.4772 0.54122-4.3234 2.3874-3.0634 3.0634-5.2064 6.9529-6.6841 12.131-0.67639 2.3704-2.7778 13.604-2.7778 14.849 0 0.72618 2.6821 0.36664 4.3342-0.58102zm-15.87-41.015c0.88866-0.19059 1.6157-0.37059 1.6157-0.4-3e-5 -0.02942-0.33979-1.1335-0.75503-2.4535-0.92928-2.9541-2.4025-5.6378-4.6033-8.3859-2.8924-3.6115-4.996-4.8169-8.4186-4.8239-2.2701-0.0046-6.3112 1.1304-6.5874 1.8502-0.4822 1.2566 5.6912 9.9239 8.7104 12.229 1.2466 0.95184 2.0544 1.2646 4.4293 1.715 3.6262 0.68765 3.6507 0.68882 5.6089 0.26886zm9.3488-3.9416c1.8786-1.4344 3.6058-3.9937 4.6768-6.9299 0.82899-2.2726 0.86786-2.6463 0.84699-8.142-0.0199-5.2334-0.1012-6.0492-0.88947-8.9228-0.47717-1.7395-1.3696-4.2493-1.9832-5.5773l-1.1156-2.4145-1.1348 1.0973c-1.5001 1.4505-3.2184 5.0008-3.8609 7.9773-0.84502 3.9145-0.67423 13.716 0.33306 19.115 0.79559 4.2644 0.97937 4.8849 1.4468 4.8849 0.1403 0 0.8964-0.48967 1.6802-1.0882zm-20.834-37.218c-0.97817-4.9299-2.1094-7.7909-4.1475-10.49-3.2485-4.3013-6.5025-6.6849-11.165-8.1784-1.666-0.53366-3.0988-0.90054-3.1841-0.81528-0.61918 0.61918 3.1351 9.085 5.8018 13.083 1.1738 1.7597 4.8941 5.6882 7.3166 7.7259 0.88792 0.74687 5.9736 3.4016 6.2184 3.2461 0.0325-0.02067-0.34568-2.078-0.84049-4.5718zm-146.4 138.95c-3.7027-1.3312-5.3771-4.6993-3.702-7.4467l0.6341-1.04h55.356l0.68122 1.3353c1.2917 2.5319 0.14998 5.2497-2.8195 6.7119l-1.5287 0.75275-23.68 0.0701c-19.758 0.0585-23.889-5e-3 -24.942-0.38344zm2.3447-11.488c-2.7498-0.98269-4.1232-2.7883-4.1232-5.4208 0-1.3147-0.10433-1.51-1.153-2.1581-0.63413-0.39191-1.4256-1.1597-1.7588-1.7061-0.82459-1.3522-0.80729-3.6942 0.0352-4.7652l0.64342-0.81797-2.2434-10.275c-1.2339-5.6511-2.2434-10.342-2.2434-10.425 0-0.0828 14.832-0.15048 32.96-0.15048h32.96l-0.01 0.72c-5e-3 0.396-0.90853 5.112-2.007 10.48-1.9877 9.713-1.9946 9.7654-1.4308 10.88 0.68794 1.36 0.72212 2.6129 0.10389 3.8084-0.48548 0.93883-2.5502 2.9116-3.0474 2.9116-0.15881 0-0.20949 0.48842-0.11262 1.0854 0.38746 2.3876-1.5892 5.0818-4.3311 5.9033-1.8718 0.56079-42.657 0.49616-44.242-0.0701zm17.317-47.57c-7.9744-0.97689-16.281-4.2003-22.803-8.8491-3.3257-2.3705-8.5104-7.5486-10.861-10.847-4.6947-6.5877-7.683-14.146-8.7438-22.116-1.6006-12.026 1.5374-24.392 8.7438-34.457 2.0129-2.8112 4.7647-5.6693 12.308-12.783 5.6073-5.2882 8.8412-9.2888 11.193-13.847 4.2716-8.2783 5.2026-15.594 3.7628-29.569-0.352-3.4167-0.64-6.2559-0.64-6.3094 0-0.2171 15.78 10.44 19.2 12.966 12.634 9.334 19.933 17.008 24.199 25.44 2.9928 5.9163 4.2822 11.418 4.2801 18.265-2e-3 5.9736-0.95941 11.271-3.21 17.759-1.1246 3.2418-1.5033 3.4735 5.3284-3.2601l4.8371-4.7677 0.38577 1.0733c4.6904 13.049 5.5841 16.835 5.5792 23.633-4e-3 5.9114-0.56553 9.4255-2.3668 14.817-5.599 16.759-19.384 28.862-36.707 32.227-3.9541 0.76814-10.877 1.0666-14.485 0.62459zm11.52-5.8943c3.8047-0.57782 8.0473-1.8013 11.038-3.1833l2.3021-1.0636 0.20698-1.7238c0.36947-3.077 0.27698-4.0602-0.40222-4.2758-0.41858-0.13285-4.0694 1.5397-11.44 5.2411l-10.825 5.4362 3.04 0.0155c1.672 9e-3 4.408-0.19229 6.08-0.44622zm-16.32-0.98895c0-0.0959-1.9741-2.3231-4.3869-4.9493-3.5419-3.8552-4.5154-4.7426-5.0538-4.6075-0.39437 0.099-0.99607-0.0915-1.4723-0.46613-0.74186-0.58356-1.0563-0.61112-3.9862-0.34951-1.7494 0.15621-3.3725 0.28916-3.6069 0.29544-0.23437 6e-3 0.34163 0.66977 1.28 1.4744 3.7236 3.193 8.9607 6.1271 13.956 7.8188 2.9112 0.98592 3.2704 1.072 3.2704 0.78377zm2.3915-9.2724c-0.21971-8.5166-0.27621-9.1552-0.79804-9.0187-0.30887 0.0808-2.5292 1.552-4.9341 3.2693-3.2545 2.324-4.3478 3.274-4.2759 3.7153 0.10076 0.61838 9.8703 11.574 10.108 11.336 0.0748-0.0748 0.0296-4.2606-0.10041-9.3016zm13.929 4.3268c7.3439-3.705 9.8194-5.089 9.12-5.0986-0.528-7e-3 -3.4703 0.20053-6.5385 0.46184-4.7375 0.40347-5.6813 0.5717-6.2606 1.1159-0.37518 0.35247-0.96086 0.64159-1.3015 0.6425-0.43474 1e-3 -1.1663 0.88352-2.4543 2.96-1.0092 1.6271-2.1393 3.4263-2.5114 3.9983s-0.55438 1.0322-0.4051 1.0227c0.14928-0.01 4.8074-2.3057 10.351-5.1027zm-9.4445 0.36971c1.7415-2.7642 2.495-4.2654 2.5099-5 0.0168-0.83422-0.53378-1.7944-2.6821-4.6768-2.5371-3.404-2.7102-3.5688-2.8162-2.68-0.11649 0.97712 0.28559 16.577 0.42281 16.404 0.0423-0.0533 1.1968-1.8745 2.5656-4.0472zm27.001-1.1478c2.3841-1.5925 6.8586-5.313 6.6457-5.5258-0.0763-0.0763-1.7731 0.0144-3.7707 0.20156-1.9976 0.18712-3.807 0.34071-4.0208 0.34131-0.2138 6e-4 -0.52138 0.25309-0.68349 0.56109-0.37292 0.70852-0.83344 5.84-0.52411 5.84 0.12665 0 1.1856-0.63816 2.3533-1.4181zm-12.976-5.6165c4.1917-0.34858 7.7557-0.71688 7.92-0.81844 0.16434-0.10157 0.2988-0.35962 0.2988-0.57344 0-0.69394-5.9335-13.813-6.2473-13.813-0.39203 0-10.05 15.282-9.8588 15.6 0.0791 0.132 0.17138 0.2398 0.20499 0.23956 0.0336-2.5e-4 3.4907-0.28565 7.6823-0.63422zm-33.636-0.92445c0.12382-0.11172-1.5322-1.1754-3.68-2.3638-2.1478-1.1884-4.943-2.7434-6.2115-3.4558l-2.3064-1.2951 1.5704 2.9769c0.86371 1.6373 1.9016 3.1904 2.3064 3.4513 0.40481 0.26092 0.85612 0.66574 1.0029 0.8996 0.20919 0.3333 1.0046 0.37818 3.68 0.20762 1.8772-0.11967 3.5144-0.309 3.6382-0.42073zm24.315 0.0391c0.73005-0.85248 9.2876-14.519 9.166-14.638-0.0902-0.0884-4.2413 1.5973-14.284 5.8006-1.3703 0.57354-1.9639 0.98433-1.8502 1.2805 0.27948 0.72829 5.9487 8.117 6.2281 8.117 0.1433 0 0.47635-0.252 0.74012-0.56zm26.418-0.5082c3.5069-0.31888 4.3497-0.49713 4.8859-1.0334l0.64799-0.64799-9.153-6.0114c-5.0342-3.3063-9.1947-5.9636-9.2456-5.9052-0.19775 0.22687 5.7408 13.248 6.2097 13.616 0.60526 0.47455 1.2573 0.47279 6.6551-0.018zm-47.55-5.4949c0.29049-2.6383 0.60771-5.4809 0.70492-6.3169 0.16354-1.4063 0.1241-1.52-0.52727-1.52-0.99469 0-15.269 4.5888-15.179 4.8798 0.12697 0.41353 13.488 7.8723 13.994 7.8116 0.37577-0.0451 0.59468-1.0993 1.0082-4.8546zm8.188-0.10164c1.2076-0.84667 1.6773-1.3854 1.68-1.9269 2e-3 -0.41447 0.42334-1.1435 0.93913-1.6254l0.93534-0.87374-0.18532-7.4484-0.18533-7.4484-4.2056 10.514c-2.3131 5.7826-4.4544 11.138-4.7586 11.902l-0.553 1.3878 2.3285-1.6526c1.2807-0.90891 3.0828-2.1814 4.0048-2.8278zm46.658 1.3945 0.84683-1.1103-0.34724-3.1919c-0.53252-4.895-0.0517-4.637-10.492-5.6301-4.684-0.44558-8.5689-0.75749-8.6333-0.69315-0.12376 0.12376 17.172 11.658 17.555 11.707 0.12304 0.0158 0.60479-0.47095 1.0706-1.0816zm-46.449-17.45c0.31025-0.792 0.42298-1.296 0.25053-1.12-0.68192 0.69594-5.1568 6.8758-5.6015 7.7357-0.26023 0.50322-0.63238 2.3526-0.827 4.1096-0.19463 1.7571-0.42631 3.8427-0.51485 4.6347-0.11843 1.0593 0.6704-0.59032 2.9839-6.24 1.7297-4.224 3.3987-8.328 3.7089-9.12zm50.198 10.82 0.82348-1.8204-0.96871-0.21276c-1.5543-0.34139-1.9287 0.29761-1.6675 2.8466 0.24868 2.4272 0.37183 2.372 1.8127-0.81339zm-36.55-1.7168c4.4808-1.8575 8.2502-3.4798 8.3763-3.6053 0.22081-0.21962-16.023-10.67-16.913-10.881-0.35609-0.08438-0.43663 0.92468-0.43663 5.4702 0 6.2195 0.30966 12.393 0.62162 12.393 0.11239 0 3.8705-1.5198 8.3514-3.3772zm-30.436 0.0813c9.471-3.0658 9.2393-2.3963 3.168-9.1543-2.8554-3.1784-4.6992-4.9912-4.8885-4.8065-0.41516 0.40512-5.8739 15.756-5.7096 16.057 0.16363 0.29911-0.86635 0.58966 7.43-2.0959zm-6.2818-6.3793c2.5137-7.0932 2.7057-7.8022 2.2499-8.3059-0.59607-0.65866-1.9487-0.8536-6.7867-0.97814l-3.6421-0.09375 0.21291 3.0288c0.23914 3.4021 1.0984 7.685 2.0357 10.146 0.70377 1.8482 2.1892 3.9578 2.7867 3.9578 0.22718 0 1.5638-3.2976 3.1435-7.7552zm75.211 2.8752 0.54798-1.68-1.8469-1.6892c-1.0158-0.92905-2.2429-1.9829-2.7269-2.3418-1.0476-0.7769-1.0326-0.85867-0.57338 3.1352 0.37482 3.2596 1.0395 4.0861 3.3923 4.2187 0.52321 0.0295 0.77177-0.30888 1.2069-1.6429zm-6.2446 0.63086c0.23948-0.28856 0.2375-1.4182-7e-3 -3.833-0.2828-2.7962-0.44931-3.4566-0.90828-3.6022-0.31347-0.09949-4.1867 1.2058-8.7583 2.9516-4.508 1.7215-8.0358 3.1835-7.8397 3.2489 0.40689 0.13563 14.65 1.5509 16.173 1.607 0.55045 0.0203 1.1536-0.14722 1.3404-0.37225zm-47.99-6.9955c2.5376-3.4747 3.8886-5.6053 3.8886-6.1322 0-0.70818-0.89584-1.36-7.28-5.297-4.004-2.4692-7.3239-4.366-7.3776-4.215-0.0955 0.26859 6.1728 20.284 6.537 20.873 0.10158 0.16436 0.22041 0.25326 0.26406 0.19755 0.0437-0.0557 1.8292-2.4974 3.968-5.426zm27.25-5.1635c0.75309-5.0645 1.2977-9.2797 1.2103-9.3672-0.13148-0.13148-20.365 7.7062-20.667 8.0057-0.0529 0.05238 3.9061 2.6236 8.7977 5.7139 5.8249 3.6799 8.9622 5.487 9.092 5.2372 0.10903-0.20978 0.81439-4.5251 1.5675-9.5896zm9.8378 6.4534c6.111-2.3306 8.7192-3.4704 8.72-3.8104 6.5e-4 -0.26688-1.5742-1.6658-3.4996-3.1086l-3.5008-2.6234-2.1085 0.95602c-2.014 0.91318-4.9699 1.5873-4.9699 1.1335 0-0.11812 0.19491-0.53369 0.43313-0.9235 0.23822-0.38981 0.88377-1.5302 1.4346-2.5342l1.0014-1.8255-1.8902-1.4545c-1.0396-0.79998-2.0208-1.4545-2.1805-1.4545-0.30418 0-3.2586 18.527-3.027 18.982 0.0733 0.144 0.29878 0.20034 0.50097 0.12521 0.2022-0.0751 4.2911-1.6329 9.0865-3.4618zm-45.882-4.8452c-1.3004-4.092-2.6731-8.4399-3.0505-9.662-0.78172-2.5316-0.51581-2.8232-2.4638 2.702-0.65155 1.848-1.1361 3.665-1.0767 4.0378 0.0831 0.52197 8.5106 10.362 8.8745 10.362 0.0445 0-0.98312-3.348-2.2835-7.44zm64.52 2.6646 0.38988-3.1827-2.4006-7.2043-2.0165 3.9812c-1.1091 2.1897-2.024 4.2908-2.0332 4.6693-0.0114 0.47284 0.79761 1.3963 2.5865 2.9522 1.4317 1.2453 2.7113 2.1973 2.8436 2.1156 0.13225-0.08173 0.41589-1.5808 0.63032-3.3313zm-5.2203-7.4986c1.1341-2.2627 1.9984-4.1776 1.9206-4.2554-0.0778-0.07778-1.4995-0.29569-3.1593-0.48424l-3.0179-0.34281-2.9442 2.1674c-1.6193 1.1921-2.8923 2.2192-2.829 2.2826 0.0633 0.06334 1.5314 1.1763 3.2623 2.4733 2.0703 1.5513 3.4137 2.3436 3.9263 2.3156 0.66585-0.03634 1.0791-0.64097 2.8412-4.1565zm-68.54 0.75564c1.1903-0.60686 1.3202-0.83039 2.6312-4.5297 0.75852-2.1403 1.3035-3.967 1.211-4.0595-0.13378-0.13378-14.077 5.2271-14.517 5.5812-0.16708 0.13467-0.47088 2.9967-0.32409 3.0531 0.0669 0.02572 2.0656 0.14359 4.4416 0.26193s4.5416 0.2413 4.8123 0.27324c0.27078 0.03194 1.0558-0.22919 1.7444-0.58029zm35.523-4.4843c5.456-2.1566 10.041-4.03 10.188-4.1631 0.14733-0.13309-3.6367-3.3742-8.4089-7.2026-4.7722-3.8283-8.7808-6.8576-8.9079-6.7317-0.27525 0.27263-3.5261 21.898-3.3225 22.102 0.0773 0.07735 0.22855 0.09019 0.336 0.02855s4.6594-1.8766 10.115-4.0332zm-10.562-7.1402c0.79285-5.4246 1.4416-10.145 1.4416-10.49s-0.22925-0.71519-0.50945-0.82271c-0.58694-0.22523-15.441 3.0218-16.064 3.5115-0.22755 0.17887-0.37155 0.50826-0.32 0.73196 0.16746 0.72671 13.851 17.755 13.932 17.337 0.0432-0.2228 0.72716-4.8434 1.52-10.268zm-6.33 7.2228c-0.94534-1.188-3.754-4.7267-6.2416-7.8638-3.8892-4.9048-4.547-5.5996-4.6958-4.96-0.98851 4.249-1.1334 5.4914-0.69864 5.9922 0.24421 0.28137 0.49884 0.69167 0.56584 0.91176 0.0947 0.3112 12.301 8.0795 12.695 8.0798 0.0515 3.2e-5 -0.67984-0.97194-1.6252-2.1599zm-22.148-3.1906c3.79-1.5527 4.0177-1.6904 2.56-1.5476-0.88 0.08617-3.2213 0.24935-5.2028 0.36263-1.9816 0.11328-3.6649 0.30641-3.7408 0.42919-0.0759 0.12277-0.23803 0.97756-0.36033 1.8995l-0.22237 1.6763 1.4032-0.55785c0.77175-0.30682 3.2752-1.3248 5.5632-2.2622zm57.363 1.3922c0.33435-0.73382 0.29242-0.76478-1.2898-0.95217-0.89946-0.10653-1.6804-0.14863-1.7355-0.09355-0.11818 0.11818 2.2062 1.8042 2.4873 1.8042 0.10584 0 0.34795-0.34132 0.53802-0.75848zm16.717-0.7334c0-0.11653-0.23872-0.96921-0.5305-1.8948l-0.53051-1.683-1.7111 1.4772c-0.94109 0.81248-1.6024 1.5841-1.4695 1.7146 0.13288 0.13056 0.88959 0.29332 1.6816 0.36169 0.792 0.06836 1.692 0.14945 2 0.1802 0.308 0.03075 0.56-0.03944 0.56-0.15597zm1.92-1.44c0-0.72766-1.0813-3.7881-1.3384-3.7881-0.38538 0-0.32362 0.54687 0.27687 2.4519 0.48859 1.55 1.0616 2.2712 1.0616 1.3362zm-17.128-1.2122c0.26852-0.51926 0.48822-1.0104 0.48822-1.0915 0-0.08104-0.93081 0.22196-2.0685 0.67333-1.1377 0.45137-1.9932 0.94253-1.9011 1.0915 0.0921 0.14893 0.80316 0.27078 1.5802 0.27078 1.241 0 1.4723-0.1149 1.9011-0.94411zm-55.741-1.1797c2.0739-0.11629 3.7299-0.30069 3.68-0.40977-0.0499-0.10908-1.9969-1.9693-4.3266-4.1339-2.4997-2.3226-4.385-3.8434-4.5998-3.7106-0.4612 0.28504-2.0619 3.789-3.0432 6.6617l-0.75279 2.2037 2.6358-0.19983c1.4497-0.10991 4.3326-0.29498 6.4066-0.41127zm48.552-7.6593c0.52198-4.2113 1.0176-8.0448 1.1013-8.519 0.11908-0.67419 3e-3 -0.90954-0.53329-1.0797-0.82858-0.26298-18.855 3.729-18.717 4.1448 0.18939 0.56896 16.713 13.581 16.953 13.349 0.1359-0.13121 0.67418-3.6842 1.1962-7.8955zm6.7937 6.2374c0.92234-0.36612 1.7863-0.83412 1.9199-1.04 0.27475-0.42342 2.6081-7.5495 2.9482-9.0041 0.16-0.68418-0.60308 0.12119-2.7288 2.88-1.623 2.1064-3.8745 5.0192-5.0034 6.4729l-2.0526 2.6431 1.6198-0.64314c0.8909-0.35373 2.3745-0.9427 3.2968-1.3088zm-0.0483-6.8915 5.8221-7.5572 0.15761-2.2028c0.0973-1.3602 0.0352-2.2028-0.16238-2.2028-0.33543 0-7.2183 1.5105-8.1374 1.7858-1.2937 0.38752-1.6606 1.7339-2.6742 9.8142-0.54644 4.356-0.95625 7.92-0.9107 7.92 0.0455 0 2.7028-3.4007 5.9049-7.5572zm-49.166 3.3994c0.37489-2.0399 0.44195-3.1927 0.23031-3.9592-0.16422-0.59474-1.4982-2.6052-2.9644-4.4677l-2.6658-3.3863-0.88773 1.0255c-0.48825 0.56403-0.82982 1.2812-0.75904 1.5936 0.1213 0.53556 6.2765 12.072 6.441 12.072 0.0423 0 0.31489-1.295 0.60577-2.8779zm-4.9614-1.6821c-0.888-1.628-1.997-3.716-2.4644-4.64s-0.9279-1.6797-1.0232-1.6794c-0.0953 3.15e-4 -0.58415 0.65083-1.0862 1.4456l-0.91292 1.445 2.1929 2.0135c4.2855 3.9348 4.7538 4.3581 4.8307 4.3667 0.0428 0.0048-0.64877-1.3233-1.5368-2.9513zm17.139-5.7167c9.7486-2.1769 8.9207-1.3226 10.289-10.617 0.57345-3.8949 1.0059-7.1184 0.96109-7.1632-0.0449-0.04485-4.3699 4.3055-9.6112 9.6675-5.2413 5.362-9.4102 9.7506-9.2643 9.7524 0.14592 0.0019 3.5773-0.73618 7.6253-1.6401zm0.63175-9.3233 10.127-10.32-3.4594-0.37059c-1.9027-0.20382-4.6114-0.46787-6.0194-0.58678l-2.56-0.21619-1.0479 1.3868c-0.57635 0.76273-2.9453 3.2916-5.2643 5.6198l-4.2164 4.233 0.73422 4.727c0.84085 5.4135 0.93784 5.847 1.3084 5.847 0.14895 0 4.828-4.644 10.398-10.32zm-13.125 5.4655c-0.30186-1.994-0.63918-3.7967-0.74959-4.0059-0.1324-0.25088-0.72735 0.07647-1.7475 0.96151l-1.5468 1.3419 2.1885 2.7595c1.2037 1.5177 2.2371 2.7165 2.2964 2.664 0.0593-0.05257-0.13913-1.727-0.441-3.7211zm33.758-0.94345c4.6555-1.0475 8.513-1.953 8.5721-2.0121 0.0591-0.05914-3.3899-2.5964-7.6646-5.6384-4.2747-3.042-7.921-5.6443-8.1029-5.7829-0.1819-0.13859-0.49514-0.15037-0.69608-0.02618-0.39829 0.24616-2.7258 15.041-2.4391 15.505 0.0967 0.15643 0.55607 0.18874 1.0209 0.0718 0.4648-0.11694 4.6542-1.0697 9.3097-2.1172zm17.455-3.9151c6.9968-1.62 7.1165-1.5373-8.4771-5.8532-7.1264-1.9724-12.993-3.5499-13.038-3.5056-0.0443 0.04432 2.9064 2.2233 6.5571 4.8421 5.9275 4.2521 6.7861 4.7677 8.0255 4.8195 0.76331 0.03189 1.5481 0.21826 1.744 0.41414 0.43623 0.43623-0.13113 0.51463 5.1882-0.71694zm4.32-4.6718c0-0.87165-7.3816-6.8339-8.7574-7.0735-0.56337-0.09811-1.1961-0.28455-1.406-0.41429-0.36931-0.22824-12.858 0.60439-14.477 0.96518-0.54515 0.12151 3.1247 1.2777 11.52 3.6294 6.776 1.8981 12.5 3.4662 12.72 3.4846s0.4-0.24771 0.4-0.59138zm-1.2418-6.0416c-0.36289-1.1948-1.0258-2.9998-1.473-4.0111l-0.8132-1.8388-1.4527 1.1904c-2.46 2.0158-2.4662 1.9871 1.0612 4.8823 1.7157 1.4082 3.1685 2.4229 3.2285 2.2549 0.06-0.168-0.1879-1.283-0.5508-2.4777zm-35.743-4.3715c-1.9226-1.3189-3.5676-2.396-3.6556-2.3937-0.25436 0.0067-2.2764 3.5818-2.1164 3.7419 0.13373 0.13374 6.7387 0.91902 8.492 1.0096 0.54557 0.0282-0.26113-0.67109-2.72-2.3578zm18.251 1.7595c9.7497-0.81077 9.1116-0.30629 9.1083-7.2016l-2e-3 -4.8-3.1113-3.4731-5.7171 5.8966c-3.1444 3.2431-6.637 6.8686-7.7612 8.0566-2.4441 2.5827-3.2662 2.4155 7.4837 1.5216zm-15.261-7.7927c-1.1029-3.986-2.0773-7.2474-2.1653-7.2476-0.088-2.26e-4 -0.42168 0.89939-0.74151 1.9991s-1.0935 3.1987-1.7193 4.6642c-0.63832 1.4949-1.0152 2.7813-0.85849 2.9304 0.55741 0.53021 7.3038 5.0871 7.3956 4.9953 0.0518-0.05185-0.8081-3.3555-1.911-7.3415zm6.4241 1.4913c2.5314-5.3927 2.5722-5.5188 2.0963-6.4728-0.42545-0.85284-8.6973-8.9918-9.3938-9.2429-0.14574-0.05253-0.33306 0.59547-0.41627 1.44-0.12093 1.2273 0.32524 3.2699 2.2226 10.176 2.8177 10.255 2.6958 9.8351 2.8149 9.7041 0.0521-0.05726 1.2564-2.579 2.6763-5.6039zm22.769 1.9819c0.35462-0.42729 0.15932-0.88359-1.3108-3.0625l-1.7275-2.5604-0.0911 3.5909c-0.0501 1.975-0.014 3.7917 0.0802 4.0372 0.12987 0.33843 0.46867 0.21074 1.4018-0.52834 0.67681-0.53605 1.4181-1.2006 1.6473-1.4767zm-15.219-5.8718c3.2935-3.4043 5.913-6.265 5.8209-6.357-0.28253-0.28253-7.0172 3.4632-7.8742 4.3795-0.44318 0.47387-0.96427 0.92134-1.158 0.99438-0.3066 0.11561-4.2878 8.0742-4.2878 8.5715 0 0.10274 0.33993-0.16992 0.7554-0.60592s3.4501-3.5781 6.7436-6.9824zm-2.0088-7.8303c2.1884-4.3525 2.3673-3.6763-1.8006-6.8069l-3.655-2.7454-7.2347 1.1722-0.11261 0.96c-0.10235 0.87257 0.34831 1.401 4.9485 5.8019 5.9736 5.7149 5.8114 5.6815 7.8544 1.6181zm3.3928 1.8056c1.5383-0.82191 2.8535-1.5384 2.9226-1.5923 0.2-0.15588-0.60359-1.018-1.9229-2.0629l-1.2188-0.96533-1.452 2.891c-1.4621 2.9112-1.5871 3.2238-1.2889 3.2238 0.0897 0 1.4217-0.67247 2.96-1.4944zm-11.546-12.55c0.74535-0.19934 0.59505-0.3576-1.9447-2.0478l-2.7525-1.8318v4.547l1.9447-0.22571c1.0696-0.12414 2.3082-0.32293 2.7525-0.44174z"/>
</svg>
