<?xml version="1.0" encoding="utf-8"?>
<!-- Generator: Adobe Illustrator 28.0.0, SVG Export Plug-In . SVG Version: 6.00 Build 0)  -->
<svg version="1.1" id="Warstwa_1" xmlns="http://www.w3.org/2000/svg" xmlns:xlink="http://www.w3.org/1999/xlink" x="0px" y="0px"
	 viewBox="0 0 1133.86 850.39" style="enable-background:new 0 0 1133.86 850.39;" xml:space="preserve">
<style type="text/css">
	.st0{fill:#575756;}
	.st1{fill:#E40521;}
	.st2{fill:#B2B2B2;}
</style>
<g>
	<g>
		<g>
			<polygon class="st0" points="128.2,445.91 94.09,426.21 128.2,406.52 128.2,323.06 69.59,356.9 69.59,412.07 69.59,440.36 
				128.2,474.2 186.82,440.36 186.82,412.07 			"/>
			<path class="st1" d="M294.44,378.22l58.62-33.84v-28.29l-58.62,33.84l-34.11-19.7l34.11-19.7v-83.46l-58.62,33.85v55.17v28.29
				l34.11,19.7l-34.11,19.7v0l-24.5,14.15l-34.11-19.7l34.11-19.7v-83.46l-58.62,33.84v55.17v28.29l34.12,19.7l-34.12,19.7v55.17
				v28.29l58.62,33.84l24.5-14.15v26.87v28.29l58.62,33.84l58.62-33.84v-28.29l-58.62,33.84l-34.12-19.7l34.12-19.7v-55.16
				l58.62-33.84v-28.29l-58.62,33.84l-34.11-19.7l34.11-19.7V378.22z M235.82,467.23l34.11,19.7l-34.11,19.7v0l-24.5,14.15
				l-34.11-19.7l34.11-19.7v-55.17l24.5-14.15v26.88V467.23z"/>
			<g>
				<g>
					<polygon class="st2" points="311.08,232.08 316.25,232.08 316.25,248.33 321.79,248.33 321.79,232.08 326.91,232.08 
						326.91,227.07 311.08,227.07 					"/>
				</g>
				<g>
					<polygon class="st2" points="345.99,227.07 340.92,239.57 335.93,227.07 328.91,227.07 328.91,248.33 334.27,248.33 
						334.27,235.98 338.46,245.98 343.52,245.98 347.69,235.98 347.69,248.33 353.05,248.33 353.05,227.07 					"/>
				</g>
			</g>
		</g>
		<g>
			<g>
				<path class="st0" d="M453.11,355.01l12.95,37.43l3.51-42.1h11.19l-6.18,55.81h-13.95l-12.7-37.76l-12.45,37.76h-13.95
					l-6.1-55.81h11.03l3.59,42.19l12.78-37.51H453.11z"/>
				<path class="st0" d="M514.85,405.47c-3.17,1-5.68,1.42-9.36,1.42c-8.94,0-17.29-3.84-17.29-15.54v-28.07h11.7v27.15
					c0,6.02,3.68,7.44,7.85,7.69c3.09,0,4.85-0.33,6.85-0.92v-33.92h11.78v42.94c0,15.62-10.11,20.05-20.63,20.05
					c-4.76,0-11.45-1.09-17.04-3.26l1.5-8.94c5.76,1.67,12.36,2.59,15.96,2.59c4.93,0,8.69-1.5,8.69-9.52V405.47z"/>
				<path class="st0" d="M569.15,406.14h-35.42l-1.09-6.35l20.47-28.49h-18.63l-0.92-8.02h32.08l1.17,6.6l-20.63,28.32h22.97V406.14
					z M544.68,344.32h12.03v12.36h-12.03V344.32z"/>
				<path class="st0" d="M602.49,373.64c-1.84-0.83-6.85-2-11.03-2c-3.59,0-6.6,0.84-6.6,3.68c0,2.92,4.18,4.59,8.35,6.18
					c5.35,2,11.95,4.26,11.95,11.7c0,8.94-5.68,14.04-17.96,14.04c-5.6,0-11.95-1.34-14.62-2.67l1.84-8.69
					c2.09,0.67,8.19,2.51,13.03,2.51c3.59,0,6.43-0.75,6.43-3.93c0-2.92-3.42-4.34-7.35-6.02c-6.1-2.59-12.87-5.26-12.87-12.7
					c0-9.36,6.68-13.28,17.13-13.28c6.1,0,10.19,1.17,13.37,2.42L602.49,373.64z"/>
				<path class="st0" d="M646.1,406.14h-35.42l-1.09-6.35l20.47-28.49h-18.63l-0.92-8.02h32.08l1.17,6.6l-20.63,28.32h22.97V406.14z
					"/>
				<path class="st0" d="M667.49,407.06c-13.03,0-17.71-10.36-17.71-21.72c0.08-11.45,5.43-22.89,22.81-22.89
					c4.85,0,10.19,0.92,15.96,3.34v30.16c0,1.67,1.25,2.34,2.76,2.34c1.09,0,2.17-0.33,3.01-0.84l0.5,7.6
					c-2.92,1.34-6.02,2.09-8.86,2.09c-3.84,0-7.1-1.34-8.35-4.34C675.51,405.14,671.92,407.06,667.49,407.06z M676.85,372.39
					c-2-1-3.42-1.09-5.01-1.09c-8.27,0-10.11,7.6-10.11,14.79c0,6.27,2.59,12.2,8.94,12.2c1.67,0,4.09-0.42,6.18-1.84V372.39z"/>
				<path class="st0" d="M714.61,393.78c5.35,2.34,11.36,4.01,16.54,4.01c5.43,0,8.52-1.84,8.52-6.6c0-4.93-3.17-6.6-9.02-8.69
					c-9.36-3.34-17.79-6.27-17.79-17.46c0-10.78,9.52-15.71,20.47-15.71c6.02,0,11.03,1.25,15.12,2.67l-2.17,9.11
					c-2.92-1.25-7.6-2.51-11.86-2.51c-5.26,0-9.94,0.5-9.94,6.43c0,5.1,5.01,6.18,10.53,8.1c9.52,3.26,16.12,8.35,16.12,17.21
					c0,10.19-8.02,16.79-19.05,16.79c-7.35,0-14.87-1.42-19.3-3.76L714.61,393.78z"/>
				<path class="st0" d="M791.55,406.14h-35.42l-1.09-6.35l20.47-28.49h-18.63l-0.92-8.02h32.08l1.17,6.6l-20.63,28.32h22.97V406.14
					z"/>
				<path class="st0" d="M814.11,386.84h-4.59v19.3h-12.03v-58.4l12.03-0.84v32.33h4.68l11.86-15.87h12.7l-14.87,19.3l17.63,23.48
					h-13.37L814.11,386.84z"/>
				<path class="st0" d="M841.35,384.92c0-16.46,7.27-22.39,19.97-22.39c13.2,0,19.88,5.76,19.88,22.31
					c0,16.37-7.1,22.39-20.38,22.39C848.2,407.23,841.35,401.38,841.35,384.92z M852.88,384.92c0,10.61,3.42,13.37,8.35,13.37
					c5.01,0,8.35-2.76,8.35-13.37c0-11.28-3.26-13.37-8.27-13.37S852.88,373.64,852.88,384.92z"/>
				<path class="st0" d="M915.62,405.39c-3.68,1.59-7.18,1.84-8.6,1.84c-12.87,0-13.28-7.52-13.28-14.54v-5.85l-4.43,2.51l-3.68-7.6
					l8.1-4.59v-29.49h12.03v22.72l7.18-4.09l3.84,7.52l-11.03,6.27v13.28c0,3.09,0.67,4.43,3.34,4.43c1.09,0,3.01,0,5.35-0.58
					L915.62,405.39z"/>
				<path class="st0" d="M941.44,407.06c-13.03,0-17.71-10.36-17.71-21.72c0.08-11.45,5.43-22.89,22.81-22.89
					c4.85,0,10.19,0.92,15.96,3.34v30.16c0,1.67,1.25,2.34,2.76,2.34c1.09,0,2.17-0.33,3.01-0.84l0.5,7.6
					c-2.92,1.34-6.02,2.09-8.86,2.09c-3.84,0-7.1-1.34-8.35-4.34C949.46,405.14,945.86,407.06,941.44,407.06z M950.79,372.39
					c-2-1-3.42-1.09-5.01-1.09c-8.27,0-10.11,7.6-10.11,14.79c0,6.27,2.59,12.2,8.94,12.2c1.67,0,4.09-0.42,6.18-1.84V372.39z"/>
				<path class="st0" d="M433.81,450.01c11.28,0,22.56,2.17,22.56,16.79c0,13.79-10.94,17.79-22.14,17.79
					c-2.59,0-5.35-0.25-7.77-0.75v22.56h-7.44v-55.14C423.87,450.34,428.8,450.01,433.81,450.01z M426.46,478.16
					c2.17,0.42,4.68,0.67,7.35,0.67c7.35,0,15.04-2.26,15.04-11.61c0-10.03-7.27-11.53-15.04-11.53c-2.42,0-5.01,0.08-7.35,0.59
					V478.16z"/>
				<path class="st0" d="M486.69,469.64c-1.75-0.33-3.51-0.5-5.26-0.5c-3.34,0-6.6,0.67-9.86,2.51v34.75h-7.02v-38.18
					c4.59-2.67,10.94-4.34,16.79-4.34c1.84,0,4.01,0.17,6.35,0.67L486.69,469.64z"/>
				<path class="st0" d="M524.12,506.4h-32.16l-0.83-4.93l22.89-31.24h-20.38l-1-5.76h29.16l0.67,5.18l-22.81,30.91h24.48V506.4z"/>
				<path class="st0" d="M529.72,485.35c0-11.11,5.68-21.8,18.71-21.8c11.44,0,16.96,6.01,16.96,15.87c0,2-0.25,4.09-0.67,6.43
					h-27.57c0,11.53,5.6,15.79,15.2,15.79c2.34,0,7.18-0.58,10.69-2.09l0.92,5.76c-4.93,1.92-9.02,2.25-14.29,2.25
					C535.99,507.57,529.72,499.72,529.72,485.35z M537.32,480.33h20.8c0.08-0.5,0.08-1,0.08-1.5c0-6.27-3.68-9.77-9.52-9.77
					C539.83,469.06,537.41,477.49,537.32,480.33z"/>
				<path class="st0" d="M592.3,463.46c3.09,0,6.68,0.33,9.77,1.34v-17.88h6.93v58.4c-5.26,1-11.03,2.09-16.46,2.09
					c-10.69,0-19.8-4.09-19.8-20.47C572.75,473.73,577.68,463.46,592.3,463.46z M602.07,470.64c-3.09-1.09-6.1-1.5-8.6-1.5
					c-8.19,0-13.12,5.35-13.12,17.71c0,10.78,5.6,15.12,13.7,15.12c2.51,0,5.18-0.42,8.02-1.17V470.64z"/>
				<path class="st0" d="M619.62,498.88c2.84,1.17,6.85,2.26,11.03,2.26c5.85,0,8.6-2.92,8.6-5.85c0-9.94-20.55-5.6-20.55-19.55
					c0-7.52,5.85-12.45,14.95-12.45c4.76,0,9.02,1.25,11.11,2.26l-1.42,5.26c-1.75-0.58-5.51-1.42-9.11-1.42
					c-4.34,0-8.52,1.25-8.52,5.76c0,9.44,20.63,5.43,20.63,19.13c0,6.77-5.01,13.2-15.96,13.2c-4.93,0-10.28-1.42-12.7-3.09
					L619.62,498.88z"/>
				<path class="st0" d="M653.54,447.5h6.93v8.69h-6.93V447.5z M660.47,464.46v33.58c0,3.01,1,3.84,2.59,3.84
					c1.25,0,2.84-0.17,4.76-0.92l0.75,5.18c-3.34,1.09-5.6,1.42-6.93,1.42c-7.85,0-8.1-5.85-8.1-8.94v-34.17H660.47z"/>
				<path class="st0" d="M671.92,485.35c0-11.11,5.68-21.8,18.71-21.8c11.44,0,16.96,6.01,16.96,15.87c0,2-0.25,4.09-0.67,6.43
					h-27.57c0,11.53,5.6,15.79,15.2,15.79c2.34,0,7.18-0.58,10.69-2.09l0.92,5.76c-1.34,0.5-2.59,0.92-3.76,1.17
					c-3.09,1.67-4.18,4.34-4.18,7.35c0,3.09,1.92,4.34,4.26,4.34c1.09,0,2.34-0.33,3.51-0.75l1,5.01c-2,1.09-4.34,1.67-6.52,1.67
					c-4.68,0-8.86-2.59-8.86-8.27c0-2.76,1.09-5.76,3.51-8.35c-1,0.08-2.17,0.08-3.26,0.08
					C678.18,507.57,671.92,499.72,671.92,485.35z M679.52,480.33h20.8c0.08-0.5,0.08-1,0.08-1.5c0-6.27-3.68-9.77-9.52-9.77
					C682.02,469.06,679.6,477.49,679.52,480.33z"/>
				<path class="st0" d="M716.61,504.73v-56.81h6.85v18.04c3.93-1.84,7.6-2.51,11.19-2.51c10.11,0,17.79,6.18,17.79,21.22
					c0,11.86-4.68,22.89-20.13,22.89C725.97,507.57,720.37,506.31,716.61,504.73z M723.46,500.13c2.67,1.09,6.6,1.42,9.11,1.42
					c9.52,0,12.53-7.94,12.53-16.79c0-10.94-4.68-15.2-11.36-15.2c-3.01,0-6.6,0.84-10.28,2.34V500.13z"/>
				<path class="st0" d="M760.31,447.5h6.93v8.69h-6.93V447.5z M767.24,464.46v33.58c0,3.01,1,3.84,2.59,3.84
					c1.25,0,2.84-0.17,4.76-0.92l0.75,5.18c-3.34,1.09-5.6,1.42-6.93,1.42c-7.85,0-8.1-5.85-8.1-8.94v-34.17H767.24z"/>
				<path class="st0" d="M778.85,485.51c0-16.21,7.44-22.06,19.05-22.06c11.7,0,18.55,5.68,18.55,21.97
					c0,16.21-7.43,22.14-18.96,22.14C784.87,507.57,778.85,501.8,778.85,485.51z M786.21,485.51c0,12.28,4.09,16.37,11.45,16.37
					c6.27,0,11.45-4.09,11.45-16.37c0-13.37-4.43-16.37-11.36-16.37C791.64,469.14,786.21,472.15,786.21,485.51z"/>
				<path class="st0" d="M848.11,469.64c-1.75-0.33-3.51-0.5-5.26-0.5c-3.34,0-6.6,0.67-9.86,2.51v34.75h-7.02v-38.18
					c4.59-2.67,10.94-4.34,16.79-4.34c1.84,0,4.01,0.17,6.35,0.67L848.11,469.64z"/>
				<path class="st0" d="M883.62,470.98c-4.01-1.34-6.85-1.5-10.02-1.5c-6.18,0-12.36,4.01-12.36,16.04
					c0,12.11,6.18,16.21,13.03,16.21c3.68,0,6.93-0.67,10.44-2l1.09,5.51c-4.26,1.5-7.94,2.34-11.78,2.34
					c-10.94,0-20.38-6.35-20.38-22.05c0-15.46,9.86-22.06,19.8-22.06c3.84,0,7.43,0.67,11.61,2.09L883.62,470.98z"/>
				<path class="st0" d="M924.31,506.4h-32.16l-0.83-4.93l22.89-31.24h-20.38l-1-5.76h29.16l0.67,5.18l-22.81,30.91h24.48V506.4z"/>
				<path class="st0" d="M930.24,485.51c0-16.21,7.44-22.06,19.05-22.06c11.7,0,18.55,5.68,18.55,21.97
					c0,16.21-7.43,22.14-18.96,22.14C936.25,507.57,930.24,501.8,930.24,485.51z M937.59,485.51c0,12.28,4.09,16.37,11.45,16.37
					c6.27,0,11.45-4.09,11.45-16.37c0-13.37-4.43-16.37-11.36-16.37C943.02,469.14,937.59,472.15,937.59,485.51z"/>
				<path class="st0" d="M976.69,498.88c2.84,1.17,6.85,2.26,11.03,2.26c5.85,0,8.6-2.92,8.6-5.85c0-9.94-20.55-5.6-20.55-19.55
					c0-7.52,5.85-12.45,14.95-12.45c4.76,0,9.02,1.25,11.11,2.26l-1.42,5.26c-1.75-0.58-5.51-1.42-9.11-1.42
					c-4.34,0-8.52,1.25-8.52,5.76c0,9.44,20.63,5.43,20.63,19.13c0,6.77-5.01,13.2-15.96,13.2c-4.93,0-10.28-1.42-12.7-3.09
					L976.69,498.88z M985.21,458.19l-3.01-4.59l13.37-10.19l4.01,6.1L985.21,458.19z"/>
				<path class="st0" d="M1040.18,470.98c-4.01-1.34-6.85-1.5-10.02-1.5c-6.18,0-12.36,4.01-12.36,16.04
					c0,12.11,6.18,16.21,13.03,16.21c3.68,0,6.93-0.67,10.44-2l1.09,5.51c-4.26,1.5-7.94,2.34-11.78,2.34
					c-10.94,0-20.38-6.35-20.38-22.05c0-15.46,9.86-22.06,19.8-22.06c3.84,0,7.43,0.67,11.61,2.09L1040.18,470.98z"/>
				<path class="st0" d="M1049.38,447.5h6.93v8.69h-6.93V447.5z M1056.31,464.46v33.58c0,3.01,1,3.84,2.59,3.84
					c1.25,0,2.84-0.17,4.76-0.92l0.75,5.18c-3.34,1.09-5.6,1.42-6.93,1.42c-7.85,0-8.1-5.85-8.1-8.94v-34.17H1056.31z"/>
				<path class="st0" d="M416.52,547.76h6.93v8.69h-6.93V547.76z M423.45,564.72v33.58c0,3.01,1,3.84,2.59,3.84
					c1.25,0,2.84-0.17,4.76-0.92l0.75,5.18c-3.34,1.09-5.6,1.42-6.93,1.42c-7.85,0-8.1-5.85-8.1-8.94v-34.17H423.45z"/>
				<path class="st0" d="M455.2,606.65h-7.69l20.3-55.81h8.61l20.3,55.81h-7.69l-5.18-14.62h-23.47L455.2,606.65z M462.46,585.94
					h19.21l-9.61-27.48L462.46,585.94z"/>
				<path class="st0" d="M520.45,563.71c3.09,0,6.68,0.33,9.77,1.34v-17.88h6.93v58.4c-5.26,1-11.03,2.09-16.46,2.09
					c-10.69,0-19.8-4.09-19.8-20.47C500.9,573.99,505.83,563.71,520.45,563.71z M530.22,570.9c-3.09-1.09-6.1-1.5-8.6-1.5
					c-8.19,0-13.12,5.35-13.12,17.71c0,10.78,5.6,15.12,13.7,15.12c2.51,0,5.18-0.42,8.02-1.17V570.9z"/>
				<path class="st0" d="M567.15,563.63c4.26,0,8.27,0.84,10.94,3.68c4.76-2.42,9.61-3.68,14.54-3.68c8.44,0,14.62,2.67,14.62,14.04
					v28.99h-6.93v-27.74c0-7.85-3.59-9.27-9.19-9.27c-3.59,0-7.35,1-10.11,2.34c0.5,1.59,0.67,3.51,0.67,5.68v28.99h-6.93v-27.74
					c0-7.85-3.59-9.27-9.19-9.27c-3.84,0-7.69,1-10.11,2.34v34.67h-7.02v-38.6C554.7,565.3,561.05,563.63,567.15,563.63z"/>
				<path class="st0" d="M616.78,547.76h6.93v8.69h-6.93V547.76z M623.71,564.72v33.58c0,3.01,1,3.84,2.59,3.84
					c1.25,0,2.84-0.17,4.76-0.92l0.75,5.18c-3.34,1.09-5.6,1.42-6.93,1.42c-7.85,0-8.1-5.85-8.1-8.94v-34.17H623.71z"/>
				<path class="st0" d="M656.46,563.63c8.69,0,14.87,2.42,14.87,14.29v28.74h-6.93v-27.49c0-8.02-3.76-9.61-8.69-9.61
					c-3.68,0-8.19,0.84-11.53,2.26v34.84h-7.02v-38.6C643.34,565.3,650.44,563.63,656.46,563.63z"/>
				<path class="st0" d="M680.85,547.76h6.93v8.69h-6.93V547.76z M687.79,564.72v33.58c0,3.01,1,3.84,2.59,3.84
					c1.25,0,2.84-0.17,4.76-0.92l0.75,5.18c-3.34,1.09-5.6,1.42-6.93,1.42c-7.85,0-8.1-5.85-8.1-8.94v-34.17H687.79z"/>
				<path class="st0" d="M700.57,599.14c2.84,1.17,6.85,2.25,11.03,2.25c5.85,0,8.6-2.92,8.6-5.85c0-9.94-20.55-5.6-20.55-19.55
					c0-7.52,5.85-12.45,14.95-12.45c4.76,0,9.02,1.25,11.11,2.26l-1.42,5.26c-1.75-0.58-5.51-1.42-9.11-1.42
					c-4.34,0-8.52,1.25-8.52,5.76c0,9.44,20.63,5.43,20.63,19.13c0,6.77-5.01,13.2-15.96,13.2c-4.93,0-10.28-1.42-12.7-3.09
					L700.57,599.14z"/>
				<path class="st0" d="M757.38,605.82c-3.51,1.25-5.51,1.67-8.52,1.67c-9.36,0-11.36-3.26-11.36-11.61v-25.56h-5.68v-5.6h5.68
					v-11.53h7.1v11.53h13.87l-1.09,5.6h-12.87v26.4c0,2.84,0.08,5.18,4.6,5.18c1.75,0,3.84-0.17,7.18-1.34L757.38,605.82z"/>
				<path class="st0" d="M787.46,569.9c-1.75-0.33-3.51-0.5-5.26-0.5c-3.34,0-6.6,0.67-9.86,2.51v34.75h-7.02v-38.18
					c4.59-2.67,10.94-4.34,16.79-4.34c1.84,0,4.01,0.17,6.35,0.67L787.46,569.9z"/>
				<path class="st0" d="M821.71,604.32c-4.51,2.84-8.19,3.34-10.94,3.34c-12.62,0-17.88-7.69-17.88-21.47
					c0-17.13,9.69-22.14,20.63-22.14c4.59,0,9.44,0.75,14.29,2.42v31.83c0,2.67,0.33,4.01,2.09,4.01c0.67,0,1.59-0.25,2.76-0.67
					l1.17,4.34c-1.75,1.25-4.43,1.92-6.43,1.92C824.47,607.91,822.38,606.49,821.71,604.32z M820.62,570.9
					c-2.51-0.75-4.76-1.09-7.1-1.09c-7.27,0-13.28,4.09-13.28,16.88c0,9.61,3.26,15.12,11.86,15.12c2.42,0,5.51-0.58,8.52-2.42
					V570.9z"/>
				<path class="st0" d="M866.66,571.23c-4.01-1.34-6.85-1.5-10.02-1.5c-6.18,0-12.36,4.01-12.36,16.04
					c0,12.11,6.18,16.21,13.03,16.21c3.68,0,6.93-0.67,10.44-2.01l1.09,5.51c-4.26,1.5-7.94,2.34-11.78,2.34
					c-10.94,0-20.38-6.35-20.38-22.06c0-15.45,9.86-22.05,19.8-22.05c3.84,0,7.43,0.67,11.61,2.09L866.66,571.23z"/>
				<path class="st0" d="M884.54,612.17c0,8.86-5.35,11.7-11.78,11.7c-2.17,0-4.6-0.5-7.1-1.5l1-5.35c1.84,0.5,3.93,0.83,6.01,0.83
					c2.67,0,4.93-1.17,4.93-5.35v-47.79h6.93V612.17z M877.6,547.76h6.93v8.69h-6.93V547.76z"/>
				<path class="st0" d="M893.65,547.76h6.93v8.69h-6.93V547.76z M900.58,564.72v33.58c0,3.01,1,3.84,2.59,3.84
					c1.25,0,2.84-0.17,4.76-0.92l0.75,5.18c-3.34,1.09-5.6,1.42-6.93,1.42c-7.85,0-8.1-5.85-8.1-8.94v-34.17H900.58z"/>
			</g>
		</g>
	</g>
</g>
</svg>
